<?xml version="1.0" encoding="utf-8"?>
<!-- Generator: Adobe Illustrator 25.2.3, SVG Export Plug-In . SVG Version: 6.00 Build 0)  -->
<svg version="1.1" id="Layer_1" xmlns="http://www.w3.org/2000/svg" xmlns:xlink="http://www.w3.org/1999/xlink" x="0px" y="0px"
	 viewBox="0 0 197.1 10.1" style="enable-background:new 0 0 197.1 10.1;" xml:space="preserve">
<style type="text/css">
	.st0{fill:#FFFFFF;}
</style>
<path class="st0" d="M0.1,8.6h5.5v-1H1.3c0-1.9,4.1-2.4,4.1-5.1C5.4,1,4.3,0,2.7,0C1.5,0,0.5,0.7,0,1.6l0.9,0.6
	c0.4-0.6,1-1.1,1.7-1.1c0.9,0,1.5,0.6,1.5,1.4C4.2,4.5,0,5,0,8C0,8.2,0,8.4,0.1,8.6z M6.5,6.3h4.1v2.3h1.2V6.3h1.2v-1h-1.2V0.1h-1.3
	L6.5,5.6V6.3z M7.8,5.4L7.8,5.4l2.4-3.2c0.2-0.3,0.4-0.7,0.4-0.7h0c0,0,0,0.5,0,0.9v3.1H7.8z M14.2,8.6h1.2V7.4h-1.2V8.6z M17,8.6
	h4.9v-1H20V0.1H19l-2,2l0.7,0.7l0.8-0.8c0.3-0.3,0.4-0.5,0.4-0.5h0c0,0,0,0.3,0,0.5v5.5H17V8.6z M22.9,8.6h4.9v-1H26V0.1h-1.1l-2,2
	l0.7,0.7l0.8-0.8c0.3-0.3,0.4-0.5,0.4-0.5h0c0,0,0,0.3,0,0.5v5.5h-1.9V8.6z M29,8.6h1.2V7.4H29V8.6z M31.8,8.6h5.5v-1h-4.2
	c0-1.9,4.1-2.4,4.1-5.1C37.2,1,36,0,34.5,0c-1.2,0-2.2,0.7-2.7,1.6l0.9,0.6c0.4-0.6,1-1.1,1.7-1.1c0.9,0,1.5,0.6,1.5,1.4
	c0,2-4.2,2.4-4.2,5.4C31.8,8.2,31.8,8.4,31.8,8.6z M41.7,8.8c2.3,0,3-1.9,3-4.4c0-2.4-0.7-4.4-3-4.4c-2.3,0-3,1.9-3,4.4
	C38.7,6.8,39.5,8.8,41.7,8.8z M41.7,7.7c-1.4,0-1.8-1.4-1.8-3.3c0-1.8,0.4-3.3,1.8-3.3c1.4,0,1.8,1.4,1.8,3.3
	C43.5,6.2,43.1,7.7,41.7,7.7z M46.2,8.6h5.5v-1h-4.2c0-1.9,4.1-2.4,4.1-5.1C51.5,1,50.4,0,48.8,0c-1.2,0-2.2,0.7-2.7,1.6L47,2.2
	c0.4-0.6,1-1.1,1.7-1.1c0.9,0,1.5,0.6,1.5,1.4c0,2-4.2,2.4-4.2,5.4C46.1,8.2,46.1,8.4,46.2,8.6z M53.1,8.6h5.5v-1h-4.2
	c0-1.9,4.1-2.4,4.1-5.1C58.4,1,57.3,0,55.7,0c-1.2,0-2.2,0.7-2.7,1.6l0.9,0.6c0.4-0.6,1-1.1,1.7-1.1c0.9,0,1.5,0.6,1.5,1.4
	C57.2,4.5,53,5,53,8C53,8.2,53,8.4,53.1,8.6z M62.4,8.6h1.3L65.3,6h0.9v2.6h1.1V6h0.9l1.6,2.6H71l-2-3.1v0l1.8-2.9h-1.2L68.1,5h-0.9
	V2.5h-1.1V5h-0.9l-1.5-2.5h-1.2l1.8,2.9v0L62.4,8.6z M77.6,8.6h1.2V2.5h-1.2V8.6z M72.1,8.6h2.3c1.5,0,2.2-0.8,2.2-1.9
	c0-1.4-0.9-2-2.2-2h-1.2V2.5h-1.2V8.6z M73.3,7.8V5.6h1c0.8,0,1.2,0.5,1.2,1.1c0,0.6-0.4,1.1-1.2,1.1H73.3z M79.9,8.7
	c1.8-0.1,2.5-1.5,2.5-4.3V3.5h1.8v5.1h1.2V2.5h-4.1v1.9c0,2.2-0.5,3.1-1.4,3.2V8.7z M87.2,8.6h1.2V6.1h1.5V5.3h-1.5V3.5H91v-1h-3.8
	v2.8h-0.7v0.8h0.7V8.6z M97.7,8.6h1.2V2.5h-1.2V8.6z M92.2,8.6h2.3c1.5,0,2.2-0.8,2.2-1.9c0-1.4-0.9-2-2.2-2h-1.2V2.5h-1.2V8.6z
	 M93.4,7.8V5.6h1c0.8,0,1.2,0.5,1.2,1.1c0,0.6-0.4,1.1-1.2,1.1H93.4z M103.8,8.6h1.2V3.1c0-0.5-0.1-1.2-0.1-1.2h0
	c0,0,0.4,0.8,0.7,1.2l3.8,5.5h1.2V0.1h-1.2v5.5c0,0.5,0.1,1.2,0.1,1.2h0c0,0-0.4-0.8-0.7-1.2L105,0.1h-1.2V8.6z M111.5,3
	c0,1,0.7,1.7,1.7,1.7c0.9,0,1.7-0.7,1.7-1.7c0-0.9-0.8-1.7-1.7-1.7C112.2,1.3,111.5,2,111.5,3z M112.4,3c0-0.5,0.4-0.8,0.8-0.8
	c0.5,0,0.8,0.4,0.8,0.8s-0.3,0.9-0.8,0.9C112.7,3.8,112.4,3.5,112.4,3z M111.6,6.3h3.2V5.4h-3.2V6.3z M116.2,8.6h5.5v-1h-4.2
	c0-1.9,4.1-2.4,4.1-5.1c0-1.5-1.1-2.4-2.7-2.4c-1.2,0-2.2,0.7-2.7,1.6l0.9,0.6c0.4-0.6,1-1.1,1.7-1.1c0.9,0,1.5,0.6,1.5,1.4
	c0,2-4.2,2.4-4.2,5.4C116.1,8.2,116.2,8.4,116.2,8.6z M123,8.6h4.9v-1h-1.9V0.1H125l-2,2l0.7,0.7l0.8-0.8c0.3-0.3,0.4-0.5,0.4-0.5h0
	c0,0,0,0.3,0,0.5v5.5H123V8.6z M129,8.6h4.9v-1H132V0.1h-1.1l-2,2l0.7,0.7l0.8-0.8c0.3-0.3,0.4-0.5,0.4-0.5h0c0,0,0,0.3,0,0.5v5.5
	H129V8.6z M134.9,4.8c0,2.4,1.4,4,3.2,4c1.6,0,2.7-1.2,2.7-2.8c0-1.6-1.1-2.8-2.7-2.8c-0.7,0-1.5,0.3-1.9,0.8h0
	c0.2-1.4,1-2.8,2.5-2.8c0.4,0,0.9,0.1,1.2,0.3l0.4-1c-0.5-0.2-1.1-0.3-1.7-0.3C136.1,0,134.9,2.6,134.9,4.8z M138.1,7.7
	c-1.2,0-2-1.4-2-2.3c0-0.8,0.8-1.2,1.7-1.2c1.1,0,1.7,0.7,1.7,1.8C139.6,6.9,139,7.7,138.1,7.7z M144.6,8.7c1.8-0.1,2.5-1.5,2.5-4.3
	V3.5h1.8v5.1h1.2V2.5H146v1.9c0,2.2-0.5,3.1-1.4,3.2V8.7z M151.9,8.6h1.1l2.6-3.6c0.2-0.3,0.5-0.7,0.5-0.8h0c0,0.1,0,0.5,0,0.8v3.6
	h1.1V2.5h-1.1l-2.6,3.6C153.3,6.5,153,6.9,153,7h0c0-0.1,0-0.5,0-0.8V2.5h-1.1V8.6z M159,8.6h5v1.4h1.1V7.6h-0.9V2.5h-1.2v5.1h-2.9
	V2.5H159V8.6z M165.9,5.6c0,1.8,1.3,3.2,3.2,3.2c0.8,0,1.8-0.3,2.4-0.9L171,7c-0.5,0.4-1.1,0.7-1.8,0.7c-1.1,0-2-0.7-2.1-2h4.4
	c0-0.2,0-0.3,0-0.5c0-1.6-0.9-2.8-2.6-2.8C167.2,2.4,165.9,3.6,165.9,5.6z M167.1,4.9c0.2-1,0.9-1.6,1.8-1.6c0.8,0,1.4,0.6,1.5,1.6
	H167.1z M173,8.6h1.2V6h3.1v2.6h1.2V2.5h-1.2V5h-3.1V2.5H173V8.6z M179.6,7.9c0.5,0.5,1.3,0.9,2.2,0.9c1.2,0,2.3-0.6,2.3-1.9
	c0-0.8-0.5-1.2-1.1-1.4v0c0.5-0.2,0.9-0.6,0.9-1.4c0-1.1-0.9-1.6-2.1-1.6c-1,0-1.6,0.3-2.1,0.7l0.4,0.8c0.5-0.3,0.9-0.5,1.5-0.5
	c0.7,0,1.1,0.3,1.1,0.9c0,0.6-0.5,0.9-1.2,0.9H181v0.8h0.7c0.9,0,1.2,0.3,1.2,0.9c0,0.7-0.6,1-1.3,1c-0.7,0-1.3-0.4-1.6-0.7
	L179.6,7.9z M185.5,8.6h1.1l2.6-3.6c0.2-0.3,0.5-0.7,0.5-0.8h0c0,0.1,0,0.5,0,0.8v3.6h1.1V2.5h-1.1l-2.6,3.6
	c-0.2,0.3-0.5,0.7-0.5,0.8h0c0-0.1,0-0.5,0-0.8V2.5h-1.1V8.6z M192.1,8.6h1.3l1.5-2.2h1v2.2h1.2V2.5h-2.4c-1.3,0-2.2,0.7-2.2,1.9
	c0,0.9,0.6,1.6,1.3,1.8v0c0,0-0.1,0.2-0.3,0.4L192.1,8.6z M194.9,5.6c-0.7,0-1.2-0.4-1.2-1.1c0-0.8,0.5-1.1,1.3-1.1h1v2.2H194.9z"/>
</svg>
