<?xml version="1.0" encoding="utf-8"?>
<!-- Generator: Adobe Illustrator 25.2.3, SVG Export Plug-In . SVG Version: 6.00 Build 0)  -->
<svg version="1.1" id="Layer_1" xmlns="http://www.w3.org/2000/svg" xmlns:xlink="http://www.w3.org/1999/xlink" x="0px" y="0px"
	 viewBox="0 0 11 25.3" style="enable-background:new 0 0 11 25.3;" xml:space="preserve">
<style type="text/css">
	.st0{fill:#FFFFFF;}
</style>
<path class="st0" d="M3.7,24.1c-1-0.9-1.8-2-2.3-3.1c-0.7-1.8-1.1-3.8-1.2-5.7C-0.1,12.6,0,9.9,0.3,7.3C0.5,5.9,1,4.5,1.7,3.2
	c0.6-1.1,1.5-2.1,2.9-2.6C5.3,0.2,6.2,0,7.1,0C8,0,8.8,0.1,9.6,0.4C10,0.5,10.2,0.7,10.4,1c0.1,0.3,0.2,0.6,0.1,0.8
	c-0.5,1.7-1,3.4-1.5,5C8.9,7.1,8.7,7.3,8.6,7.4C8.4,7.6,8.1,7.7,7.9,7.7L5.5,8.2c-0.3,0-0.6,0.2-0.8,0.4C4.5,8.8,4.3,9.1,4.3,9.4
	C4,11.6,4.1,13.8,4.5,16c0,0.3,0.2,0.5,0.4,0.7c0.2,0.2,0.5,0.3,0.8,0.4c0.8,0.1,1.5,0.3,2.3,0.4c0.3,0,0.6,0.2,0.8,0.3
	C9,18,9.2,18.2,9.2,18.5c0.5,1.6,1.1,3.2,1.7,4.8c0.1,0.1,0.1,0.3,0.1,0.5c0,0.2,0,0.3-0.1,0.5c-0.1,0.1-0.2,0.3-0.3,0.4
	c-0.1,0.1-0.3,0.2-0.5,0.2c-0.9,0.4-2,0.5-3,0.4c-1-0.1-2-0.4-2.9-0.9C4,24.3,3.8,24.2,3.7,24.1"/>
</svg>
