<?xml version="1.0" encoding="utf-8"?>
<!-- Generator: Adobe Illustrator 25.2.3, SVG Export Plug-In . SVG Version: 6.00 Build 0)  -->
<svg version="1.1" id="Layer_1" xmlns="http://www.w3.org/2000/svg" xmlns:xlink="http://www.w3.org/1999/xlink" x="0px" y="0px"
	 viewBox="0 0 168.7 48.9" style="enable-background:new 0 0 168.7 48.9;" xml:space="preserve">
<style type="text/css">
	.st0{fill:#FFFFFF;}
</style>
<path class="st0" d="M1.7,16.3h2.3V8.8h2.4l4.3,7.4h2.6l-5-8.5v0L13,0h-2.5L6.3,6.9H3.9V0H1.7V16.3z M14.3,13.1
	c0,2.2,1.9,3.4,3.9,3.4c1.7,0,3.2-1,3.8-2.4h0c0,0-0.1,0.4-0.1,0.9v1.2h2.1V8.9c0-2.9-1.7-4.6-4.6-4.6c-1.6,0-3.4,0.6-4.3,1.4
	L16,7.4c0.9-0.7,2.1-1.1,3.3-1.1c1.4,0,2.6,0.6,2.6,2.6V9h-0.6C18.8,9,14.3,9.4,14.3,13.1z M16.5,12.9c0-2.1,3.1-2.3,4.7-2.3h0.6
	v0.4c0,1.7-1.2,3.7-3.1,3.7C17.3,14.8,16.5,13.8,16.5,12.9z M27.4,20.9h2.2v-5.3c0-0.6-0.1-1-0.1-1h0c0.8,1.2,2.1,2,3.6,2
	c3.1,0,5.3-2.4,5.3-6.1c0-3.6-2-6.1-5.1-6.1c-1.7,0-3.2,0.8-3.9,2.2h0c0,0,0.1-0.4,0.1-0.9v-1h-2.1V20.9z M29.5,10.5
	c0-2.9,1.6-4.2,3.4-4.2c1.9,0,3.3,1.6,3.3,4.2c0,2.6-1.5,4.1-3.4,4.1C30.7,14.6,29.5,12.6,29.5,10.5z M43.8,16.3H46V6.5H50V4.6H39.7
	v1.9h4V16.3z M51.1,13.1c0,2.2,1.9,3.4,3.9,3.4c1.7,0,3.2-1,3.8-2.4h0c0,0-0.1,0.4-0.1,0.9v1.2h2.1V8.9c0-2.9-1.7-4.6-4.6-4.6
	c-1.6,0-3.4,0.6-4.3,1.4l0.9,1.6c0.9-0.7,2.1-1.1,3.3-1.1c1.4,0,2.6,0.6,2.6,2.6V9h-0.6C55.7,9,51.1,9.4,51.1,13.1z M53.4,12.9
	c0-2.1,3.1-2.3,4.7-2.3h0.6v0.4c0,1.7-1.2,3.7-3.1,3.7C54.1,14.8,53.4,13.8,53.4,12.9z M64.3,16.3h2.2v-4.8h3V10h-3V6.5h5.1V4.6
	h-7.3V10h-1.4v1.5h1.4V16.3z M72.8,13.1c0,2.2,1.9,3.4,3.9,3.4c1.7,0,3.2-1,3.8-2.4h0c0,0-0.1,0.4-0.1,0.9v1.2h2.1V8.9
	c0-2.9-1.7-4.6-4.6-4.6c-1.6,0-3.4,0.6-4.3,1.4l0.9,1.6c0.9-0.7,2.1-1.1,3.3-1.1c1.4,0,2.6,0.6,2.6,2.6V9h-0.6
	C77.3,9,72.8,9.4,72.8,13.1z M75,12.9c0-2.1,3.1-2.3,4.7-2.3h0.6v0.4c0,1.7-1.2,3.7-3.1,3.7C75.7,14.8,75,13.8,75,12.9z M90.8,10.4
	c0,3.5,2.8,6.1,6.3,6.1c3.4,0,6.3-2.6,6.3-6.1c0-3.5-2.8-6.1-6.3-6.1C93.6,4.3,90.8,6.9,90.8,10.4z M93.1,10.4c0-2.4,1.8-4.1,4-4.1
	c2.2,0,4,1.7,4,4.1c0,2.4-1.8,4.2-4,4.2C94.9,14.6,93.1,12.9,93.1,10.4z M106.1,16.3h2.2v-5h5.9v5h2.2V4.6h-2.2v4.7h-5.9V4.6h-2.2
	V16.3z M118.6,16.4c3.4-0.2,4.8-2.9,4.8-8.2V6.5h3.4v9.8h2.2V4.6h-7.8v3.6c0,4.2-0.9,5.9-2.6,6.2V16.4z M131.5,13.1
	c0,2.2,1.9,3.4,3.9,3.4c1.7,0,3.2-1,3.8-2.4h0c0,0-0.1,0.4-0.1,0.9v1.2h2.1V8.9c0-2.9-1.7-4.6-4.6-4.6c-1.6,0-3.4,0.6-4.3,1.4
	l0.9,1.6c0.9-0.7,2.1-1.1,3.3-1.1c1.4,0,2.6,0.6,2.6,2.6V9h-0.6C136,9,131.5,9.4,131.5,13.1z M133.7,12.9c0-2.1,3.1-2.3,4.7-2.3h0.6
	v0.4c0,1.7-1.2,3.7-3.1,3.7C134.5,14.8,133.7,13.8,133.7,12.9z M149.7,3.3c1.8,0,3.4-1.1,3.4-2.9V0h-1.8v0.3c0,1-0.8,1.5-1.6,1.5
	c-0.8,0-1.6-0.5-1.6-1.5V0h-1.8v0.3C146.3,2.2,147.9,3.3,149.7,3.3z M144.6,16.3h2.1l5-6.9c0.4-0.6,0.9-1.3,1-1.5h0
	c0,0.2-0.1,1-0.1,1.5v6.9h2.2V4.6h-2.2l-5,6.9c-0.4,0.6-0.9,1.4-1,1.6h0c0-0.1,0.1-0.9,0.1-1.6V4.6h-2.1V16.3z M158.3,16.3h2.2v-5
	h5.9v5h2.2V4.6h-2.2v4.7h-5.9V4.6h-2.2V16.3z M4,44.3h2.2v-9.7h4.1v-1.9H0v1.9h4V44.3z M11.4,38.4c0,3.5,2.8,6.1,6.3,6.1
	c3.5,0,6.3-2.6,6.3-6.1c0-3.5-2.8-6.1-6.3-6.1C14.2,32.3,11.4,34.9,11.4,38.4z M17.7,42.8c-2.1,0-3.9-1.5-4.1-3.7h8.3
	C21.5,41.3,19.7,42.8,17.7,42.8z M17.7,34.1c2.1,0,3.8,1.4,4.1,3.6h-8.3C13.8,35.5,15.6,34.1,17.7,34.1z M25,44.4
	c3.4-0.2,4.8-2.9,4.8-8.2v-1.7h3.4v9.8h2.2V32.6h-7.8v3.6c0,4.2-0.9,5.9-2.6,6.2V44.4z M38.1,38.4c0,3.5,2.5,6.1,6.2,6.1
	c1.6,0,3.4-0.6,4.5-1.7l-0.9-1.6c-0.9,0.8-2.2,1.4-3.4,1.4c-2.1,0-3.9-1.4-4-3.9h8.5c0-0.3,0.1-0.6,0.1-0.9c0-3-1.7-5.5-5-5.5
	C40.7,32.3,38.1,34.7,38.1,38.4z M40.5,37.1c0.3-1.9,1.7-3.1,3.4-3.1c1.5,0,2.8,1.1,2.8,3.1H40.5z M51.2,44.3h2.2l0.5-6.9
	c0-0.7,0-2,0-2h0c0,0,0.4,0.9,0.7,1.7l2.8,5.8h1.9l2.8-5.8c0.4-0.9,0.7-1.7,0.7-1.7h0c0,0,0,1.3,0,2l0.5,6.9h2.2l-1-11.6H62l-3,6.6
	c-0.3,0.7-0.6,1.6-0.6,1.6h0c0,0-0.3-0.9-0.6-1.6l-3-6.6h-2.5L51.2,44.3z M70.8,42.4c1.5-2.3,1.7-5.6,1.7-7.4v-0.6h3.5v8H70.8z
	 M67,42.4V47h2.1v-2.8h8.6V47h2v-4.6h-1.7v-9.8h-7.9v2.1c0,1.8-0.2,5.4-1.8,7.7H67z M81.3,38.4c0,3.5,2.5,6.1,6.2,6.1
	c1.6,0,3.4-0.6,4.5-1.7L91,41.2c-0.9,0.8-2.2,1.4-3.4,1.4c-2.1,0-3.9-1.4-4-3.9H92c0-0.3,0.1-0.6,0.1-0.9c0-3-1.7-5.5-5-5.5
	C83.8,32.3,81.3,34.7,81.3,38.4z M83.6,37.1c0.3-1.9,1.7-3.1,3.4-3.1c1.5,0,2.8,1.1,2.8,3.1H83.6z M94.8,48.9H97v-5.3
	c0-0.6-0.1-1-0.1-1h0c0.8,1.2,2.1,2,3.6,2c3.1,0,5.3-2.4,5.3-6.1c0-3.6-2-6.1-5.1-6.1c-1.7,0-3.2,0.8-3.9,2.2h0c0,0,0.1-0.4,0.1-0.9
	v-1h-2.1V48.9z M97,38.5c0-2.9,1.6-4.2,3.4-4.2c1.9,0,3.3,1.6,3.3,4.2c0,2.6-1.5,4.1-3.4,4.1C98.1,42.6,97,40.6,97,38.5z"/>
</svg>
