<?xml version="1.0" encoding="utf-8"?>
<!-- Generator: Adobe Illustrator 25.2.3, SVG Export Plug-In . SVG Version: 6.00 Build 0)  -->
<svg version="1.1" id="Layer_1" xmlns="http://www.w3.org/2000/svg" xmlns:xlink="http://www.w3.org/1999/xlink" x="0px" y="0px"
	 viewBox="0 0 200.1 66.7" style="enable-background:new 0 0 200.1 66.7;" xml:space="preserve">
<style type="text/css">
	.st0{fill:#FFFFFF;}
</style>
<path class="st0" d="M35,15.7c0,6.2,4.8,11.1,10.9,11.1S56.7,22,56.7,15.7c0-6.1-4.7-10.8-10.9-10.8S35,9.6,35,15.7z M38.1,15.7
	c0-4.6,3.5-8.1,7.8-8.1c4.3,0,7.8,3.5,7.8,8.1c0,4.7-3.5,8.4-7.8,8.4C41.5,24.1,38.1,20.5,38.1,15.7z M61,26.5h3v-9.3h11v9.3h2.9
	V5.3H75v9.3H64V5.3h-3V26.5z M81.1,24v2.7c5.8-0.3,7.7-6.2,7.7-16.4V7.9h6.6v18.6h3V5.3H85.9v5C85.9,18.9,84.7,23.5,81.1,24z
	 M101.5,26.5h3l2.1-6.1h8l2.1,6.1h3.1l-7.6-21.2h-3.2L101.5,26.5z M107.4,17.9l2.4-6.7c0.4-1.1,0.8-3,0.8-3h0.1c0,0,0.5,1.9,0.8,3
	l2.3,6.7H107.4z M131.6,4.3c2.3,0,4.4-1.4,4.4-3.8V0h-2.3v0.4c0,1.4-1.1,2-2.1,2s-2.1-0.7-2.1-2V0h-2.3v0.4
	C127.2,2.9,129.3,4.3,131.6,4.3z M123.1,26.5h2.9l9.4-13.7c0.8-1.2,1.8-3.1,1.8-3.1h0.1c0,0-0.2,1.9-0.2,3.1v13.7h2.9V5.3h-2.9
	L127.7,19c-0.8,1.1-1.8,3.1-1.8,3.1h-0.1c0,0,0.2-1.9,0.2-3.1V5.3h-3V26.5z M145.6,26.5h3v-9.3h11v9.3h2.9V5.3h-2.9v9.3h-11V5.3h-3
	V26.5z M0,51.8C0,58,4.3,62.8,10.9,62.8c3.8,0,6.4-1.6,8.2-3.4l-1.6-2.1c-1.7,1.7-4.1,2.8-6.5,2.8c-4.9,0-7.9-3.9-7.9-8.4
	c0-4.5,2.9-8.1,7.8-8.1c2.2,0,4.6,0.9,6.1,2.3l1.5-2.2c-2-1.9-5-2.8-7.7-2.8C4.5,40.9,0,45.6,0,51.8z M20.5,62.5h3l2.1-6.1h8
	l2.1,6.1h3.1l-7.6-21.2H28L20.5,62.5z M26.4,53.9l2.4-6.7c0.4-1.1,0.8-3,0.8-3h0.1c0,0,0.5,1.9,0.8,3l2.3,6.7H26.4z M42,62.5h3v-9.7
	h3.1l5.6,9.7h2.1v4.2h2.7v-6.8h-2.9l-5-8.5v-0.1l6.2-10.1h-3.3l-5.4,8.9H45v-8.9h-3V62.5z M66.7,62.5h2.9V43.9H77v-2.6H59.4v2.6h7.3
	V62.5z M76.1,62.5h3l2.1-6.1h8l2.1,6.1h3.1l-7.6-21.2h-3.2L76.1,62.5z M82.1,53.9l2.4-6.7c0.4-1.1,0.8-3,0.8-3h0.1
	c0,0,0.5,1.9,0.8,3l2.3,6.7H82.1z M97.7,62.5h3v-9.3h11v9.3h2.9V41.3h-2.9v9.3h-11v-9.3h-3V62.5z M122.8,59.9c2.5-3.8,3-9.4,3-14.1
	v-1.9h6.6v16H122.8z M117.6,59.9v6.8h2.8v-4.2h14.8v4.2h2.7v-6.8h-2.3V41.3H123v4.3c0,4.6-0.4,10.1-3.3,14.2H117.6z M158.5,62.5h2.9
	V41.3h-2.9V62.5z M141.8,62.5h7.5c3.7,0,6.3-2.6,6.3-6.5c0-4.2-2.7-6.7-6.4-6.7h-4.3v-8h-3V62.5z M144.7,59.9v-8h4
	c2.3,0,3.8,1.6,3.8,4.1c0,2.5-1.4,4-3.8,4H144.7z M167.1,62.5h3v-7.8h4.8c3.9,0,6.6-2.7,6.6-6.7c0-4-2.8-6.6-6.6-6.6h-7.8V62.5z
	 M170.1,52.1v-8.2h4.4c2.5,0,4.1,1.5,4.1,4.1c0,2.5-1.6,4.1-4.1,4.1H170.1z M184.6,61.4c1.2,0.8,2.4,1.4,3.9,1.4
	c2.6,0,4-2.1,4.8-4.3l6.8-17.3H197L193,52c-0.4,1.3-0.9,2.8-0.9,2.8h-0.1c0,0-0.5-1.5-1.2-2.8l-5.2-10.7h-3.3l8.4,16.6
	c-0.6,1.5-1.2,2.4-2.4,2.4c-1,0-1.9-0.7-2.4-1L184.6,61.4z"/>
</svg>
