<?xml version="1.0" encoding="utf-8"?>
<!-- Generator: Adobe Illustrator 25.2.3, SVG Export Plug-In . SVG Version: 6.00 Build 0)  -->
<svg version="1.1" id="Layer_1" xmlns="http://www.w3.org/2000/svg" xmlns:xlink="http://www.w3.org/1999/xlink" x="0px" y="0px"
	 viewBox="0 0 201.6 50.8" style="enable-background:new 0 0 201.6 50.8;" xml:space="preserve">
<style type="text/css">
	.st0{fill:#FFFFFF;}
</style>
<path class="st0" d="M0,10.9c0,3.6,2.6,6.4,6.6,6.4c2,0,3.9-0.8,5-2l-1.2-2.2c-0.9,0.9-2.3,1.6-3.6,1.6c-2.4,0-3.8-1.8-3.8-3.8
	c0-2.1,1.5-3.8,3.7-3.8C8,7.1,9.2,7.7,10,8.4l1.4-2.1c-1.2-1.3-3-1.8-4.7-1.8C2.6,4.5,0,7.4,0,10.9z M13,13.7c0,2.2,1.8,3.7,4,3.7
	c1.7,0,3.1-0.9,3.9-2.2h0c0,0-0.1,0.4-0.1,0.9v1h2.8V9.4c0-3.1-1.9-4.9-5.1-4.9c-1.8,0-3.8,0.7-4.8,1.5l1.1,2.2
	c1-0.7,2.2-1.2,3.4-1.2c1.3,0,2.3,0.6,2.3,2.2v0.2h-0.5C17.4,9.4,13,10,13,13.7z M16,13.4c0-1.7,2.6-1.9,4.1-1.9h0.5v0.3
	c0,1.5-1.1,3.2-2.8,3.2C16.6,15,16,14.2,16,13.4z M32.4,3.6c2.1,0,3.9-1.2,3.9-3.3V0H34v0.3c0,1.1-0.8,1.5-1.6,1.5s-1.6-0.5-1.6-1.5
	V0h-2.3v0.3C28.5,2.4,30.3,3.6,32.4,3.6z M26.8,17h3l4.5-6.5C34.6,10,35,9.4,35.2,9h0c0,0.3-0.1,1-0.1,1.5V17H38V4.8h-3l-4.5,6.6
	c-0.3,0.5-0.8,1.2-0.9,1.5h0c0-0.2,0.1-0.9,0.1-1.5V4.8h-2.9V17z M44.2,17h3V7.4h4.1V4.8H40.1v2.6h4V17z M64.8,17h3V4.8h-3V17z
	 M53.3,17h5.2c3.2,0,4.6-1.6,4.6-4c0-2.7-1.7-4.1-4.6-4.1h-2.2V4.8h-3V17z M56.4,15v-3.9H58c1.4,0,2.1,0.8,2.1,2
	c0,1.1-0.6,1.9-2,1.9H56.4z M71.2,17h3v-4.9h5.2V17h3V4.8h-3v4.7h-5.2V4.8h-3V17z M89,14.6c1.3-2.1,1.5-4.9,1.5-6.8V7.2h3v7.3H89z
	 M84.4,14.6v5.3h2.8V17h8.3v2.9h2.8v-5.3h-1.8V4.8h-9v2.5c0,2.1-0.3,5.3-1.6,7.2H84.4z M99.6,13.7c0,2.2,1.8,3.7,4,3.7
	c1.7,0,3.1-0.9,3.9-2.2h0c0,0-0.1,0.4-0.1,0.9v1h2.8V9.4c0-3.1-1.9-4.9-5.1-4.9c-1.8,0-3.8,0.7-4.8,1.5l1.1,2.2
	c1-0.7,2.2-1.2,3.4-1.2c1.3,0,2.3,0.6,2.3,2.2v0.2h-0.5C104,9.4,99.6,10,99.6,13.7z M102.6,13.4c0-1.7,2.6-1.9,4.1-1.9h0.5v0.3
	c0,1.5-1.1,3.2-2.8,3.2C103.3,15,102.6,14.2,102.6,13.4z M118.7,10.9c0,3.8,3,6.4,6.7,6.4s6.7-2.6,6.7-6.4c0-3.7-3-6.4-6.7-6.4
	C121.7,4.5,118.7,7.2,118.7,10.9z M121.8,10.9c0-2.3,1.6-3.8,3.6-3.8c2,0,3.6,1.6,3.6,3.8c0,2.3-1.7,3.8-3.6,3.8
	C123.4,14.7,121.8,13.2,121.8,10.9z M134.6,17h3v-4.9h5.2V17h3V4.8h-3v4.7h-5.2V4.8h-3V17z M148.1,17.2c4.1-0.1,5.5-3.2,5.5-8.5V7.3
	h3V17h3V4.8h-8.9v3.8c0,4.3-1.1,5.6-2.6,5.8V17.2z M161.9,13.7c0,2.2,1.8,3.7,4,3.7c1.7,0,3.1-0.9,3.9-2.2h0c0,0-0.1,0.4-0.1,0.9v1
	h2.8V9.4c0-3.1-1.9-4.9-5.1-4.9c-1.8,0-3.8,0.7-4.8,1.5l1.1,2.2c1-0.7,2.2-1.2,3.4-1.2c1.3,0,2.3,0.6,2.3,2.2v0.2H169
	C166.3,9.4,161.9,10,161.9,13.7z M164.9,13.4c0-1.7,2.6-1.9,4.1-1.9h0.5v0.3c0,1.5-1.1,3.2-2.8,3.2C165.5,15,164.9,14.2,164.9,13.4z
	 M181.3,3.6c2.1,0,3.9-1.2,3.9-3.3V0H183v0.3c0,1.1-0.8,1.5-1.6,1.5c-0.8,0-1.6-0.5-1.6-1.5V0h-2.3v0.3
	C177.4,2.4,179.3,3.6,181.3,3.6z M175.7,17h3l4.5-6.5c0.3-0.5,0.8-1.1,0.9-1.5h0c0,0.3-0.1,1-0.1,1.5V17h2.9V4.8h-3l-4.5,6.6
	c-0.3,0.5-0.8,1.2-0.9,1.5h0c0-0.2,0.1-0.9,0.1-1.5V4.8h-2.9V17z M190.3,17h3v-4.9h5.2V17h3V4.8h-3v4.7h-5.2V4.8h-3V17z M48.5,46h3
	v-9.6h4.1v-2.6H44.5v2.6h4V46z M56.6,39.9c0,3.8,3,6.4,6.7,6.4c3.7,0,6.7-2.6,6.7-6.4c0-3.7-3-6.4-6.7-6.4
	C59.6,33.5,56.6,36.2,56.6,39.9z M63.3,44.1c-1.9,0-3.6-1.3-3.9-3.3h7.8C66.8,42.8,65.2,44.1,63.3,44.1z M63.3,35.8
	c1.8,0,3.4,1.2,3.8,3.2h-7.7C59.9,37,61.4,35.8,63.3,35.8z M71.1,46.2c4.1-0.1,5.5-3.2,5.5-8.5v-1.4h3V46h3V33.8h-8.9v3.8
	c0,4.3-1.1,5.6-2.6,5.8V46.2z M85.1,39.9c0,3.5,2.5,6.4,6.6,6.4c1.8,0,3.7-0.6,4.9-1.8l-1.2-2.2c-1,0.8-2.3,1.3-3.5,1.3
	c-1.8,0-3.5-1.1-3.7-3.2h8.4c0-0.4,0.1-0.8,0.1-1.2c0-3.2-1.9-5.8-5.4-5.8C87.7,33.5,85.1,36.2,85.1,39.9z M88.3,38.4
	c0.3-1.6,1.4-2.6,3-2.6c1.4,0,2.4,1,2.4,2.6H88.3z M98.8,46h2.9l0.4-6.6c0-0.8,0-2.1,0-2.1h0c0,0,0.4,1,0.7,1.8l2.4,5.4h2.5l2.4-5.4
	c0.4-0.9,0.7-1.8,0.7-1.8h0c0,0,0,1.3,0,2.1l0.4,6.6h2.9l-1.1-12.2h-3.4l-2.6,6.3c-0.3,0.7-0.6,1.6-0.6,1.6h0c0,0-0.3-0.9-0.6-1.6
	l-2.6-6.3h-3.5L98.8,46z M120.4,43.6c1.3-2.1,1.5-4.9,1.5-6.8v-0.6h3v7.3H120.4z M115.8,43.6v5.3h2.8V46h8.3v2.9h2.8v-5.3h-1.8v-9.8
	h-9v2.5c0,2.1-0.3,5.3-1.6,7.2H115.8z M131,39.9c0,3.5,2.5,6.4,6.6,6.4c1.8,0,3.7-0.6,4.9-1.8l-1.2-2.2c-1,0.8-2.3,1.3-3.5,1.3
	c-1.8,0-3.5-1.1-3.7-3.2h8.4c0-0.4,0.1-0.8,0.1-1.2c0-3.2-1.9-5.8-5.4-5.8C133.6,33.5,131,36.2,131,39.9z M134.2,38.4
	c0.3-1.6,1.4-2.6,3-2.6c1.4,0,2.4,1,2.4,2.6H134.2z M145.2,50.8h3v-5.2c0-0.6-0.1-1.1-0.1-1.1h0c0.9,1.1,2.1,1.7,3.5,1.7
	c3.2,0,5.6-2.5,5.6-6.4c0-3.8-2.1-6.4-5.4-6.4c-1.7,0-3.1,0.7-3.9,2.1h0c0,0,0-0.4,0-0.9v-0.9h-2.8V50.8z M148.2,40
	c0-2.7,1.5-3.9,3.1-3.9c1.8,0,3,1.5,3,3.8c0,2.4-1.4,3.8-3.1,3.8C149.2,43.8,148.2,41.9,148.2,40z"/>
</svg>
