<?xml version="1.0" encoding="utf-8"?>
<!-- Generator: Adobe Illustrator 25.2.3, SVG Export Plug-In . SVG Version: 6.00 Build 0)  -->
<svg version="1.1" id="Layer_1" xmlns="http://www.w3.org/2000/svg" xmlns:xlink="http://www.w3.org/1999/xlink" x="0px" y="0px"
	 viewBox="0 0 165.6 38.9" style="enable-background:new 0 0 165.6 38.9;" xml:space="preserve">
<style type="text/css">
	.st0{fill:url(#SVGID_1_);}
</style>
<linearGradient id="SVGID_1_" gradientUnits="userSpaceOnUse" x1="-1.3751" y1="38.1693" x2="172.7239" y2="0.7265" gradientTransform="matrix(1 0 0 -1 0 40.532)">
	<stop  offset="0" style="stop-color:#FFFFFF"/>
	<stop  offset="1" style="stop-color:#FFFFFF"/>
</linearGradient>
<path class="st0" d="M0,38.3h7l3.2-9.6h13.2l3.2,9.6h7L20.4,0.6h-7.2L0,38.3z M11.9,23.1L15.3,13c0.6-2.1,1.5-5.8,1.5-5.8h0.1
	c0,0,0.8,3.7,1.5,5.8l3.3,10.1H11.9z M34.7,38.3h7.7L51,21.8h4.4v16.4h6.8V21.8h4.4l8.5,16.4h7.7L72.1,18.7v-0.1L82,0.6h-7.4
	L66.5,16h-4.4V0.6h-6.8V16H51L42.9,0.6h-7.4l9.8,17.9v0.1L34.7,38.3z M86.6,38.3h6.8l1.5-21c0.2-2.5,0.1-5.9,0.1-5.9h0.1
	c0,0,1.2,3.7,2.1,5.9l6.1,14.6h5.9l6.1-14.6c0.8-2.2,2.1-5.8,2.1-5.8h0.1c0,0-0.2,3.3,0.1,5.8l1.5,21h6.8l-3.1-37.6h-7.3l-7.4,18.6
	c-0.8,2.2-1.9,5.5-1.9,5.5h-0.1c0,0-1-3.3-1.9-5.5L96.9,0.6h-7.3L86.6,38.3z M131.4,19.3c0,11.1,7.6,19.6,19.5,19.6
	c6.7,0,11.6-2.8,14.8-6.1l-3.6-4.9c-2.9,2.8-6.9,4.8-10.9,4.8c-8.2,0-12.7-6.4-12.7-13.5c0-6.9,4.3-12.9,12.6-12.9
	c3.7,0,7.6,1.7,10.3,4l3.3-5.1c-3.7-3.6-9-5.1-13.9-5.1C139.4,0,131.4,8.4,131.4,19.3z"/>
</svg>
