<?xml version="1.0" encoding="utf-8"?>
<!-- Generator: Adobe Illustrator 25.2.3, SVG Export Plug-In . SVG Version: 6.00 Build 0)  -->
<svg version="1.1" id="Layer_1" xmlns="http://www.w3.org/2000/svg" xmlns:xlink="http://www.w3.org/1999/xlink" x="0px" y="0px"
	 viewBox="0 0 180.8 10.1" style="enable-background:new 0 0 180.8 10.1;" xml:space="preserve">
<style type="text/css">
	.st0{fill:#FFFFFF;}
</style>
<path class="st0" d="M0,7.6v1.1c2.3-0.1,3.1-2.5,3.1-6.6v-1h2.6v7.4h1.2V0.1H1.9v2C1.9,5.6,1.4,7.4,0,7.6z M8.8,8.6h1.1L12.6,5
	c0.2-0.3,0.5-0.7,0.5-0.8h0c0,0.1,0,0.5,0,0.8v3.6h1.1V2.5h-1.1l-2.6,3.6C10.3,6.5,10,6.9,9.9,7h0c0-0.1,0-0.5,0-0.8V2.5H8.8V8.6z
	 M16,8.6h5v1.4h1.1V7.6h-0.9V2.5H20v5.1h-2.9V2.5H16V8.6z M22.8,5.6c0,1.8,1.3,3.2,3.2,3.2c0.8,0,1.8-0.3,2.4-0.9L27.9,7
	c-0.5,0.4-1.1,0.7-1.8,0.7c-1.1,0-2-0.7-2.1-2h4.4c0-0.2,0-0.3,0-0.5c0-1.6-0.9-2.8-2.6-2.8C24.2,2.4,22.8,3.6,22.8,5.6z M24.1,4.9
	c0.2-1,0.9-1.6,1.8-1.6c0.8,0,1.4,0.6,1.5,1.6H24.1z M29.9,8.6h1.2V6h3.1v2.6h1.2V2.5h-1.2V5h-3.1V2.5h-1.2V8.6z M36.5,7.9
	c0.5,0.5,1.3,0.9,2.2,0.9c1.2,0,2.3-0.6,2.3-1.9c0-0.8-0.5-1.2-1.1-1.4v0c0.5-0.2,0.9-0.6,0.9-1.4c0-1.1-0.9-1.6-2.1-1.6
	c-1,0-1.6,0.3-2.1,0.7l0.4,0.8c0.5-0.3,0.9-0.5,1.5-0.5c0.7,0,1.1,0.3,1.1,0.9c0,0.6-0.5,0.9-1.2,0.9h-0.6v0.8h0.7
	c0.9,0,1.2,0.3,1.2,0.9c0,0.7-0.6,1-1.3,1c-0.7,0-1.3-0.4-1.6-0.7L36.5,7.9z M42.5,8.6h1.1L46.2,5c0.2-0.3,0.5-0.7,0.5-0.8h0
	c0,0.1,0,0.5,0,0.8v3.6h1.1V2.5h-1.1l-2.6,3.6c-0.2,0.3-0.5,0.7-0.5,0.8h0c0-0.1,0-0.5,0-0.8V2.5h-1.1V8.6z M49.1,8.6h1.3l1.5-2.2h1
	v2.2H54V2.5h-2.4c-1.3,0-2.2,0.7-2.2,1.9c0,0.9,0.6,1.6,1.3,1.8v0c0,0-0.1,0.2-0.3,0.4L49.1,8.6z M51.8,5.6c-0.7,0-1.2-0.4-1.2-1.1
	c0-0.8,0.5-1.1,1.3-1.1h1v2.2H51.8z M59,8.6h1.2V3.1c0-0.5-0.1-1.2-0.1-1.2h0c0,0,0.4,0.8,0.7,1.2l3.8,5.5h1.2V0.1h-1.2v5.5
	c0,0.5,0.1,1.2,0.1,1.2h0c0,0-0.4-0.8-0.7-1.2l-3.8-5.5H59V8.6z M66.6,3c0,1,0.7,1.7,1.7,1.7C69.3,4.7,70,3.9,70,3
	c0-0.9-0.8-1.7-1.7-1.7C67.4,1.3,66.6,2,66.6,3z M67.5,3c0-0.5,0.4-0.8,0.8-0.8c0.5,0,0.8,0.4,0.8,0.8s-0.3,0.9-0.8,0.9
	C67.9,3.8,67.5,3.5,67.5,3z M66.7,6.3h3.2V5.4h-3.2V6.3z M71.3,8.6h5.5v-1h-4.2c0-1.9,4.1-2.4,4.1-5.1C76.7,1,75.6,0,74,0
	c-1.2,0-2.2,0.7-2.7,1.6l0.9,0.6c0.4-0.6,1-1.1,1.7-1.1c0.9,0,1.5,0.6,1.5,1.4c0,2-4.2,2.4-4.2,5.4C71.3,8.2,71.3,8.4,71.3,8.6z
	 M78.3,8.6h1.2V7.4h-1.2V8.6z M81.1,8.6H86v-1h-1.9V0.1h-1.1l-2,2l0.7,0.7l0.8-0.8C82.9,1.8,83,1.6,83,1.6h0c0,0,0,0.3,0,0.5v5.5
	h-1.9V8.6z M87.2,8.6h1.2V7.4h-1.2V8.6z M90,8.6h4.9v-1H93V0.1h-1.1l-2,2l0.7,0.7l0.8-0.8c0.3-0.3,0.4-0.5,0.4-0.5h0
	c0,0,0,0.3,0,0.5v5.5H90V8.6z M95.9,4.8c0,2.4,1.4,4,3.2,4c1.6,0,2.7-1.2,2.7-2.8c0-1.6-1.1-2.8-2.7-2.8c-0.7,0-1.5,0.3-1.9,0.8h0
	c0.2-1.4,1-2.8,2.5-2.8c0.4,0,0.9,0.1,1.2,0.3l0.4-1c-0.5-0.2-1.1-0.3-1.7-0.3C97.1,0,95.9,2.6,95.9,4.8z M99.1,7.7
	c-1.2,0-2-1.4-2-2.3c0-0.8,0.8-1.2,1.7-1.2c1.1,0,1.7,0.7,1.7,1.8C100.6,6.9,100,7.7,99.1,7.7z M105.9,5.6c0,1.8,1.5,3.2,3.3,3.2
	c1.8,0,3.3-1.3,3.3-3.2c0-1.8-1.5-3.2-3.3-3.2C107.4,2.4,105.9,3.7,105.9,5.6z M107.1,5.6c0-1.3,0.9-2.2,2.1-2.2
	c1.1,0,2.1,0.9,2.1,2.2c0,1.3-0.9,2.2-2.1,2.2C108,7.8,107.1,6.8,107.1,5.6z M115.1,8.6h1.2V3.5h2.1v-1H113v1h2.1V8.6z M122.3,8.6
	h5.5v-1h-4.2c0-1.9,4.1-2.4,4.1-5.1c0-1.5-1.1-2.4-2.7-2.4c-1.2,0-2.2,0.7-2.7,1.6l0.9,0.6c0.4-0.6,1-1.1,1.7-1.1
	c0.9,0,1.5,0.6,1.5,1.4c0,2-4.2,2.4-4.2,5.4C122.3,8.2,122.3,8.4,122.3,8.6z M128.7,6.3h4.1v2.3h1.2V6.3h1.2v-1H134V0.1h-1.3
	l-3.9,5.5V6.3z M130.1,5.4L130.1,5.4l2.4-3.2c0.2-0.3,0.4-0.7,0.4-0.7h0c0,0,0,0.5,0,0.9v3.1H130.1z M136.5,8.6h1.2V7.4h-1.2V8.6z
	 M139.3,8.6h4.9v-1h-1.9V0.1h-1.1l-2,2l0.7,0.7l0.8-0.8c0.3-0.3,0.4-0.5,0.4-0.5h0c0,0,0,0.3,0,0.5v5.5h-1.9V8.6z M145.2,8.6h4.9v-1
	h-1.9V0.1h-1.1l-2,2l0.7,0.7l0.8-0.8c0.3-0.3,0.4-0.5,0.4-0.5h0c0,0,0,0.3,0,0.5v5.5h-1.9V8.6z M151.3,8.6h1.2V7.4h-1.2V8.6z
	 M154.1,8.6h5.5v-1h-4.2c0-1.9,4.1-2.4,4.1-5.1c0-1.5-1.1-2.4-2.7-2.4c-1.2,0-2.2,0.7-2.7,1.6l0.9,0.6c0.4-0.6,1-1.1,1.7-1.1
	c0.9,0,1.5,0.6,1.5,1.4c0,2-4.2,2.4-4.2,5.4C154,8.2,154.1,8.4,154.1,8.6z M164,8.8c2.3,0,3-1.9,3-4.4c0-2.4-0.7-4.4-3-4.4
	c-2.3,0-3,1.9-3,4.4C161,6.8,161.7,8.8,164,8.8z M164,7.7c-1.4,0-1.8-1.4-1.8-3.3c0-1.8,0.4-3.3,1.8-3.3c1.4,0,1.8,1.4,1.8,3.3
	C165.8,6.2,165.4,7.7,164,7.7z M168.4,8.6h5.5v-1h-4.2c0-1.9,4.1-2.4,4.1-5.1c0-1.5-1.1-2.4-2.7-2.4c-1.2,0-2.2,0.7-2.7,1.6l0.9,0.6
	c0.4-0.6,1-1.1,1.7-1.1c0.9,0,1.5,0.6,1.5,1.4c0,2-4.2,2.4-4.2,5.4C168.4,8.2,168.4,8.4,168.4,8.6z M175.3,8.6h5.5v-1h-4.2
	c0-1.9,4.1-2.4,4.1-5.1c0-1.5-1.1-2.4-2.7-2.4c-1.2,0-2.2,0.7-2.7,1.6l0.9,0.6c0.4-0.6,1-1.1,1.7-1.1c0.9,0,1.5,0.6,1.5,1.4
	c0,2-4.2,2.4-4.2,5.4C175.3,8.2,175.3,8.4,175.3,8.6z"/>
</svg>
