<?xml version="1.0" encoding="utf-8"?>
<!-- Generator: Adobe Illustrator 25.2.3, SVG Export Plug-In . SVG Version: 6.00 Build 0)  -->
<svg version="1.1" id="Layer_1" xmlns="http://www.w3.org/2000/svg" xmlns:xlink="http://www.w3.org/1999/xlink" x="0px" y="0px"
	 viewBox="0 0 26 28" style="enable-background:new 0 0 26 28;" xml:space="preserve">
<style type="text/css">
	.st0{clip-path:url(#SVGID_2_);}
	.st1{fill:#50AF3C;}
</style>
<g>
	<defs>
		<rect id="SVGID_1_" width="26" height="28"/>
	</defs>
	<clipPath id="SVGID_2_">
		<use xlink:href="#SVGID_1_"  style="overflow:visible;"/>
	</clipPath>
	<g class="st0">
		<path class="st1" d="M13,28c-0.4,0-0.9-0.1-1.3-0.3l-1.2-0.6C4,23.8,0,17.6,0,10.8V5.3C0,4.6,0.6,4,1.4,4h0.3
			c4.1,0,7.6-1.2,10.4-3.6C12.4,0.1,12.7,0,13.1,0c0.3,0,0.6,0.2,0.8,0.4C16.8,2.7,20.4,4,24.3,4h0.3C25.4,4,26,4.6,26,5.3v5.5
			c0,6.8-4,13-10.5,16.3l-1.2,0.6C13.9,27.9,13.4,28,13,28z M11.2,25.6l1.2,0.6c0.3,0.2,0.7,0.2,1.1,0l1.2-0.6
			c5.9-3,9.6-8.6,9.6-14.8V5.6h-0.1c-4.1,0-8.1-1.4-11.2-3.8C10,4.3,6.2,5.6,1.7,5.6H1.7v5.2C1.7,17,5.3,22.6,11.2,25.6z"/>
	</g>
</g>
</svg>
