<svg width="129" height="28" viewBox="0 0 129 28" fill="none" xmlns="http://www.w3.org/2000/svg">
<path d="M0.20507 16.1907C0.20507 22.471 5.00584 27.3623 11.1653 27.3623C17.3248 27.3623 22.0954 22.471 22.0954 16.1907C22.0954 10.0614 17.3248 5.32103 11.1653 5.32103C5.00584 5.32103 0.20507 10.0614 0.20507 16.1907ZM3.28481 16.1907C3.28481 11.5711 6.78726 8.03845 11.1653 8.03845C15.5132 8.03845 19.0157 11.5711 19.0157 16.1907C19.0157 20.9613 15.5132 24.6147 11.1653 24.6147C6.78726 24.6147 3.28481 20.9613 3.28481 16.1907ZM26.3902 27H29.3794V17.64H40.4604V27H43.4194V5.68335H40.4604V15.0434H29.3794V5.68335H26.3902V27ZM46.5897 24.4939V27.2415C52.4774 26.9094 54.289 20.9915 54.289 10.7559V8.28H60.9014V27H63.8906V5.68335H51.4508V10.7257C51.4508 19.3912 50.1827 24.0108 46.5897 24.4939ZM67.1435 27H70.193L72.3367 20.8707H80.3682L82.512 27H85.5917L77.9527 5.68335H74.7824L67.1435 27ZM73.1218 18.3948L75.5071 11.6617C75.8694 10.5445 76.3223 8.61213 76.3223 8.61213H76.3827C76.3827 8.61213 76.8658 10.5445 77.2281 11.6617L79.5832 18.3948H73.1218ZM97.4766 4.68697C99.8317 4.68697 101.945 3.29806 101.945 0.822192V0.36929H99.6204V0.761806C99.6204 2.12051 98.5334 2.78477 97.4766 2.78477C96.4199 2.78477 95.3631 2.12051 95.3631 0.791999V0.36929H93.008V0.822192C93.008 3.29806 95.1517 4.68697 97.4766 4.68697ZM88.8413 27H91.7701L101.281 13.1714C102.036 11.9938 103.062 10.0614 103.062 10.0614H103.123C103.123 10.0614 102.942 11.9636 102.942 13.1714V27H105.901V5.68335H102.972L93.5213 19.4818C92.7665 20.6292 91.7097 22.6219 91.7097 22.6219H91.6493C91.6493 22.6219 91.8305 20.7197 91.8305 19.512V5.68335H88.8413V27ZM111.545 27H114.535V17.64H125.616V27H128.575V5.68335H125.616V15.0434H114.535V5.68335H111.545V27Z" fill="white"/>
</svg>
