<svg width="147" height="77" viewBox="0 0 147 77" fill="none" xmlns="http://www.w3.org/2000/svg">
<path d="M0.176 9.408C0.176 14.4 3.992 18.288 8.888 18.288C13.784 18.288 17.576 14.4 17.576 9.408C17.576 4.536 13.784 0.767999 8.888 0.767999C3.992 0.767999 0.176 4.536 0.176 9.408ZM2.624 9.408C2.624 5.736 5.408 2.928 8.888 2.928C12.344 2.928 15.128 5.736 15.128 9.408C15.128 13.2 12.344 16.104 8.888 16.104C5.408 16.104 2.624 13.2 2.624 9.408ZM20.4172 18H22.7452V12.792H28.8892V18H31.2172V5.856H28.8892V10.8H22.7452V5.856H20.4172V18ZM33.4878 18.12C37.0638 17.928 38.4558 15.096 38.4558 9.6V7.776H42.0318V18H44.3598V5.856H36.2238V9.6C36.2238 13.992 35.2638 15.768 33.4878 16.032V18.12ZM46.9482 14.688C46.9482 16.968 48.8923 18.288 51.0043 18.288C52.8043 18.288 54.2923 17.208 54.9883 15.816H55.0363C55.0363 15.816 54.9643 16.224 54.9643 16.776V18H57.1483V10.32C57.1483 7.248 55.3963 5.568 52.3483 5.568C50.6443 5.568 48.7963 6.192 47.8123 7.008L48.7483 8.712C49.7323 8.016 50.9563 7.536 52.1562 7.536C53.6683 7.536 54.8203 8.208 54.8203 10.2V10.44H54.1963C51.6763 10.44 46.9482 10.872 46.9482 14.688ZM49.2763 14.496C49.2763 12.264 52.4922 12.12 54.2203 12.12H54.8203V12.576C54.8203 14.376 53.5963 16.44 51.5563 16.44C50.0443 16.44 49.2763 15.456 49.2763 14.496ZM65.9411 4.464C67.8131 4.464 69.4931 3.36 69.4931 1.392V1.032H67.6451V1.344C67.6451 2.424 66.7811 2.952 65.9411 2.952C65.1011 2.952 64.2611 2.424 64.2611 1.368V1.032H62.3891V1.392C62.3891 3.36 64.0931 4.464 65.9411 4.464ZM60.5891 18H62.8211L68.0771 10.752C68.4611 10.176 69.0611 9.36 69.1331 9.144H69.1811C69.1811 9.336 69.1091 10.176 69.1091 10.752V18H71.3651V5.856H69.1091L63.8771 13.104C63.4691 13.68 62.8931 14.52 62.7971 14.736H62.7491C62.7731 14.616 62.8211 13.752 62.8211 13.104V5.856H60.5891V18ZM74.9328 18H77.2608V12.792H83.4048V18H85.7328V5.856H83.4048V10.8H77.2608V5.856H74.9328V18ZM0.00800008 40.904C0.00800008 44.6 2.936 47.288 6.56 47.288C10.16 47.288 13.088 44.6 13.088 40.904C13.088 37.232 10.16 34.568 6.536 34.568C2.936 34.568 0.00800008 37.232 0.00800008 40.904ZM2.384 40.904C2.384 38.384 4.256 36.584 6.56 36.584C8.84 36.584 10.736 38.384 10.736 40.904C10.736 43.448 8.84 45.272 6.56 45.272C4.256 45.272 2.384 43.448 2.384 40.904ZM15.1258 40.904C15.1258 44.648 17.9338 47.12 21.7018 47.288V51.8H23.9338V47.288C27.7018 47.12 30.4858 44.648 30.4858 40.904C30.4858 37.184 27.7018 34.736 23.9338 34.592V30.2H21.7018V34.592C17.9338 34.736 15.1258 37.184 15.1258 40.904ZM23.9338 45.344V36.512C26.4058 36.656 28.2057 38.264 28.2057 40.904C28.2057 43.52 26.4058 45.176 23.9338 45.344ZM17.4298 40.904C17.4298 38.264 19.2058 36.656 21.7018 36.512V45.344C19.2058 45.176 17.4298 43.52 17.4298 40.904ZM32.5158 40.904C32.5158 44.6 35.4438 47.288 39.0678 47.288C42.6678 47.288 45.5958 44.6 45.5958 40.904C45.5958 37.232 42.6678 34.568 39.0438 34.568C35.4438 34.568 32.5158 37.232 32.5158 40.904ZM34.8918 40.904C34.8918 38.384 36.7638 36.584 39.0678 36.584C41.3478 36.584 43.2438 38.384 43.2438 40.904C43.2438 43.448 41.3478 45.272 39.0678 45.272C36.7638 45.272 34.8918 43.448 34.8918 40.904ZM48.4016 51.8H50.7296V46.28C50.7296 45.656 50.6336 45.224 50.6336 45.224H50.6816C51.5216 46.52 52.9136 47.288 54.4496 47.288C57.6416 47.288 59.9456 44.792 59.9456 40.928C59.9456 37.16 57.9056 34.568 54.6176 34.568C52.8416 34.568 51.3056 35.384 50.5376 36.848H50.4896C50.4896 36.848 50.5616 36.44 50.5616 35.936V34.856H48.4016V51.8ZM50.6576 40.976C50.6576 37.904 52.3376 36.608 54.1616 36.608C56.1776 36.608 57.5936 38.312 57.5936 40.952C57.5936 43.712 56.0096 45.272 54.0896 45.272C51.8576 45.272 50.6576 43.136 50.6576 40.976ZM62.3116 47H64.5676L65.0956 39.776C65.1436 39.056 65.0716 37.688 65.0716 37.688H65.1196C65.1196 37.688 65.5036 38.6 65.8876 39.488L68.7676 45.536H70.7596L73.6396 39.464C74.0956 38.528 74.4076 37.688 74.4076 37.688H74.4556C74.4556 37.688 74.4076 39.056 74.4316 39.776L74.9596 47H77.2156L76.1596 34.856H73.6156L70.4476 41.72C70.1356 42.464 69.7756 43.352 69.7756 43.352H69.7276C69.7276 43.352 69.3916 42.44 69.0556 41.72L65.9596 34.856H63.3676L62.3116 47ZM79.0269 47.12C82.6029 46.928 83.9949 44.096 83.9949 38.6V36.776H87.5709V47H89.8989V34.856H81.7629V38.6C81.7629 42.992 80.8029 44.768 79.0269 45.032V47.12ZM92.7033 40.928C92.7033 44.528 95.3433 47.288 99.1593 47.288C100.839 47.288 102.687 46.64 103.863 45.56L102.879 43.856C101.919 44.72 100.599 45.272 99.3033 45.272C97.1193 45.272 95.2473 43.856 95.1273 41.24H103.959C104.007 40.904 104.055 40.568 104.055 40.256C104.055 37.136 102.231 34.568 98.7993 34.568C95.3433 34.568 92.7033 37.064 92.7033 40.928ZM95.1993 39.56C95.5353 37.544 96.9513 36.368 98.7513 36.368C100.335 36.368 101.631 37.472 101.703 39.56H95.1993ZM106.855 47H109.183V41.792H115.327V47H117.655V34.856H115.327V39.8H109.183V34.856H106.855V47ZM121.245 47H123.477L128.733 39.752C129.117 39.176 129.717 38.36 129.789 38.144H129.837C129.837 38.336 129.765 39.176 129.765 39.752V47H132.021V34.856H129.765L124.533 42.104C124.125 42.68 123.549 43.52 123.453 43.736H123.405C123.429 43.616 123.477 42.752 123.477 42.104V34.856H121.245V47ZM134.797 40.928C134.797 44.528 137.437 47.288 141.253 47.288C142.933 47.288 144.781 46.64 145.957 45.56L144.973 43.856C144.013 44.72 142.693 45.272 141.397 45.272C139.213 45.272 137.341 43.856 137.221 41.24H146.053C146.101 40.904 146.149 40.568 146.149 40.256C146.149 37.136 144.325 34.568 140.893 34.568C137.437 34.568 134.797 37.064 134.797 40.928ZM137.293 39.56C137.629 37.544 139.045 36.368 140.845 36.368C142.429 36.368 143.725 37.472 143.797 39.56H137.293ZM0.8 76H3.128V65.848H9.08V76H11.408V63.856H0.8V76ZM14.2111 69.904C14.2111 73.6 17.1391 76.288 20.7631 76.288C24.3631 76.288 27.2911 73.6 27.2911 69.904C27.2911 66.232 24.3631 63.568 20.7391 63.568C17.1391 63.568 14.2111 66.232 14.2111 69.904ZM16.5871 69.904C16.5871 67.384 18.4591 65.584 20.7631 65.584C23.0431 65.584 24.9391 67.384 24.9391 69.904C24.9391 72.448 23.0431 74.272 20.7631 74.272C18.4591 74.272 16.5871 72.448 16.5871 69.904ZM28.4488 76.12C32.0248 75.928 33.4168 73.096 33.4168 67.6V65.776H36.9928V76H39.3208V63.856H31.1848V67.6C31.1848 71.992 30.2248 73.768 28.4488 74.032V76.12ZM42.9172 76H45.1492L50.4052 68.752C50.7892 68.176 51.3892 67.36 51.4612 67.144H51.5092C51.5092 67.336 51.4372 68.176 51.4372 68.752V76H53.6932V63.856H51.4372L46.2052 71.104C45.7972 71.68 45.2212 72.52 45.1252 72.736H45.0772C45.1012 72.616 45.1492 71.752 45.1492 71.104V63.856H42.9172V76ZM56.4689 69.928C56.4689 73.576 59.1329 76.288 62.9729 76.288C64.8689 76.288 66.7169 75.52 67.8209 74.344L66.8849 72.64C65.9489 73.624 64.4849 74.272 63.1409 74.272C60.6209 74.272 58.8449 72.376 58.8449 69.904C58.8449 67.432 60.6209 65.584 63.0689 65.584C64.3409 65.584 65.6129 66.16 66.4289 66.976L67.5329 65.344C66.3809 64.12 64.5809 63.568 62.9729 63.568C59.1569 63.568 56.4689 66.328 56.4689 69.928ZM69.3311 72.688C69.3311 74.968 71.2751 76.288 73.3871 76.288C75.1871 76.288 76.6751 75.208 77.3711 73.816H77.4191C77.4191 73.816 77.3471 74.224 77.3471 74.776V76H79.5311V68.32C79.5311 65.248 77.7791 63.568 74.7311 63.568C73.0271 63.568 71.1791 64.192 70.1951 65.008L71.1311 66.712C72.1151 66.016 73.3391 65.536 74.5391 65.536C76.0511 65.536 77.2031 66.208 77.2031 68.2V68.44H76.5791C74.0591 68.44 69.3311 68.872 69.3311 72.688ZM71.6591 72.496C71.6591 70.264 74.8751 70.12 76.6031 70.12H77.2031V70.576C77.2031 72.376 75.9791 74.44 73.9391 74.44C72.4271 74.44 71.6591 73.456 71.6591 72.496Z" fill="white"/>
</svg>
