<svg width="256" height="69" viewBox="0 0 256 69" fill="none" xmlns="http://www.w3.org/2000/svg">
<path d="M80.6227 26H85.2726L87.3861 19.5889H96.1573L98.3061 26H102.956L94.1847 0.989673H89.394L80.6227 26ZM88.5133 15.8902L90.7678 9.19729C91.1905 7.78826 91.7541 5.32245 91.7541 5.32245H91.8246C91.8246 5.32245 92.3882 7.78826 92.8109 9.19729L95.0301 15.8902H88.5133ZM106.281 26H115.334C119.949 26 123.964 23.7455 123.964 18.7435C123.964 16.2072 122.661 13.671 119.913 12.8608V12.7903C121.815 11.7688 122.943 9.7609 122.943 7.436C122.943 3.31458 119.737 0.989673 115.193 0.989673H106.281V26ZM110.825 11.2052V4.89974H115.158C117.236 4.89974 118.328 6.20309 118.328 7.99961C118.328 9.79613 117.201 11.2052 115.228 11.2052H110.825ZM110.825 22.0899V14.8686H115.686C117.976 14.8686 119.314 16.3834 119.314 18.4617C119.314 20.5752 118.011 22.0899 115.686 22.0899H110.825ZM133.59 26H138.099V4.89974H146.307V0.989673H125.382V4.89974H133.59V26ZM147.492 13.3187C147.492 20.6809 153.058 26.4227 160.42 26.4227C167.782 26.4227 173.348 20.6809 173.348 13.3187C173.348 6.16787 167.782 0.566962 160.42 0.566962C153.058 0.566962 147.492 6.16787 147.492 13.3187ZM152.177 13.3187C152.177 8.45755 155.841 4.72361 160.42 4.72361C164.999 4.72361 168.663 8.45755 168.663 13.3187C168.663 18.3912 164.999 22.2661 160.42 22.2661C155.841 22.2661 152.177 18.3912 152.177 13.3187ZM0.00201642 55.3892C0.00201642 62.7514 5.07453 68.4227 12.9299 68.4227C17.4036 68.4227 20.6091 66.5557 22.7579 64.3717L20.3625 61.0957C18.4603 62.9627 15.7832 64.2661 13.106 64.2661C7.68124 64.2661 4.68705 60.0037 4.68705 55.3187C4.68705 50.7041 7.57557 46.7236 13.0708 46.7236C15.5014 46.7236 18.1433 47.8508 19.9046 49.3655L22.0886 45.9839C19.658 43.6237 16.1354 42.567 12.8594 42.567C5.32111 42.567 0.00201642 48.1326 0.00201642 55.3892ZM32.333 68H36.8419V46.8997H45.0495V42.9897H24.1254V46.8997H32.333V68ZM48.609 68H53.1531V59.3697H58.2608C62.9459 59.3697 66.2219 55.988 66.2219 51.1268C66.2219 46.2657 62.9459 42.9897 58.2608 42.9897H48.609V68ZM53.1531 55.4244V46.8997H57.4859C60.0573 46.8997 61.6073 48.5554 61.6073 51.1268C61.6073 53.7335 60.0573 55.4244 57.4154 55.4244H53.1531ZM66.1575 68H70.8073L72.9208 61.5889H81.692L83.8408 68H88.4906L79.7194 42.9897H74.9287L66.1575 68ZM74.048 57.8902L76.3025 51.1973C76.7252 49.7883 77.2888 47.3224 77.2888 47.3224H77.3593C77.3593 47.3224 77.9229 49.7883 78.3456 51.1973L80.5648 57.8902H74.048ZM89.2441 68H94.2814L98.1563 61.2719C98.9665 59.8276 99.671 58.3129 99.671 58.3129H99.7414C99.7414 58.3129 100.481 59.8276 101.291 61.2719L105.201 68H110.274L102.489 55.3187L109.992 42.9897H104.814L101.327 49.119C100.481 50.5984 99.7766 52.1484 99.7766 52.1484H99.7062C99.7062 52.1484 98.9312 50.5632 98.1563 49.119L94.7041 42.9897H89.5259L96.9938 55.3187L89.2441 68ZM111.355 55.3187C111.355 62.6809 116.92 68.4227 124.283 68.4227C131.645 68.4227 137.21 62.6809 137.21 55.3187C137.21 48.1679 131.645 42.567 124.283 42.567C116.92 42.567 111.355 48.1679 111.355 55.3187ZM116.04 55.3187C116.04 50.4575 119.703 46.7236 124.283 46.7236C128.862 46.7236 132.525 50.4575 132.525 55.3187C132.525 60.3912 128.862 64.2661 124.283 64.2661C119.703 64.2661 116.04 60.3912 116.04 55.3187ZM141.799 68H150.852C155.467 68 159.482 65.7455 159.482 60.7435C159.482 58.2072 158.179 55.671 155.432 54.8608V54.7903C157.334 53.7688 158.461 51.7609 158.461 49.436C158.461 45.3146 155.255 42.9897 150.711 42.9897H141.799V68ZM146.343 53.2052V46.8997H150.676C152.754 46.8997 153.846 48.2031 153.846 49.9996C153.846 51.7961 152.719 53.2052 150.746 53.2052H146.343ZM146.343 64.0899V56.8686H151.204C153.494 56.8686 154.833 58.3834 154.833 60.4617C154.833 62.5752 153.529 64.0899 151.204 64.0899H146.343ZM161.068 68H165.717L167.831 61.5889H176.602L178.751 68H183.401L174.63 42.9897H169.839L161.068 68ZM168.958 57.8902L171.213 51.1973C171.635 49.7883 172.199 47.3224 172.199 47.3224H172.269C172.269 47.3224 172.833 49.7883 173.256 51.1973L175.475 57.8902H168.958ZM186.726 68H191.27V57.5027H202.718V68H207.227V42.9897H202.718V53.5926H191.27V42.9897H186.726V68ZM213.283 68H217.792L227.303 53.5926C228.218 52.1132 229.381 49.7178 229.381 49.7178H229.451C229.451 49.7178 229.205 52.1132 229.205 53.5926V68H233.714V42.9897H229.205L219.764 57.397C218.848 58.8765 217.651 61.3071 217.651 61.3071H217.58C217.58 61.3071 217.827 58.9117 217.827 57.4323V42.9897H213.283V68ZM239.805 68H255.34V64.0899H244.349V57.3618H252.768V53.4517H244.349V46.8997H254.776V42.9897H239.805V68Z" fill="url(#paint0_linear_71_185)"/>
<defs>
<linearGradient id="paint0_linear_71_185" x1="-1.87597" y1="5.69767" x2="262.095" y2="72.3815" gradientUnits="userSpaceOnUse">
<stop stop-color="white"/>
<stop offset="1" stop-color="white"/>
</linearGradient>
</defs>
</svg>
