<?xml version="1.0" encoding="utf-8"?>
<!-- Generator: Adobe Illustrator 25.2.3, SVG Export Plug-In . SVG Version: 6.00 Build 0)  -->
<svg version="1.1" id="Layer_1" xmlns="http://www.w3.org/2000/svg" xmlns:xlink="http://www.w3.org/1999/xlink" x="0px" y="0px"
	 viewBox="0 0 158 42" style="enable-background:new 0 0 158 42;" xml:space="preserve">
<style type="text/css">
	.st0{fill:url(#SVGID_1_);}
</style>
<linearGradient id="SVGID_1_" gradientUnits="userSpaceOnUse" x1="-3.307" y1="39.3151" x2="166.67" y2="5.4348" gradientTransform="matrix(1 0 0 -1 0 44)">
	<stop  offset="0" style="stop-color:#FFFFFF"/>
	<stop  offset="1" style="stop-color:#FFFFFF"/>
</linearGradient>
<path class="st0" d="M0.5,20.8c0,11.7,8.8,20.8,20.6,20.8s20.6-9.1,20.6-20.8C41.6,9.5,32.7,0.6,21,0.6S0.5,9.5,0.5,20.8z M7.9,20.8
	c0-7.7,5.8-13.7,13.1-13.7s13.1,5.9,13.1,13.7c0,8.1-5.8,14.2-13.1,14.2S7.9,28.9,7.9,20.8z M48.9,41h7.2V7.5h15.6V1.2H48.9V41z
	 M77.2,41h7.2V7.5h17.8V41h7.2V1.2H77.2V41z M116.7,20.8c0,11.7,8.8,20.8,20.6,20.8s20.6-9.1,20.6-20.8c0-11.4-8.8-20.3-20.6-20.3
	S116.7,9.5,116.7,20.8z M124.1,20.8c0-7.7,5.8-13.7,13.1-13.7s13.1,5.9,13.1,13.7c0,8.1-5.8,14.2-13.1,14.2S124.1,28.9,124.1,20.8z"
	/>
</svg>
