<?xml version="1.0" encoding="utf-8"?>
<!-- Generator: Adobe Illustrator 25.2.3, SVG Export Plug-In . SVG Version: 6.00 Build 0)  -->
<svg version="1.1" id="Layer_1" xmlns="http://www.w3.org/2000/svg" xmlns:xlink="http://www.w3.org/1999/xlink" x="0px" y="0px"
	 viewBox="0 0 154 33" style="enable-background:new 0 0 154 33;" xml:space="preserve">
<style type="text/css">
	.st0{fill:#FFFFFF;}
</style>
<path class="st0" d="M0.6,19.1c0,7.5,5.7,13.3,13.1,13.3c7.3,0,13-5.8,13-13.3c0-7.3-5.7-13-13-13C6.3,6.2,0.6,11.8,0.6,19.1z
	 M4.2,19.1c0-5.5,4.2-9.7,9.4-9.7c5.2,0,9.4,4.2,9.4,9.7c0,5.7-4.2,10-9.4,10C8.4,29.2,4.2,24.8,4.2,19.1z M31.8,32h3.6V20.8h13.2
	V32h3.5V6.6h-3.5v11.2H35.3V6.6h-3.6V32z M55.9,29v3.3c7-0.4,9.2-7.5,9.2-19.7v-3h7.9V32h3.6V6.6H61.7v6
	C61.7,22.9,60.1,28.4,55.9,29z M80.4,32H84l2.6-7.3h9.6l2.6,7.3h3.7L93.3,6.6h-3.8L80.4,32z M87.5,21.7l2.8-8c0.4-1.3,1-3.6,1-3.6
	h0.1c0,0,0.6,2.3,1,3.6l2.8,8H87.5z M116.5,5.4c2.8,0,5.3-1.7,5.3-4.6V0.2h-2.8v0.5c0,1.6-1.3,2.4-2.6,2.4S114,2.3,114,0.8V0.2h-2.8
	v0.5C111.2,3.7,113.8,5.4,116.5,5.4z M106.2,32h3.5l11.3-16.5c0.9-1.4,2.1-3.7,2.1-3.7h0.1c0,0-0.2,2.3-0.2,3.7V32h3.5V6.6h-3.5
	L111.8,23c-0.9,1.4-2.2,3.7-2.2,3.7h-0.1c0,0,0.2-2.3,0.2-3.7V6.6h-3.6V32z M133.3,32h3.6V20.8h13.2V32h3.5V6.6h-3.5v11.2h-13.2V6.6
	h-3.6V32z"/>
</svg>
