<svg width="186" height="53" viewBox="0 0 186 53" fill="none" xmlns="http://www.w3.org/2000/svg">
<path d="M0.176 9.408C0.176 14.4 3.992 18.288 8.888 18.288C13.784 18.288 17.576 14.4 17.576 9.408C17.576 4.536 13.784 0.767999 8.888 0.767999C3.992 0.767999 0.176 4.536 0.176 9.408ZM2.624 9.408C2.624 5.736 5.408 2.928 8.888 2.928C12.344 2.928 15.128 5.736 15.128 9.408C15.128 13.2 12.344 16.104 8.888 16.104C5.408 16.104 2.624 13.2 2.624 9.408ZM20.4172 18H22.7452V12.792H28.8892V18H31.2172V5.856H28.8892V10.8H22.7452V5.856H20.4172V18ZM33.4878 18.12C37.0638 17.928 38.4558 15.096 38.4558 9.6V7.776H42.0318V18H44.3598V5.856H36.2238V9.6C36.2238 13.992 35.2638 15.768 33.4878 16.032V18.12ZM46.9482 14.688C46.9482 16.968 48.8923 18.288 51.0043 18.288C52.8043 18.288 54.2923 17.208 54.9883 15.816H55.0363C55.0363 15.816 54.9643 16.224 54.9643 16.776V18H57.1483V10.32C57.1483 7.248 55.3963 5.568 52.3483 5.568C50.6443 5.568 48.7963 6.192 47.8123 7.008L48.7483 8.712C49.7323 8.016 50.9563 7.536 52.1562 7.536C53.6683 7.536 54.8203 8.208 54.8203 10.2V10.44H54.1963C51.6763 10.44 46.9482 10.872 46.9482 14.688ZM49.2763 14.496C49.2763 12.264 52.4922 12.12 54.2203 12.12H54.8203V12.576C54.8203 14.376 53.5963 16.44 51.5563 16.44C50.0443 16.44 49.2763 15.456 49.2763 14.496ZM65.9411 4.464C67.8131 4.464 69.4931 3.36 69.4931 1.392V1.032H67.6451V1.344C67.6451 2.424 66.7811 2.952 65.9411 2.952C65.1011 2.952 64.2611 2.424 64.2611 1.368V1.032H62.3891V1.392C62.3891 3.36 64.0931 4.464 65.9411 4.464ZM60.5891 18H62.8211L68.0771 10.752C68.4611 10.176 69.0611 9.36 69.1331 9.144H69.1811C69.1811 9.336 69.1091 10.176 69.1091 10.752V18H71.3651V5.856H69.1091L63.8771 13.104C63.4691 13.68 62.8931 14.52 62.7971 14.736H62.7491C62.7731 14.616 62.8211 13.752 62.8211 13.104V5.856H60.5891V18ZM74.9328 18H77.2608V12.792H83.4048V18H85.7328V5.856H83.4048V10.8H77.2608V5.856H74.9328V18ZM95.3234 18H100.507C103.147 18 104.971 16.8 104.971 14.544C104.971 13.2 104.179 12.024 102.667 11.664V11.64C103.771 11.16 104.395 10.152 104.395 8.976C104.395 6.936 102.787 5.856 100.339 5.856H95.3234V18ZM97.6514 10.992V7.464H99.8594C101.323 7.464 102.019 8.04 102.019 9.144C102.019 10.272 101.323 10.992 99.9314 10.992H97.6514ZM97.6514 16.368V12.552H100.123C101.731 12.552 102.619 13.272 102.619 14.472C102.619 15.6 101.827 16.368 100.147 16.368H97.6514ZM118.784 18H121.112V5.856H118.784V18ZM107.792 18H112.472C115.52 18 116.912 16.44 116.912 14.16C116.912 11.4 115.016 10.248 112.496 10.248H110.12V5.856H107.792V18ZM110.12 16.32V11.928H112.136C113.816 11.928 114.56 12.84 114.56 14.136C114.56 15.408 113.84 16.32 112.16 16.32H110.12ZM124.714 18H127.042V7.848H132.994V18H135.322V5.856H124.714V18ZM137.597 18.12C141.173 17.928 142.565 15.096 142.565 9.6V7.776H146.141V18H148.469V5.856H140.333V9.6C140.333 13.992 139.373 15.768 137.597 16.032V18.12ZM151.058 14.688C151.058 16.968 153.002 18.288 155.114 18.288C156.914 18.288 158.402 17.208 159.098 15.816H159.146C159.146 15.816 159.074 16.224 159.074 16.776V18H161.258V10.32C161.258 7.248 159.506 5.568 156.458 5.568C154.754 5.568 152.906 6.192 151.922 7.008L152.858 8.712C153.842 8.016 155.066 7.536 156.266 7.536C157.778 7.536 158.93 8.208 158.93 10.2V10.44H158.306C155.786 10.44 151.058 10.872 151.058 14.688ZM153.386 14.496C153.386 12.264 156.602 12.12 158.33 12.12H158.93V12.576C158.93 14.376 157.706 16.44 155.666 16.44C154.154 16.44 153.386 15.456 153.386 14.496ZM167.462 18H169.766V7.848H174.014V5.856H163.238V7.848H167.462V18ZM175.175 14.688C175.175 16.968 177.119 18.288 179.231 18.288C181.031 18.288 182.519 17.208 183.215 15.816H183.263C183.263 15.816 183.191 16.224 183.191 16.776V18H185.375V10.32C185.375 7.248 183.623 5.568 180.575 5.568C178.871 5.568 177.023 6.192 176.039 7.008L176.975 8.712C177.959 8.016 179.183 7.536 180.383 7.536C181.895 7.536 183.047 8.208 183.047 10.2V10.44H182.423C179.903 10.44 175.175 10.872 175.175 14.688ZM177.503 14.496C177.503 12.264 180.719 12.12 182.447 12.12H183.047V12.576C183.047 14.376 181.823 16.44 179.783 16.44C178.271 16.44 177.503 15.456 177.503 14.496ZM0.8 47H3.128V41.792H9.272V47H11.6V34.856H9.272V39.8H3.128V34.856H0.8V47ZM14.1826 43.688C14.1826 45.968 16.1266 47.288 18.2386 47.288C20.0386 47.288 21.5266 46.208 22.2226 44.816H22.2706C22.2706 44.816 22.1986 45.224 22.1986 45.776V47H24.3826V39.32C24.3826 36.248 22.6306 34.568 19.5826 34.568C17.8786 34.568 16.0306 35.192 15.0466 36.008L15.9826 37.712C16.9666 37.016 18.1906 36.536 19.3906 36.536C20.9026 36.536 22.0546 37.208 22.0546 39.2V39.44H21.4306C18.9106 39.44 14.1826 39.872 14.1826 43.688ZM16.5106 43.496C16.5106 41.264 19.7266 41.12 21.4546 41.12H22.0546V41.576C22.0546 43.376 20.8306 45.44 18.7906 45.44C17.2786 45.44 16.5106 44.456 16.5106 43.496ZM33.8234 47H36.1514V41.744H37.9034L41.5274 47H44.2874L39.7514 40.688V40.64L43.8074 34.856H41.1674L37.8554 39.752H36.1514V34.856H33.8234V47ZM45.2373 43.688C45.2373 45.968 47.1813 47.288 49.2933 47.288C51.0933 47.288 52.5813 46.208 53.2773 44.816H53.3253C53.3253 44.816 53.2533 45.224 53.2533 45.776V47H55.4373V39.32C55.4373 36.248 53.6853 34.568 50.6373 34.568C48.9333 34.568 47.0853 35.192 46.1013 36.008L47.0373 37.712C48.0213 37.016 49.2453 36.536 50.4453 36.536C51.9573 36.536 53.1093 37.208 53.1093 39.2V39.44H52.4853C49.9653 39.44 45.2373 39.872 45.2373 43.688ZM47.5653 43.496C47.5653 41.264 50.7813 41.12 52.5093 41.12H53.1093V41.576C53.1093 43.376 51.8853 45.44 49.8453 45.44C48.3333 45.44 47.5653 44.456 47.5653 43.496ZM58.8781 51.8H61.2061V46.28C61.2061 45.656 61.1101 45.224 61.1101 45.224H61.1581C61.9981 46.52 63.3901 47.288 64.9261 47.288C68.1181 47.288 70.4221 44.792 70.4221 40.928C70.4221 37.16 68.3821 34.568 65.0941 34.568C63.3181 34.568 61.7821 35.384 61.0141 36.848H60.9661C60.9661 36.848 61.0381 36.44 61.0381 35.936V34.856H58.8781V51.8ZM61.1341 40.976C61.1341 37.904 62.8141 36.608 64.6381 36.608C66.6541 36.608 68.0701 38.312 68.0701 40.952C68.0701 43.712 66.4861 45.272 64.5661 45.272C62.3341 45.272 61.1341 43.136 61.1341 40.976ZM75.9858 47H78.2898V36.848H82.5378V34.856H71.7618V36.848H75.9858V47ZM84.2234 49.52L83.4074 51.296C83.4074 51.296 84.3914 52.04 85.7354 52.04C87.4394 52.04 88.9514 51.08 89.6714 49.184L95.3834 34.856H92.8634L89.9114 42.824C89.6954 43.448 89.5034 44.264 89.5034 44.264H89.4554C89.4554 44.264 89.2394 43.4 88.9994 42.8L85.9514 34.856H83.3354L88.4234 46.856L87.8234 48.248C87.3674 49.352 86.5754 50.048 85.6154 50.048C84.8954 50.048 84.2234 49.52 84.2234 49.52Z" fill="white"/>
</svg>
