<svg width="229" height="19" viewBox="0 0 229 19" fill="none" xmlns="http://www.w3.org/2000/svg">
<path d="M0.731781 9.36C0.731781 14.376 4.52378 18.288 9.53978 18.288C14.5558 18.288 18.3478 14.376 18.3478 9.36C18.3478 4.488 14.5558 0.671999 9.53978 0.671999C4.52378 0.671999 0.731781 4.488 0.731781 9.36ZM3.92378 9.36C3.92378 6.048 6.41978 3.504 9.53978 3.504C12.6598 3.504 15.1558 6.048 15.1558 9.36C15.1558 12.816 12.6598 15.456 9.53978 15.456C6.41978 15.456 3.92378 12.816 3.92378 9.36ZM20.8781 18H23.9261V13.056H29.1581V18H32.2061V5.76H29.1581V10.488H23.9261V5.76H20.8781V18ZM34.3277 18.12C38.3837 18 39.7997 14.928 39.7997 9.6V8.232H42.7757V18H45.8237V5.76H36.8957V9.6C36.8957 13.944 35.8397 15.216 34.3277 15.432V18.12ZM48.1608 14.616C48.1608 16.848 49.9848 18.288 52.1928 18.288C53.8488 18.288 55.3128 17.376 56.0568 16.08H56.1048C56.1048 16.08 56.0328 16.464 56.0328 16.968V18H58.8648V10.344C58.8648 7.248 56.9688 5.472 53.7768 5.472C51.9528 5.472 49.9848 6.168 48.9768 6.984L50.1048 9.168C51.0888 8.496 52.3128 7.992 53.5128 7.992C54.7848 7.992 55.8168 8.544 55.8168 10.152V10.32H55.2888C52.5768 10.32 48.1608 10.944 48.1608 14.616ZM51.1848 14.352C51.1848 12.624 53.7768 12.408 55.3128 12.408H55.8408V12.744C55.8408 14.232 54.7368 15.96 53.0328 15.96C51.8088 15.96 51.1848 15.168 51.1848 14.352ZM67.604 4.584C69.692 4.584 71.54 3.384 71.54 1.272V0.959999H69.236V1.248C69.236 2.304 68.396 2.784 67.604 2.784C66.812 2.784 65.996 2.304 65.996 1.272V0.959999H63.668V1.272C63.668 3.384 65.516 4.584 67.604 4.584ZM61.964 18H64.916L69.452 11.472C69.764 10.992 70.22 10.344 70.364 10.008H70.412C70.388 10.32 70.34 11.016 70.34 11.472V18H73.244V5.76H70.292L65.756 12.312C65.444 12.792 64.988 13.464 64.844 13.776H64.796C64.82 13.584 64.868 12.864 64.868 12.312V5.76H61.964V18ZM76.5187 18H79.5667V13.056H84.7987V18H87.8467V5.76H84.7987V10.488H79.5667V5.76H76.5187V18ZM97.1203 18H102.928C105.496 18 107.488 16.896 107.488 14.448C107.488 13.224 106.792 12.024 105.328 11.64V11.616C106.36 11.112 106.936 10.056 106.936 8.928C106.936 6.864 105.28 5.76 102.808 5.76H97.1203V18ZM100.168 10.8V7.752H102.112C103.312 7.752 103.864 8.304 103.864 9.192C103.864 10.128 103.312 10.8 102.16 10.8H100.168ZM100.168 15.984V12.696H102.4C103.72 12.696 104.416 13.368 104.416 14.352C104.416 15.288 103.768 15.984 102.4 15.984H100.168ZM121.554 18H124.602V5.76H121.554V18ZM110.034 18H115.242C118.458 18 119.874 16.392 119.874 14.016C119.874 11.352 118.146 9.96 115.266 9.96H113.082V5.76H110.034V18ZM113.082 15.912V12.024H114.714C116.154 12.024 116.802 12.864 116.802 13.992C116.802 15.096 116.154 15.912 114.762 15.912H113.082ZM127.87 18H130.918V8.352H135.982V18H139.03V5.76H127.87V18ZM141.132 18.12C145.188 18 146.604 14.928 146.604 9.6V8.232H149.58V18H152.628V5.76H143.7V9.6C143.7 13.944 142.644 15.216 141.132 15.432V18.12ZM154.966 14.616C154.966 16.848 156.79 18.288 158.998 18.288C160.654 18.288 162.118 17.376 162.862 16.08H162.91C162.91 16.08 162.838 16.464 162.838 16.968V18H165.67V10.344C165.67 7.248 163.774 5.472 160.582 5.472C158.758 5.472 156.79 6.168 155.782 6.984L156.91 9.168C157.894 8.496 159.118 7.992 160.318 7.992C161.59 7.992 162.622 8.544 162.622 10.152V10.32H162.094C159.382 10.32 154.966 10.944 154.966 14.616ZM157.99 14.352C157.99 12.624 160.582 12.408 162.118 12.408H162.646V12.744C162.646 14.232 161.542 15.96 159.838 15.96C158.614 15.96 157.99 15.168 157.99 14.352ZM171.508 18H174.532V8.352H178.588V5.76H167.476V8.352H171.508V18ZM192.172 18H195.22V5.76H192.172V18ZM180.652 18H185.86C189.076 18 190.492 16.392 190.492 14.016C190.492 11.352 188.764 9.96 185.884 9.96H183.7V5.76H180.652V18ZM183.7 15.912V12.024H185.332C186.772 12.024 187.42 12.864 187.42 13.992C187.42 15.096 186.772 15.912 185.38 15.912H183.7ZM204.487 18H207.535V13.056H212.767V18H215.815V5.76H212.767V10.488H207.535V5.76H204.487V18ZM218.153 14.616C218.153 16.848 219.977 18.288 222.185 18.288C223.841 18.288 225.305 17.376 226.049 16.08H226.097C226.097 16.08 226.025 16.464 226.025 16.968V18H228.857V10.344C228.857 7.248 226.961 5.472 223.769 5.472C221.945 5.472 219.977 6.168 218.969 6.984L220.097 9.168C221.081 8.496 222.305 7.992 223.505 7.992C224.777 7.992 225.809 8.544 225.809 10.152V10.32H225.281C222.569 10.32 218.153 10.944 218.153 14.616ZM221.177 14.352C221.177 12.624 223.769 12.408 225.305 12.408H225.833V12.744C225.833 14.232 224.729 15.96 223.025 15.96C221.801 15.96 221.177 15.168 221.177 14.352Z" fill="white"/>
</svg>
