<svg width="198" height="81" viewBox="0 0 198 81" fill="none" xmlns="http://www.w3.org/2000/svg">
<path d="M0.176 9.408C0.176 14.4 3.992 18.288 8.888 18.288C13.784 18.288 17.576 14.4 17.576 9.408C17.576 4.536 13.784 0.767999 8.888 0.767999C3.992 0.767999 0.176 4.536 0.176 9.408ZM2.624 9.408C2.624 5.736 5.408 2.928 8.888 2.928C12.344 2.928 15.128 5.736 15.128 9.408C15.128 13.2 12.344 16.104 8.888 16.104C5.408 16.104 2.624 13.2 2.624 9.408ZM20.4172 18H22.7452V12.792H28.8892V18H31.2172V5.856H28.8892V10.8H22.7452V5.856H20.4172V18ZM33.4878 18.12C37.0638 17.928 38.4558 15.096 38.4558 9.6V7.776H42.0318V18H44.3598V5.856H36.2238V9.6C36.2238 13.992 35.2638 15.768 33.4878 16.032V18.12ZM46.9482 14.688C46.9482 16.968 48.8923 18.288 51.0043 18.288C52.8043 18.288 54.2923 17.208 54.9883 15.816H55.0363C55.0363 15.816 54.9643 16.224 54.9643 16.776V18H57.1483V10.32C57.1483 7.248 55.3963 5.568 52.3483 5.568C50.6443 5.568 48.7963 6.192 47.8123 7.008L48.7483 8.712C49.7323 8.016 50.9563 7.536 52.1562 7.536C53.6683 7.536 54.8203 8.208 54.8203 10.2V10.44H54.1963C51.6763 10.44 46.9482 10.872 46.9482 14.688ZM49.2763 14.496C49.2763 12.264 52.4922 12.12 54.2203 12.12H54.8203V12.576C54.8203 14.376 53.5963 16.44 51.5563 16.44C50.0443 16.44 49.2763 15.456 49.2763 14.496ZM65.9411 4.464C67.8131 4.464 69.4931 3.36 69.4931 1.392V1.032H67.6451V1.344C67.6451 2.424 66.7811 2.952 65.9411 2.952C65.1011 2.952 64.2611 2.424 64.2611 1.368V1.032H62.3891V1.392C62.3891 3.36 64.0931 4.464 65.9411 4.464ZM60.5891 18H62.8211L68.0771 10.752C68.4611 10.176 69.0611 9.36 69.1331 9.144H69.1811C69.1811 9.336 69.1091 10.176 69.1091 10.752V18H71.3651V5.856H69.1091L63.8771 13.104C63.4691 13.68 62.8931 14.52 62.7971 14.736H62.7491C62.7731 14.616 62.8211 13.752 62.8211 13.104V5.856H60.5891V18ZM74.9328 18H77.2608V12.792H83.4048V18H85.7328V5.856H83.4048V10.8H77.2608V5.856H74.9328V18ZM0.8 51.8H3.128V46.28C3.128 45.656 3.032 45.224 3.032 45.224H3.08C3.92 46.52 5.312 47.288 6.848 47.288C10.04 47.288 12.344 44.792 12.344 40.928C12.344 37.16 10.304 34.568 7.016 34.568C5.24 34.568 3.704 35.384 2.936 36.848H2.888C2.888 36.848 2.96 36.44 2.96 35.936V34.856H0.8V51.8ZM3.056 40.976C3.056 37.904 4.736 36.608 6.56 36.608C8.576 36.608 9.992 38.312 9.992 40.952C9.992 43.712 8.408 45.272 6.488 45.272C4.256 45.272 3.056 43.136 3.056 40.976ZM14.4221 40.928C14.4221 44.528 17.0621 47.288 20.8781 47.288C22.5581 47.288 24.4061 46.64 25.5821 45.56L24.5981 43.856C23.6381 44.72 22.3181 45.272 21.0221 45.272C18.8381 45.272 16.9661 43.856 16.8461 41.24H25.6781C25.7261 40.904 25.7741 40.568 25.7741 40.256C25.7741 37.136 23.9501 34.568 20.5181 34.568C17.0621 34.568 14.4221 37.064 14.4221 40.928ZM16.9181 39.56C17.2541 37.544 18.6701 36.368 20.4701 36.368C22.0541 36.368 23.3501 37.472 23.4221 39.56H16.9181ZM28.5734 47H30.9014V36.848H36.1814V34.856H28.5734V47ZM38.4875 47H40.7195L45.9755 39.752C46.3595 39.176 46.9595 38.36 47.0315 38.144H47.0795C47.0795 38.336 47.0075 39.176 47.0075 39.752V47H49.2635V34.856H47.0075L41.7755 42.104C41.3675 42.68 40.7915 43.52 40.6955 43.736H40.6475C40.6715 43.616 40.7195 42.752 40.7195 42.104V34.856H38.4875V47ZM52.0393 40.928C52.0393 44.576 54.7033 47.288 58.5433 47.288C60.4393 47.288 62.2873 46.52 63.3913 45.344L62.4553 43.64C61.5193 44.624 60.0553 45.272 58.7113 45.272C56.1913 45.272 54.4153 43.376 54.4153 40.904C54.4153 38.432 56.1913 36.584 58.6393 36.584C59.9113 36.584 61.1833 37.16 61.9993 37.976L63.1033 36.344C61.9513 35.12 60.1513 34.568 58.5433 34.568C54.7273 34.568 52.0393 37.328 52.0393 40.928ZM68.8374 47H71.1414V36.848H75.3894V34.856H64.6134V36.848H68.8374V47ZM77.675 51.8H80.003V46.28C80.003 45.656 79.907 45.224 79.907 45.224H79.955C80.795 46.52 82.187 47.288 83.723 47.288C86.915 47.288 89.219 44.792 89.219 40.928C89.219 37.16 87.179 34.568 83.891 34.568C82.115 34.568 80.579 35.384 79.811 36.848H79.763C79.763 36.848 79.835 36.44 79.835 35.936V34.856H77.675V51.8ZM79.931 40.976C79.931 37.904 81.611 36.608 83.435 36.608C85.451 36.608 86.867 38.312 86.867 40.952C86.867 43.712 85.283 45.272 83.363 45.272C81.131 45.272 79.931 43.136 79.931 40.976ZM91.0811 43.688C91.0811 45.968 93.0251 47.288 95.1371 47.288C96.9371 47.288 98.4251 46.208 99.1211 44.816H99.1691C99.1691 44.816 99.0971 45.224 99.0971 45.776V47H101.281V39.32C101.281 36.248 99.5291 34.568 96.4811 34.568C94.7771 34.568 92.9291 35.192 91.9451 36.008L92.8811 37.712C93.8651 37.016 95.0891 36.536 96.2891 36.536C97.8011 36.536 98.9531 37.208 98.9531 39.2V39.44H98.3291C95.8091 39.44 91.0811 39.872 91.0811 43.688ZM93.4091 43.496C93.4091 41.264 96.6251 41.12 98.3531 41.12H98.9531V41.576C98.9531 43.376 97.7291 45.44 95.6891 45.44C94.1771 45.44 93.4091 44.456 93.4091 43.496ZM104.722 47H114.754V49.88H116.89V44.984H115.186V34.856H112.834V44.984H107.05V34.856H104.722V47ZM119.37 47H121.602L126.858 39.752C127.242 39.176 127.842 38.36 127.914 38.144H127.962C127.962 38.336 127.89 39.176 127.89 39.752V47H130.146V34.856H127.89L122.658 42.104C122.25 42.68 121.674 43.52 121.578 43.736H121.53C121.554 43.616 121.602 42.752 121.602 42.104V34.856H119.37V47ZM132.49 47H135.058L138.034 42.608H140.074V47H142.402V34.856H137.554C134.986 34.856 133.21 36.176 133.21 38.672C133.21 40.52 134.458 41.816 135.85 42.2V42.224C135.85 42.224 135.562 42.536 135.298 42.968L132.49 47ZM138.058 40.904C136.642 40.904 135.562 40.16 135.562 38.648C135.562 37.088 136.57 36.464 138.13 36.464H140.074V40.904H138.058ZM154.539 44.936C156.531 41.888 156.939 37.4 156.939 33.68V32.12H162.243V44.936H154.539ZM150.339 44.936V50.36H152.547V47H164.355V50.36H166.491V44.936H164.619V30.056H154.707V33.536C154.707 37.232 154.395 41.624 152.043 44.936H150.339ZM173.403 47H175.755V32.12H181.587V30.056H167.571V32.12H173.403V47ZM184.209 47H186.585V32.12H195.177V47H197.553V30.056H184.209V47ZM0.8 76H3.128V65.848H9.08V76H11.408V63.856H0.8V76ZM14.2111 69.904C14.2111 73.6 17.1391 76.288 20.7631 76.288C24.3631 76.288 27.2911 73.6 27.2911 69.904C27.2911 66.232 24.3631 63.568 20.7391 63.568C17.1391 63.568 14.2111 66.232 14.2111 69.904ZM16.5871 69.904C16.5871 67.384 18.4591 65.584 20.7631 65.584C23.0431 65.584 24.9391 67.384 24.9391 69.904C24.9391 72.448 23.0431 74.272 20.7631 74.272C18.4591 74.272 16.5871 72.448 16.5871 69.904ZM35.3289 69.904C35.3289 73.648 38.1369 76.12 41.9049 76.288V80.8H44.1369V76.288C47.9049 76.12 50.6889 73.648 50.6889 69.904C50.6889 66.184 47.9049 63.736 44.1369 63.592V59.2H41.9049V63.592C38.1369 63.736 35.3289 66.184 35.3289 69.904ZM44.1369 74.344V65.512C46.6089 65.656 48.4089 67.264 48.4089 69.904C48.4089 72.52 46.6089 74.176 44.1369 74.344ZM37.6329 69.904C37.6329 67.264 39.4089 65.656 41.9049 65.512V74.344C39.4089 74.176 37.6329 72.52 37.6329 69.904ZM52.7189 69.904C52.7189 73.6 55.6469 76.288 59.2709 76.288C62.8709 76.288 65.7989 73.6 65.7989 69.904C65.7989 66.232 62.8709 63.568 59.2469 63.568C55.6469 63.568 52.7189 66.232 52.7189 69.904ZM55.0949 69.904C55.0949 67.384 56.9669 65.584 59.2709 65.584C61.5509 65.584 63.4469 67.384 63.4469 69.904C63.4469 72.448 61.5509 74.272 59.2709 74.272C56.9669 74.272 55.0949 72.448 55.0949 69.904ZM71.1343 76H73.4383V65.848H77.6863V63.856H66.9103V65.848H71.1343V76ZM78.7814 69.904C78.7814 73.6 81.7094 76.288 85.3334 76.288C88.9334 76.288 91.8614 73.6 91.8614 69.904C91.8614 66.232 88.9334 63.568 85.3094 63.568C81.7094 63.568 78.7814 66.232 78.7814 69.904ZM81.1574 69.904C81.1574 67.384 83.0294 65.584 85.3334 65.584C87.6134 65.584 89.5094 67.384 89.5094 69.904C89.5094 72.448 87.6134 74.272 85.3334 74.272C83.0294 74.272 81.1574 72.448 81.1574 69.904ZM94.6672 76H96.9952V65.848H102.275V63.856H94.6672V76ZM104.581 80.8H106.909V75.28C106.909 74.656 106.813 74.224 106.813 74.224H106.861C107.701 75.52 109.093 76.288 110.629 76.288C113.821 76.288 116.125 73.792 116.125 69.928C116.125 66.16 114.085 63.568 110.797 63.568C109.021 63.568 107.485 64.384 106.717 65.848H106.669C106.669 65.848 106.741 65.44 106.741 64.936V63.856H104.581V80.8ZM106.837 69.976C106.837 66.904 108.517 65.608 110.341 65.608C112.357 65.608 113.773 67.312 113.773 69.952C113.773 72.712 112.189 74.272 110.269 74.272C108.037 74.272 106.837 72.136 106.837 69.976ZM117.987 72.688C117.987 74.968 119.931 76.288 122.043 76.288C123.843 76.288 125.331 75.208 126.027 73.816H126.075C126.075 73.816 126.003 74.224 126.003 74.776V76H128.187V68.32C128.187 65.248 126.435 63.568 123.387 63.568C121.683 63.568 119.835 64.192 118.851 65.008L119.787 66.712C120.771 66.016 121.995 65.536 123.195 65.536C124.707 65.536 125.859 66.208 125.859 68.2V68.44H125.235C122.715 68.44 117.987 68.872 117.987 72.688ZM120.315 72.496C120.315 70.264 123.531 70.12 125.259 70.12H125.859V70.576C125.859 72.376 124.635 74.44 122.595 74.44C121.083 74.44 120.315 73.456 120.315 72.496ZM130.86 69.904C130.86 73.648 133.668 76.12 137.436 76.288V80.8H139.668V76.288C143.436 76.12 146.22 73.648 146.22 69.904C146.22 66.184 143.436 63.736 139.668 63.592V59.2H137.436V63.592C133.668 63.736 130.86 66.184 130.86 69.904ZM139.668 74.344V65.512C142.14 65.656 143.94 67.264 143.94 69.904C143.94 72.52 142.14 74.176 139.668 74.344ZM133.164 69.904C133.164 67.264 134.94 65.656 137.436 65.512V74.344C134.94 74.176 133.164 72.52 133.164 69.904ZM149.042 76H151.274L156.53 68.752C156.914 68.176 157.514 67.36 157.586 67.144H157.634C157.634 67.336 157.562 68.176 157.562 68.752V76H159.818V63.856H157.562L152.33 71.104C151.922 71.68 151.346 72.52 151.25 72.736H151.202C151.226 72.616 151.274 71.752 151.274 71.104V63.856H149.042V76ZM163.386 76H165.618L170.874 68.752C171.258 68.176 171.858 67.36 171.93 67.144H171.978C171.978 67.336 171.906 68.176 171.906 68.752V76H174.162V63.856H171.906L166.674 71.104C166.266 71.68 165.69 72.52 165.594 72.736H165.546C165.57 72.616 165.618 71.752 165.618 71.104V63.856H163.386V76Z" fill="white"/>
</svg>
