<svg width="217" height="44" viewBox="0 0 217 44" fill="none" xmlns="http://www.w3.org/2000/svg">
<path d="M32.7252 15H34.7052V2.6H41.8652V15H43.8452V0.879999H32.7252V15ZM47.0918 19H49.0318V14.4C49.0318 13.88 48.9518 13.52 48.9518 13.52H48.9918C49.6918 14.6 50.8518 15.24 52.1318 15.24C54.7918 15.24 56.7118 13.16 56.7118 9.94C56.7118 6.8 55.0118 4.64 52.2718 4.64C50.7918 4.64 49.5118 5.32 48.8718 6.54H48.8318C48.8318 6.54 48.8918 6.2 48.8918 5.78V4.88H47.0918V19ZM48.9718 9.98C48.9718 7.42 50.3718 6.34 51.8918 6.34C53.5718 6.34 54.7518 7.76 54.7518 9.96C54.7518 12.26 53.4318 13.56 51.8318 13.56C49.9718 13.56 48.9718 11.78 48.9718 9.98ZM58.4435 9.92C58.4435 13 60.8835 15.24 63.9035 15.24C66.9035 15.24 69.3435 13 69.3435 9.92C69.3435 6.86 66.9035 4.64 63.8835 4.64C60.8835 4.64 58.4435 6.86 58.4435 9.92ZM60.4235 9.92C60.4235 7.82 61.9835 6.32 63.9035 6.32C65.8035 6.32 67.3835 7.82 67.3835 9.92C67.3835 12.04 65.8035 13.56 63.9035 13.56C61.9835 13.56 60.4235 12.04 60.4235 9.92ZM71.0216 9.94C71.0216 12.98 73.2416 15.24 76.4416 15.24C78.0216 15.24 79.5616 14.6 80.4816 13.62L79.7016 12.2C78.9216 13.02 77.7016 13.56 76.5816 13.56C74.4816 13.56 73.0016 11.98 73.0016 9.92C73.0016 7.86 74.4816 6.32 76.5216 6.32C77.5816 6.32 78.6416 6.8 79.3216 7.48L80.2416 6.12C79.2816 5.1 77.7816 4.64 76.4416 4.64C73.2616 4.64 71.0216 6.94 71.0216 9.94ZM85.0201 15H86.9401V6.54H90.4801V4.88H81.5001V6.54H85.0201V15ZM91.3927 9.92C91.3927 13 93.8327 15.24 96.8527 15.24C99.8527 15.24 102.293 13 102.293 9.92C102.293 6.86 99.8527 4.64 96.8327 4.64C93.8327 4.64 91.3927 6.86 91.3927 9.92ZM93.3727 9.92C93.3727 7.82 94.9327 6.32 96.8527 6.32C98.7527 6.32 100.333 7.82 100.333 9.92C100.333 12.04 98.7527 13.56 96.8527 13.56C94.9327 13.56 93.3727 12.04 93.3727 9.92ZM109.091 3.72C110.651 3.72 112.051 2.8 112.051 1.16V0.86H110.511V1.12C110.511 2.02 109.791 2.46 109.091 2.46C108.391 2.46 107.691 2.02 107.691 1.14V0.86H106.131V1.16C106.131 2.8 107.551 3.72 109.091 3.72ZM104.631 15H106.491L110.871 8.96C111.191 8.48 111.691 7.8 111.751 7.62H111.791C111.791 7.78 111.731 8.48 111.731 8.96V15H113.611V4.88H111.731L107.371 10.92C107.031 11.4 106.551 12.1 106.471 12.28H106.431C106.451 12.18 106.491 11.46 106.491 10.92V4.88H104.631V15ZM120.924 9.94C120.924 12.98 123.144 15.24 126.344 15.24C127.924 15.24 129.464 14.6 130.384 13.62L129.604 12.2C128.824 13.02 127.604 13.56 126.484 13.56C124.384 13.56 122.904 11.98 122.904 9.92C122.904 7.86 124.384 6.32 126.424 6.32C127.484 6.32 128.544 6.8 129.224 7.48L130.144 6.12C129.184 5.1 127.684 4.64 126.344 4.64C123.164 4.64 120.924 6.94 120.924 9.94ZM131.588 9.94C131.588 12.94 133.788 15.24 136.968 15.24C138.368 15.24 139.908 14.7 140.888 13.8L140.068 12.38C139.268 13.1 138.168 13.56 137.088 13.56C135.268 13.56 133.708 12.38 133.608 10.2H140.968C141.008 9.92 141.048 9.64 141.048 9.38C141.048 6.78 139.528 4.64 136.668 4.64C133.788 4.64 131.588 6.72 131.588 9.94ZM133.668 8.8C133.948 7.12 135.128 6.14 136.628 6.14C137.948 6.14 139.028 7.06 139.088 8.8H133.668ZM143.381 19H145.321V14.4C145.321 13.88 145.241 13.52 145.241 13.52H145.281C145.981 14.6 147.141 15.24 148.421 15.24C151.081 15.24 153.001 13.16 153.001 9.94C153.001 6.8 151.301 4.64 148.561 4.64C147.081 4.64 145.801 5.32 145.161 6.54H145.121C145.121 6.54 145.181 6.2 145.181 5.78V4.88H143.381V19ZM145.261 9.98C145.261 7.42 146.661 6.34 148.181 6.34C149.861 6.34 151.041 7.76 151.041 9.96C151.041 12.26 149.721 13.56 148.121 13.56C146.261 13.56 145.261 11.78 145.261 9.98ZM155.393 15H159.713C161.913 15 163.433 14 163.433 12.12C163.433 11 162.773 10.02 161.513 9.72V9.7C162.433 9.3 162.953 8.46 162.953 7.48C162.953 5.78 161.613 4.88 159.573 4.88H155.393V15ZM157.333 9.16V6.22H159.173C160.393 6.22 160.973 6.7 160.973 7.62C160.973 8.56 160.393 9.16 159.233 9.16H157.333ZM157.333 13.64V10.46H159.393C160.733 10.46 161.473 11.06 161.473 12.06C161.473 13 160.813 13.64 159.413 13.64H157.333ZM165.783 15H167.643L172.023 8.96C172.343 8.48 172.843 7.8 172.903 7.62H172.943C172.943 7.78 172.883 8.48 172.883 8.96V15H174.763V4.88H172.883L168.523 10.92C168.183 11.4 167.703 12.1 167.623 12.28H167.583C167.603 12.18 167.643 11.46 167.643 10.92V4.88H165.783V15ZM177.076 9.94C177.076 12.98 179.296 15.24 182.496 15.24C184.076 15.24 185.616 14.6 186.536 13.62L185.756 12.2C184.976 13.02 183.756 13.56 182.636 13.56C180.536 13.56 179.056 11.98 179.056 9.92C179.056 7.86 180.536 6.32 182.576 6.32C183.636 6.32 184.696 6.8 185.376 7.48L186.296 6.12C185.336 5.1 183.836 4.64 182.496 4.64C179.316 4.64 177.076 6.94 177.076 9.94ZM3.4468 37.4C4.7268 35.4 4.8868 32.52 4.8868 31V30.46H7.9268V37.4H3.4468ZM0.206797 37.4V41.4H2.0268V39H9.5268V41.4H11.3068V37.4H9.8668V28.88H3.0268V30.74C3.0268 32.3 2.8668 35.46 1.4468 37.4H0.206797ZM12.2418 39.1C15.2218 38.94 16.3818 36.58 16.3818 32V30.48H19.3618V39H21.3018V28.88H14.5218V32C14.5218 35.66 13.7218 37.14 12.2418 37.36V39.1ZM23.2788 39H25.4188L27.8988 35.34H29.5988V39H31.5388V28.88H27.4988C25.3588 28.88 23.8788 29.98 23.8788 32.06C23.8788 33.6 24.9188 34.68 26.0788 35V35.02C26.0788 35.02 25.8388 35.28 25.6188 35.64L23.2788 39ZM27.9188 33.92C26.7388 33.92 25.8388 33.3 25.8388 32.04C25.8388 30.74 26.6788 30.22 27.9788 30.22H29.5988V33.92H27.9188ZM38.8732 33.94C38.8732 36.98 41.0932 39.24 44.2932 39.24C45.8732 39.24 47.4132 38.6 48.3332 37.62L47.5532 36.2C46.7732 37.02 45.5532 37.56 44.4332 37.56C42.3332 37.56 40.8532 35.98 40.8532 33.92C40.8532 31.86 42.3332 30.32 44.3732 30.32C45.4332 30.32 46.4932 30.8 47.1732 31.48L48.0932 30.12C47.1332 29.1 45.6332 28.64 44.2932 28.64C41.1132 28.64 38.8732 30.94 38.8732 33.94ZM49.3316 39.1C52.3116 38.94 53.4716 36.58 53.4716 32V30.48H56.4516V39H58.3916V28.88H51.6116V32C51.6116 35.66 50.8116 37.14 49.3316 37.36V39.1ZM60.7287 33.92C60.7287 37 63.1687 39.24 66.1887 39.24C69.1887 39.24 71.6287 37 71.6287 33.92C71.6287 30.86 69.1887 28.64 66.1687 28.64C63.1687 28.64 60.7287 30.86 60.7287 33.92ZM62.7087 33.92C62.7087 31.82 64.2687 30.32 66.1887 30.32C68.0887 30.32 69.6687 31.82 69.6687 33.92C69.6687 36.04 68.0887 37.56 66.1887 37.56C64.2687 37.56 62.7087 36.04 62.7087 33.92ZM72.4943 39H74.6543L77.3143 34.68H78.7543V39H80.5943V34.68H82.0543L84.6943 39H86.8743L83.6143 33.8V33.76L86.5743 28.88H84.5343L82.0343 33.02H80.5943V28.88H78.7543V33.02H77.3143L74.8343 28.88H72.7743L75.7543 33.76V33.8L72.4943 39ZM88.6934 39H90.6334V34.66H95.7534V39H97.6934V28.88H95.7534V33H90.6334V28.88H88.6934V39ZM109.846 39H111.786V28.88H109.846V39ZM100.686 39H104.586C107.126 39 108.286 37.7 108.286 35.8C108.286 33.5 106.706 32.54 104.606 32.54H102.626V28.88H100.686V39ZM102.626 37.6V33.94H104.306C105.706 33.94 106.326 34.7 106.326 35.78C106.326 36.84 105.726 37.6 104.326 37.6H102.626ZM113.627 39H115.827L117.947 35.62C118.107 35.38 118.247 35.08 118.247 35.08H118.287C118.287 35.08 118.447 35.38 118.607 35.62L120.727 39H122.927L119.467 33.8L122.727 28.88H120.507L118.627 31.96C118.487 32.22 118.287 32.56 118.287 32.56H118.247C118.247 32.56 118.067 32.22 117.927 31.96L116.047 28.88H113.827L117.087 33.8L113.627 39ZM129.108 33.94C129.108 36.98 131.328 39.24 134.528 39.24C136.108 39.24 137.648 38.6 138.568 37.62L137.788 36.2C137.008 37.02 135.788 37.56 134.668 37.56C132.568 37.56 131.088 35.98 131.088 33.92C131.088 31.86 132.568 30.32 134.608 30.32C135.668 30.32 136.728 30.8 137.408 31.48L138.328 30.12C137.368 29.1 135.868 28.64 134.528 28.64C131.348 28.64 129.108 30.94 129.108 33.94ZM140.666 39H142.526L146.906 32.96C147.226 32.48 147.726 31.8 147.786 31.62H147.826C147.826 31.78 147.766 32.48 147.766 32.96V39H149.646V28.88H147.766L143.406 34.92C143.066 35.4 142.586 36.1 142.506 36.28H142.466C142.486 36.18 142.526 35.46 142.526 34.92V28.88H140.666V39ZM155.059 39H156.979V30.54H160.519V28.88H151.539V30.54H155.059V39ZM161.924 41.1L161.244 42.58C161.244 42.58 162.064 43.2 163.184 43.2C164.604 43.2 165.864 42.4 166.464 40.82L171.224 28.88H169.124L166.664 35.52C166.484 36.04 166.324 36.72 166.324 36.72H166.284C166.284 36.72 166.104 36 165.904 35.5L163.364 28.88H161.184L165.424 38.88L164.924 40.04C164.544 40.96 163.884 41.54 163.084 41.54C162.484 41.54 161.924 41.1 161.924 41.1ZM172.053 36.24C172.053 38.14 173.673 39.24 175.433 39.24C176.933 39.24 178.173 38.34 178.753 37.18H178.793C178.793 37.18 178.733 37.52 178.733 37.98V39H180.553V32.6C180.553 30.04 179.093 28.64 176.553 28.64C175.133 28.64 173.593 29.16 172.773 29.84L173.553 31.26C174.373 30.68 175.393 30.28 176.393 30.28C177.653 30.28 178.613 30.84 178.613 32.5V32.7H178.093C175.993 32.7 172.053 33.06 172.053 36.24ZM173.993 36.08C173.993 34.22 176.673 34.1 178.113 34.1H178.613V34.48C178.613 35.98 177.593 37.7 175.893 37.7C174.633 37.7 173.993 36.88 173.993 36.08ZM183.42 39H191.78V41.4H193.56V37.32H192.14V28.88H190.18V37.32H185.36V28.88H183.42V39ZM195.627 39H197.487L201.867 32.96C202.187 32.48 202.687 31.8 202.747 31.62H202.787C202.787 31.78 202.727 32.48 202.727 32.96V39H204.607V28.88H202.727L198.367 34.92C198.027 35.4 197.547 36.1 197.467 36.28H197.427C197.447 36.18 197.487 35.46 197.487 34.92V28.88H195.627V39ZM212.04 27.72C213.6 27.72 215 26.8 215 25.16V24.86H213.46V25.12C213.46 26.02 212.74 26.46 212.04 26.46C211.34 26.46 210.64 26.02 210.64 25.14V24.86H209.08V25.16C209.08 26.8 210.5 27.72 212.04 27.72ZM207.58 39H209.44L213.82 32.96C214.14 32.48 214.64 31.8 214.7 31.62H214.74C214.74 31.78 214.68 32.48 214.68 32.96V39H216.56V28.88H214.68L210.32 34.92C209.98 35.4 209.5 36.1 209.42 36.28H209.38C209.4 36.18 209.44 35.46 209.44 34.92V28.88H207.58V39Z" fill="white"/>
</svg>
