<?xml version="1.0" encoding="utf-8"?>
<!-- Generator: Adobe Illustrator 25.2.3, SVG Export Plug-In . SVG Version: 6.00 Build 0)  -->
<svg version="1.1" id="Layer_1" xmlns="http://www.w3.org/2000/svg" xmlns:xlink="http://www.w3.org/1999/xlink" x="0px" y="0px"
	 viewBox="0 0 174.6 33.5" style="enable-background:new 0 0 174.6 33.5;" xml:space="preserve">
<style type="text/css">
	.st0{fill:#FFFFFF;}
</style>
<path class="st0" d="M1.9,6l1.2-1.9h0L4.4,6l1.2-0.8L4.1,3.4v0l2.2-0.6L5.9,1.5L3.8,2.3L3.9,0H2.4l0.1,2.3L0.4,1.5L0,2.8l2.2,0.6v0
	L0.8,5.2L1.9,6z M8.6,11.3h4.1c2,0,3.4-1.3,3.4-3.4c0-2.2-1.5-3.4-3.4-3.4h-2.5V1.4h5.1V0H8.6V11.3z M10.2,9.9v-4h2.3
	c1.2,0,2,0.8,2,2c0,1.2-0.8,2-2,2H10.2z M17.5,7.2c0,2.4,1.8,4.2,4.3,4.2c1.1,0,2.4-0.4,3.1-1.2l-0.7-1.1c-0.6,0.6-1.5,0.9-2.4,0.9
	c-1.5,0-2.7-0.9-2.8-2.7H25C25,7.2,25,7,25,6.8C25,4.7,23.8,3,21.5,3C19.2,3,17.5,4.7,17.5,7.2z M19.1,6.3c0.2-1.3,1.2-2.1,2.4-2.1
	c1.1,0,1.9,0.7,2,2.1H19.1z M26.1,10.3c0.7,0.6,1.7,1.2,3,1.2c1.7,0,3.1-0.8,3.1-2.5c0-1-0.6-1.6-1.5-1.9v0c0.6-0.3,1.2-0.8,1.2-1.8
	c0-1.4-1.2-2.2-2.7-2.2c-1.3,0-2.2,0.4-2.8,0.9l0.6,1c0.6-0.5,1.3-0.7,2-0.7c0.9,0,1.4,0.4,1.4,1.2c0,0.8-0.6,1.2-1.5,1.2H28v1.1h1
	c1.1,0,1.7,0.4,1.7,1.2c0,0.9-0.8,1.3-1.7,1.3c-1,0-1.7-0.6-2.1-1L26.1,10.3z M38.1,11.3h1.6V4.5h4v6.8h1.6V3.2h-7.1V11.3z M47,7.2
	c0,2.5,2,4.3,4.4,4.3c2.4,0,4.4-1.8,4.4-4.3c0-2.4-2-4.2-4.4-4.2C49,3,47,4.8,47,7.2z M48.6,7.2c0-1.7,1.2-2.9,2.8-2.9
	c1.5,0,2.8,1.2,2.8,2.9c0,1.7-1.3,2.9-2.8,2.9C49.9,10.1,48.6,8.9,48.6,7.2z M57.1,7.2c0,2.4,1.8,4.2,4.3,4.2c1.3,0,2.5-0.5,3.2-1.3
	L64,9.1c-0.6,0.7-1.6,1.1-2.5,1.1c-1.7,0-2.9-1.3-2.9-2.9s1.2-2.9,2.8-2.9c0.8,0,1.7,0.4,2.2,0.9l0.7-1.1c-0.8-0.8-2-1.2-3-1.2
	C58.9,3,57.1,4.8,57.1,7.2z M65.6,7.2c0,2.4,1.8,4.2,4.3,4.2c1.1,0,2.4-0.4,3.1-1.2l-0.7-1.1c-0.6,0.6-1.5,0.9-2.4,0.9
	c-1.5,0-2.7-0.9-2.8-2.7h5.9c0-0.2,0.1-0.4,0.1-0.7C73.2,4.7,72,3,69.7,3C67.4,3,65.6,4.7,65.6,7.2z M67.3,6.3
	c0.2-1.3,1.2-2.1,2.4-2.1c1.1,0,1.9,0.7,2,2.1H67.3z M75.1,11.3h10.2v1.9h1.4V10h-1.2V3.2H84V10h-3V3.2h-1.5V10h-3V3.2h-1.5V11.3z
	 M87.7,7.2c0,2.4,1.8,4.2,4.3,4.2c1.1,0,2.4-0.4,3.1-1.2l-0.7-1.1c-0.6,0.6-1.5,0.9-2.4,0.9c-1.5,0-2.7-0.9-2.8-2.7h5.9
	c0-0.2,0.1-0.4,0.1-0.7c0-2.1-1.2-3.8-3.5-3.8C89.5,3,87.7,4.7,87.7,7.2z M89.4,6.3c0.2-1.3,1.2-2.1,2.4-2.1c1.1,0,1.9,0.7,2,2.1
	H89.4z M97.1,11.3h1.6V7.8h4.1v3.5h1.6V3.2h-1.6v3.3h-4.1V3.2h-1.6V11.3z M106.7,11.3h1.5l3.5-4.8c0.3-0.4,0.7-0.9,0.7-1.1h0
	c0,0.1,0,0.7,0,1.1v4.8h1.5V3.2h-1.5L108.9,8c-0.3,0.4-0.7,0.9-0.7,1.1h0c0-0.1,0-0.7,0-1.1V3.2h-1.5V11.3z M115.5,11.3h1.7l2-2.9
	h1.4v2.9h1.6V3.2h-3.2c-1.7,0-2.9,0.9-2.9,2.5c0,1.2,0.8,2.1,1.8,2.4v0c0,0-0.2,0.2-0.4,0.5L115.5,11.3z M119.2,7.2
	c-0.9,0-1.7-0.5-1.7-1.5c0-1,0.7-1.5,1.7-1.5h1.3v3H119.2z M128,7.2c0,2.5,2,4.3,4.4,4.3c2.4,0,4.4-1.8,4.4-4.3c0-2.4-2-4.2-4.4-4.2
	C129.9,3,128,4.8,128,7.2z M129.5,7.2c0-1.7,1.2-2.9,2.8-2.9c1.5,0,2.8,1.2,2.8,2.9c0,1.7-1.3,2.9-2.8,2.9
	C130.8,10.1,129.5,8.9,129.5,7.2z M138,7.2c0,2.5,1.9,4.1,4.4,4.3v3h1.5v-3c2.5-0.1,4.4-1.8,4.4-4.3c0-2.5-1.9-4.1-4.4-4.2V0.1h-1.5
	V3C139.9,3.1,138,4.8,138,7.2z M143.9,10.2V4.3c1.6,0.1,2.8,1.2,2.8,2.9C146.7,9,145.5,10.1,143.9,10.2z M139.6,7.2
	c0-1.8,1.2-2.8,2.8-2.9v5.9C140.7,10.1,139.6,9,139.6,7.2z M150.1,11.3h1.5l3.5-4.8c0.3-0.4,0.7-0.9,0.7-1.1h0c0,0.1,0,0.7,0,1.1
	v4.8h1.5V3.2h-1.5L152.3,8c-0.3,0.4-0.7,0.9-0.7,1.1h0c0-0.1,0-0.7,0-1.1V3.2h-1.5V11.3z M159.2,7.2c0,2.4,1.8,4.2,4.3,4.2
	c1.3,0,2.5-0.5,3.2-1.3l-0.6-1.1c-0.6,0.7-1.6,1.1-2.5,1.1c-1.7,0-2.9-1.3-2.9-2.9s1.2-2.9,2.8-2.9c0.8,0,1.7,0.4,2.2,0.9l0.7-1.1
	c-0.8-0.8-2-1.2-3-1.2C161,3,159.2,4.8,159.2,7.2z M167.8,9.1c0,1.5,1.3,2.4,2.7,2.4c1.2,0,2.2-0.7,2.7-1.6h0c0,0,0,0.3,0,0.6v0.8
	h1.5V6.2c0-2-1.2-3.2-3.2-3.2c-1.1,0-2.4,0.4-3,1l0.6,1.1c0.7-0.5,1.5-0.8,2.3-0.8c1,0,1.8,0.4,1.8,1.8v0.2h-0.4
	C170.9,6.3,167.8,6.5,167.8,9.1z M169.3,9c0-1.5,2.1-1.6,3.3-1.6h0.4v0.3c0,1.2-0.8,2.6-2.2,2.6C169.8,10.3,169.3,9.6,169.3,9z
	 M11.8,26.2c0,2.4,1.8,4.2,4.3,4.2c1.3,0,2.5-0.5,3.2-1.3l-0.6-1.1c-0.6,0.7-1.6,1.1-2.5,1.1c-1.7,0-2.9-1.3-2.9-2.9
	c0-1.6,1.2-2.9,2.8-2.9c0.8,0,1.7,0.4,2.2,0.9l0.7-1.1c-0.8-0.8-2-1.2-3-1.2C13.5,22,11.8,23.8,11.8,26.2z M23,30.3h1.5v-6.8h2.8
	v-1.3h-7.2v1.3H23V30.3z M28.8,33.5h1.6v-3.7c0-0.4-0.1-0.7-0.1-0.7h0c0.6,0.9,1.5,1.4,2.5,1.4c2.1,0,3.7-1.7,3.7-4.2
	c0-2.5-1.4-4.2-3.6-4.2c-1.2,0-2.2,0.5-2.7,1.5h0c0,0,0-0.3,0-0.6v-0.7h-1.4V33.5z M30.3,26.3c0-2,1.1-2.9,2.3-2.9
	c1.3,0,2.3,1.1,2.3,2.9c0,1.8-1.1,2.9-2.3,2.9C31.1,29.1,30.3,27.7,30.3,26.3z M37.8,28.1c0,1.5,1.3,2.4,2.7,2.4
	c1.2,0,2.2-0.7,2.7-1.6h0c0,0,0,0.3,0,0.6v0.8h1.5v-5.1c0-2-1.2-3.2-3.2-3.2c-1.1,0-2.4,0.4-3,1l0.6,1.1c0.7-0.5,1.5-0.8,2.3-0.8
	c1,0,1.8,0.4,1.8,1.8v0.2h-0.4C40.9,25.3,37.8,25.5,37.8,28.1z M39.3,28c0-1.5,2.1-1.6,3.3-1.6H43v0.3c0,1.2-0.8,2.6-2.2,2.6
	C39.8,29.3,39.3,28.6,39.3,28z M45.9,30.3h1.8l1.7-2.7c0.1-0.2,0.2-0.4,0.2-0.4h0c0,0,0.1,0.2,0.3,0.4l1.7,2.7h1.8l-2.8-4.2l2.6-3.9
	h-1.8l-1.5,2.5c-0.1,0.2-0.3,0.5-0.3,0.5h0c0,0-0.1-0.3-0.3-0.5l-1.5-2.5h-1.8l2.6,3.9L45.9,30.3z M54.1,26.2c0,2.5,2,4.3,4.4,4.3
	c2.4,0,4.4-1.8,4.4-4.3c0-2.4-2-4.2-4.4-4.2C56,22,54.1,23.8,54.1,26.2z M55.7,26.2c0-1.7,1.2-2.9,2.8-2.9c1.5,0,2.8,1.2,2.8,2.9
	c0,1.7-1.3,2.9-2.8,2.9C56.9,29.1,55.7,27.9,55.7,26.2z M64.7,30.3h3.5c1.8,0,3-0.8,3-2.3c0-0.9-0.5-1.7-1.5-1.9v0
	c0.7-0.3,1.2-1,1.2-1.8c0-1.4-1.1-2.1-2.7-2.1h-3.3V30.3z M66.2,25.6v-2.4h1.5c1,0,1.4,0.4,1.4,1.1c0,0.8-0.5,1.2-1.4,1.2H66.2z
	 M66.2,29.2v-2.5h1.6c1.1,0,1.7,0.5,1.7,1.3c0,0.8-0.5,1.3-1.6,1.3H66.2z M72.4,26.2c0,2.5,2,4.3,4.4,4.3c2.4,0,4.4-1.8,4.4-4.3
	c0-2.4-2-4.2-4.4-4.2C74.4,22,72.4,23.8,72.4,26.2z M74,26.2c0-1.7,1.2-2.9,2.8-2.9c1.5,0,2.8,1.2,2.8,2.9c0,1.7-1.3,2.9-2.8,2.9
	C75.3,29.1,74,27.9,74,26.2z M86.6,21.3c1.2,0,2.4-0.7,2.4-2V19h-1.2v0.2c0,0.7-0.6,1.1-1.1,1.1s-1.1-0.4-1.1-1.1V19h-1.2v0.2
	C84.2,20.5,85.4,21.3,86.6,21.3z M83,30.3h1.5l3.5-4.8c0.3-0.4,0.7-0.9,0.7-1.1h0c0,0.1,0,0.7,0,1.1v4.8h1.5v-8.1h-1.5L85.2,27
	c-0.3,0.4-0.7,0.9-0.7,1.1h0c0-0.1,0-0.7,0-1.1v-4.8H83V30.3z M96.6,30.3h1.6v-3.5h1.2l2.4,3.5h1.8l-3-4.2v0l2.7-3.9h-1.8l-2.2,3.3
	h-1.1v-3.3h-1.6V30.3z M104.1,26.2c0,2.5,2,4.3,4.4,4.3c2.4,0,4.4-1.8,4.4-4.3c0-2.4-2-4.2-4.4-4.2C106,22,104.1,23.8,104.1,26.2z
	 M105.7,26.2c0-1.7,1.2-2.9,2.8-2.9c1.5,0,2.8,1.2,2.8,2.9c0,1.7-1.3,2.9-2.8,2.9C106.9,29.1,105.7,27.9,105.7,26.2z M114.3,30.3
	h1.5l0.4-4.8c0-0.5,0-1.4,0-1.4h0c0,0,0.3,0.6,0.5,1.2l1.9,4h1.3l1.9-4c0.3-0.6,0.5-1.2,0.5-1.2h0c0,0,0,0.9,0,1.4l0.4,4.8h1.5
	l-0.7-8.1h-1.7l-2.1,4.6c-0.2,0.5-0.4,1.1-0.4,1.1h0c0,0-0.2-0.6-0.4-1.1l-2.1-4.6H115L114.3,30.3z M126.4,30.3h1.6v-6.8h4v6.8h1.6
	v-8.1h-7.1V30.3z M135.2,28.1c0,1.5,1.3,2.4,2.7,2.4c1.2,0,2.2-0.7,2.7-1.6h0c0,0,0,0.3,0,0.6v0.8h1.5v-5.1c0-2-1.2-3.2-3.2-3.2
	c-1.1,0-2.4,0.4-3,1l0.6,1.1c0.7-0.5,1.5-0.8,2.3-0.8c1,0,1.8,0.4,1.8,1.8v0.2H140C138.3,25.3,135.2,25.5,135.2,28.1z M136.7,28
	c0-1.5,2.1-1.6,3.3-1.6h0.4v0.3c0,1.2-0.8,2.6-2.2,2.6C137.2,29.3,136.7,28.6,136.7,28z M144.3,30.3h1.6v-3.5h4.1v3.5h1.6v-8.1h-1.6
	v3.3h-4.1v-3.3h-1.6V30.3z M153.8,30.3h1.5l3.5-4.8c0.3-0.4,0.7-0.9,0.7-1.1h0c0,0.1,0,0.7,0,1.1v4.8h1.5v-8.1h-1.5L156,27
	c-0.3,0.4-0.7,0.9-0.7,1.1h0c0-0.1,0-0.7,0-1.1v-4.8h-1.5V30.3z M163.4,30.3h1.5l3.5-4.8c0.3-0.4,0.7-0.9,0.7-1.1h0
	c0,0.1,0,0.7,0,1.1v4.8h1.5v-8.1h-1.5l-3.5,4.8c-0.3,0.4-0.7,0.9-0.7,1.1h0c0-0.1,0-0.7,0-1.1v-4.8h-1.5V30.3z"/>
</svg>
