<svg width="277" height="176" viewBox="0 0 277 176" fill="none" xmlns="http://www.w3.org/2000/svg">
<g clip-path="url(#clip0_71_213)">
<path d="M270.64 148.152C267.695 148.018 255.644 149.558 239.042 151.499C234.221 157.926 230.673 162.68 215.343 162.68C208.447 162.68 201.083 160.136 196.33 156.052C167.945 158.663 118.003 157.993 117.199 157.993C115.66 161.14 112.982 174.328 96.6468 174.194H82.5211C80.8475 174.328 79.1738 174.194 77.3663 173.993C70.0691 172.989 63.5753 168.972 59.023 163.684C54.6715 158.663 51.9267 152.771 50.4539 146.612C48.2446 148.085 44.094 149.022 42.2195 148.822L-71.5892 134.562C-72.0578 135.298 -72.5934 136.035 -73.1959 136.704C-75.9407 140.052 -79.355 141.792 -82.9031 142.127H-97.4305C-102.987 142.663 -108.945 139.918 -113.096 135.365C-117.18 130.947 -119.322 124.989 -120.125 118.897C-120.192 119.164 -120.192 119.365 -120.192 119.566L-126.954 118.964C-131.506 118.964 -135.255 115.482 -135.523 110.93C-135.523 110.93 -139.205 88.503 -133.18 78.3941C-132.51 77.256 -131.841 76.1849 -131.305 75.0468L-127.422 67.2141C-127.021 66.4108 -126.887 65.4735 -127.021 64.5363L-127.757 60.3186C-128.494 56.3019 -127.222 52.1512 -124.343 49.2056L-121.063 45.8582C-120.393 45.1888 -119.59 44.6532 -118.719 44.2515C-117.916 43.9168 -117.247 43.8499 -117.18 43.7829C-101.38 41.0381 -82.0998 25.1718 -76.1415 21.7576C-75.9407 21.6237 -75.7399 21.4898 -75.539 21.3559C-41.1286 2.47705 -10.1995 2.74484 26.4871 1.33896C85.2659 0.803394 99.1908 6.96245 108.162 9.70725C119.475 13.1215 128.647 17.2722 136.882 20.8873C162.924 33.674 178.388 43.1804 192.447 52.4859C192.581 52.5529 192.782 52.6198 192.916 52.6868L248.816 73.6409C248.95 73.7079 249.083 73.7748 249.15 73.7748C250.489 74.4443 258.523 78.8628 261.469 83.482C263.142 86.0929 263.343 86.4277 265.485 89.9089C266.623 91.7164 267.895 93.3901 269.77 94.3943C272.582 95.9341 276.465 100.152 275.059 112.135C273.385 126.395 273.385 132.955 273.519 135.232C273.519 135.767 273.653 136.37 273.921 136.838C274.992 139.449 278.607 148.42 270.64 148.152Z" fill="#05552D" stroke="#47A53A" stroke-width="2.5" stroke-miterlimit="10"/>
<path d="M192.045 52.1513C173.3 54.6952 161.518 56.3689 139.158 57.1722C120.011 57.9087 97.5839 57.9756 81.0482 57.1722C78.839 57.0384 76.8306 55.9672 75.2908 54.3605C67.9937 46.7956 60.2279 38.4273 50.9224 30.059C44.9642 24.7033 42.688 21.4899 37.1314 17.2723C35.5917 16.0672 36.3281 13.6572 38.2695 13.5233C51.8596 12.653 70.4037 12.2513 85.6005 12.3182C99.3245 12.3852 103.379 11.9166 116.5 12.3183" stroke="#47A53A" stroke-width="2.5" stroke-miterlimit="10"/>
<path d="M40.2113 59.7162L46.2364 60.4526L57.8181 61.0551C60.0273 61.189 59.5587 58.7789 58.4876 56.9044C52.1277 45.5235 33.8513 23.9668 7.27367 15.7325C-13.6136 9.30561 -28.7434 12.1174 -39.7226 14.5274C-64.0241 19.9501 -87.4553 39.3645 -88.8612 42.511C-88.8612 42.511 -84.4427 44.921 -79.2209 45.7244L6.20253 55.8333" fill="#05552D"/>
<path d="M40.2113 59.7162L46.2364 60.4526L57.8181 61.0551C60.0274 61.189 59.5587 58.7789 58.4876 56.9044C52.1277 45.5235 33.8514 23.9668 7.27367 15.7325C-13.6136 9.30561 -28.7434 12.1174 -39.7226 14.5274C-64.0241 19.9501 -87.4553 39.3645 -88.8612 42.511C-88.8612 42.511 -84.4427 44.921 -79.2209 45.7244L6.20253 55.8333" stroke="#47A53A" stroke-width="2.5" stroke-miterlimit="10"/>
<path d="M37.3327 137.508L-70.5847 123.583C-70.0491 115.884 -69.7813 110.06 -71.5889 103.633" fill="#05552D"/>
<path d="M37.3327 137.508L-70.5847 123.583C-70.0491 115.884 -69.7813 110.06 -71.5889 103.633" stroke="#47A53A" stroke-width="2.5" stroke-miterlimit="10" stroke-linecap="round"/>
<path d="M246.138 86.6285C254.038 85.2226 258.925 83.7498 259.728 81.005L246.138 86.6285Z" fill="#05552D"/>
<path d="M259.728 81.005C258.925 83.7498 254.038 85.2226 246.138 86.6285C215.592 90.7523 145 94.4 107 76" stroke="#47A53A" stroke-width="2.5" stroke-miterlimit="10" stroke-linecap="round"/>
<path d="M75.2905 54.3604C75.2905 54.3604 79.3742 60.5864 90.5543 67.8166L75.2905 54.3604Z" fill="#05552D"/>
<path d="M75.2905 54.3604C75.2905 54.3604 79.3742 60.5864 90.5543 67.8166" stroke="#47A53A" stroke-width="2.5" stroke-miterlimit="10" stroke-linecap="round"/>
<path d="M118.337 81.1389L134.538 98.2102C136.948 100.018 139.76 101.089 142.773 101.357L184.012 104.637C185.752 104.771 186.69 102.696 185.485 101.491L176.045 91.7164C174.84 90.4445 173.166 89.708 171.359 89.5742C163.392 89.2394 139.024 87.5658 118.337 81.1389Z" fill="#05552D" stroke="#47A53A" stroke-width="2.5" stroke-miterlimit="10"/>
<path d="M266.958 90.9801L260.13 97.4069C258.992 98.4111 257.184 97.6078 257.251 96.1349L257.385 83.7499" fill="#05552D"/>
<path d="M266.958 90.9801L260.13 97.4069C258.992 98.4111 257.184 97.6078 257.251 96.1349L257.385 83.7499" stroke="#47A53A" stroke-width="2.5" stroke-miterlimit="10"/>
<path d="M273.988 120.838C273.988 120.838 273.251 109.926 263.41 107.984C262.339 107.784 261.268 107.917 260.264 108.386C251.628 112.202 211.326 112.805 202.154 112.336C200.816 112.269 182.138 113.943 170.087 136.838C169.418 138.043 170.087 139.583 171.359 139.985C186.556 144.537 237.77 138.981 263.209 135.299C272.448 133.96 273.051 128.805 273.921 127.399" stroke="#47A53A" stroke-width="2.5" stroke-miterlimit="10"/>
<path d="M78.9059 91.8503C93.8349 92.185 103.944 106.311 107.492 117.892C110.103 126.528 110.906 136.37 109.634 145.206C107.559 159.265 95.5086 176.47 77.567 173.926C70.2699 172.855 63.3074 168.236 58.822 162.947C50.4538 153.24 48.6462 140.052 49.7843 128.068C50.8554 116.353 54.8053 102.428 66.2531 95.3984C70.5377 92.7875 74.8222 91.7833 78.9059 91.8503Z" fill="#05552D" stroke="#47A53A" stroke-width="2.5" stroke-miterlimit="10"/>
<path d="M61.9694 118.562C60.4966 122.244 59.6932 126.127 59.3585 129.742C58.6221 137.842 60.2957 146.478 65.9192 153.039" fill="#05552D"/>
<path d="M61.9694 118.562C60.4966 122.244 59.6932 126.127 59.3585 129.742C58.6221 137.842 60.2957 146.478 65.9192 153.039" stroke="#47A53A" stroke-width="2.5" stroke-miterlimit="10" stroke-linecap="round"/>
<path d="M93.7011 113.474C90.2199 108.922 85.3328 105.307 79.1737 105.173C76.4289 105.106 73.5503 105.842 70.6716 107.583C68.7971 108.721 67.1904 110.194 65.8514 111.867" fill="#05552D"/>
<path d="M93.7011 113.474C90.2199 108.922 85.3328 105.307 79.1737 105.173C76.4289 105.106 73.5503 105.842 70.6716 107.583C68.7971 108.721 67.1904 110.194 65.8514 111.867" stroke="#47A53A" stroke-width="2.5" stroke-miterlimit="10" stroke-linecap="round"/>
<path d="M78.2369 160.002C90.2873 161.742 98.4547 150.629 99.8606 141.19C100.731 135.232 100.195 128.604 98.4547 122.78" fill="#05552D"/>
<path d="M78.2369 160.002C90.2873 161.742 98.4547 150.629 99.8606 141.19C100.731 135.232 100.195 128.604 98.4547 122.78" stroke="#47A53A" stroke-width="2.5" stroke-miterlimit="10" stroke-linecap="round"/>
<path d="M29.9682 66.9463C29.5665 64.9379 28.4954 63.0634 27.2903 61.4567C26.7548 60.7203 26.1522 59.85 25.4158 59.2475C24.6794 58.645 23.7422 58.645 22.8049 58.578C20.194 58.3772 17.5831 58.645 14.9722 58.578C12.696 58.5111 10.286 58.4441 8.21064 57.373C5.93447 56.168 3.85913 53.9587 3.85913 51.2139C3.85913 48.67 6.00141 46.7955 8.07675 45.6574C10.6877 44.1846 13.5663 43.8499 16.512 43.8499C18.6543 43.8499 20.7296 44.0507 22.8719 44.0507C28.964 44.1176 35.5917 47.7327 35.9933 53.1554C36.0603 54.4943 36.9306 56.8374 37.667 57.9755C38.5373 59.3144 39.6085 59.5822 41.2152 59.917" fill="#05552D"/>
<path d="M29.9682 66.9463C29.5665 64.9379 28.4954 63.0634 27.2903 61.4567C26.7548 60.7203 26.1522 59.85 25.4158 59.2475C24.6794 58.645 23.7422 58.645 22.8049 58.578C20.194 58.3772 17.5831 58.645 14.9722 58.578C12.696 58.5111 10.286 58.4441 8.21064 57.373C5.93447 56.168 3.85913 53.9587 3.85913 51.2139C3.85913 48.67 6.00141 46.7955 8.07675 45.6574C10.6877 44.1846 13.5663 43.8499 16.512 43.8499C18.6543 43.8499 20.7296 44.0507 22.8719 44.0507C28.964 44.1176 35.5917 47.7327 35.9933 53.1554C36.0603 54.4943 36.9306 56.8374 37.667 57.9755C38.5373 59.3144 39.6085 59.5822 41.2152 59.917" stroke="#47A53A" stroke-width="2.5" stroke-miterlimit="10" stroke-linecap="round"/>
<path d="M239.242 151.165L196.464 155.717" stroke="#47A53A" stroke-width="2.5" stroke-miterlimit="10"/>
<path d="M119.074 157.725L110.839 157.257C108.496 157.19 106.956 154.244 107.96 152.102L108.563 149.96" fill="#05552D"/>
<path d="M119.074 157.725L110.839 157.257C108.496 157.19 106.956 154.244 107.96 152.102L108.563 149.96" stroke="#47A53A" stroke-width="2.5" stroke-miterlimit="10"/>
<path d="M37.0642 73.7748C34.9888 79.1974 33.516 86.2268 33.1144 95.3315C32.6457 106.645 32.1102 115.549 31.5746 122.244" fill="#05552D"/>
<path d="M37.0642 73.7748C34.9888 79.1974 33.516 86.2268 33.1144 95.3315C32.6457 106.645 32.1102 115.549 31.5746 122.244" stroke="#47A53A" stroke-width="2.5" stroke-miterlimit="10" stroke-linecap="round"/>
<path d="M124.095 82.7456C124.095 82.7456 112.781 79.5322 107.091 76.4526L124.095 82.7456Z" fill="#05552D"/>
<path d="M124.095 82.7456C124.095 82.7456 112.781 79.5322 107.091 76.4526" stroke="#47A53A" stroke-width="2.5" stroke-miterlimit="10" stroke-linecap="round"/>
</g>
<defs>
<clipPath id="clip0_71_213">
<rect width="415" height="175.6" fill="white" transform="translate(-138)"/>
</clipPath>
</defs>
</svg>
