<svg width="162" height="49" viewBox="0 0 162 49" fill="none" xmlns="http://www.w3.org/2000/svg">
<g clip-path="url(#clip0_71_192)">
<path d="M33.4715 12.057H16.5175V21.7684H33.4744V24.6745C33.4744 29.591 32.082 33.558 24.5806 33.5759H16.5175V46.3986C19.3015 48.1244 21.3187 48.7185 21.3187 48.7185C21.3187 48.7185 42.3689 41.4335 42.3689 11.9641V0.412842C42.3689 5.33145 40.1882 11.9669 33.4715 12.057Z" fill="#05552D" stroke="#05552D" stroke-width="0.843644"/>
<path d="M54.0644 23.7343V7.19836H64.2294V8.41658C64.2294 9.65981 63.2179 10.6678 61.9704 10.6678H58.1261V14.1373H63.1849V15.3119C63.1849 16.5795 62.1548 17.6061 60.8836 17.6061H58.1261V23.7343H54.0644Z" fill="black"/>
<path d="M66.5261 23.7343V7.19836H72.3044C73.7743 7.19836 74.8496 7.32919 75.5304 7.59157C76.4902 7.95975 77.2398 8.55813 77.7821 9.38314C78.323 10.2089 78.5935 11.214 78.5935 12.4022C78.5935 13.3266 78.3768 14.2095 77.9443 15.0495C77.511 15.891 76.8991 16.5108 76.11 16.9126V16.9584C76.2649 17.1585 76.4737 17.4903 76.7377 17.9528L79.9629 23.7343H75.4371L72.4902 18.1601H70.5878V23.7343L66.5261 23.7343ZM70.5878 14.6907H72.3517C73.016 14.6907 73.5339 14.5148 73.9063 14.1595C74.2771 13.8056 74.4622 13.3044 74.4622 12.6567C74.4622 11.7459 74.138 11.1597 73.4888 10.898C73.1322 10.745 72.6215 10.6678 71.9565 10.6678H70.5878V14.6907Z" fill="black"/>
<path d="M81.7967 23.7343V7.19836H92.1941V10.6678H85.8584V13.6733H90.9172V17.1421H85.8584V20.2656H92.5191V23.7343H81.7967Z" fill="black"/>
<path d="M95.1176 23.7343V7.19836H105.515V10.6678H99.1792V13.6733H104.238V17.1421H99.1792V20.2656H105.84V23.7343H95.1176Z" fill="black"/>
<path d="M108.438 23.7343V7.19836H114.333C116.962 7.19836 119.047 7.92615 120.587 9.38314C122.127 10.8408 122.897 12.8569 122.897 15.432C122.897 18.0214 122.127 20.0532 120.587 21.5259C119.047 22.998 116.962 23.7343 114.333 23.7343H108.438ZM112.5 20.2656H114.171C115.593 20.2656 116.704 19.8495 117.5 19.0173C118.298 18.1844 118.695 16.9891 118.695 15.432C118.695 13.89 118.293 12.7103 117.49 11.8932C116.684 11.0753 115.578 10.6678 114.171 10.6678H112.5V20.2656Z" fill="black"/>
<path d="M124.636 15.3625C124.636 12.9561 125.449 10.9493 127.073 9.33645C128.698 7.72575 130.778 6.92004 133.316 6.92004C135.853 6.92004 137.934 7.72575 139.559 9.33645C141.183 10.9493 141.995 12.9561 141.995 15.3625C141.995 17.8282 141.183 19.8871 139.559 21.5379C137.934 23.1872 135.853 24.0115 133.316 24.0115C130.778 24.0115 128.698 23.1872 127.073 21.5379C125.449 19.8871 124.636 17.8282 124.636 15.3625ZM128.836 15.3625C128.836 16.7808 129.257 17.9597 130.101 18.9013C130.944 19.84 132.017 20.3118 133.316 20.3118C134.615 20.3118 135.686 19.84 136.53 18.9013C137.373 17.9597 137.794 16.7808 137.794 15.3625C137.794 14.0056 137.373 12.8753 136.53 11.9731C135.686 11.0715 134.615 10.6212 133.316 10.6212C132.017 10.6212 130.944 11.0715 130.101 11.9731C129.257 12.8753 128.836 14.0056 128.836 15.3625Z" fill="black"/>
<path d="M143.921 23.7343L145.29 7.19836H149.7L152.113 14.1824L152.948 16.9126H152.995C153.305 15.8023 153.583 14.8908 153.831 14.1824L156.244 7.19836H160.654L162 23.7343H157.94L157.428 16.2871C157.396 15.9167 157.382 15.5014 157.382 15.0388C157.382 14.5748 157.389 14.2059 157.404 13.9271L157.428 13.5125H157.382C157.01 14.6685 156.701 15.5929 156.454 16.2871L154.714 21.0748H151.232L149.491 16.2871L148.562 13.5125H148.516C148.577 14.5298 148.577 15.4542 148.516 16.2871L148.006 23.7343H143.921Z" fill="black"/>
<path d="M54.3769 29.2985H57.2714V41.0874H54.3769V29.2985Z" fill="black"/>
<path d="M59.7531 29.2985H62.6813L65.9568 34.8062C66.4195 35.5804 66.9489 36.8179 66.9489 36.8179H66.9826C66.9826 36.8179 66.8499 35.5482 66.8499 34.8062V29.2985H69.7445V41.0874H66.8334L63.5414 35.5976C63.078 34.8219 62.5486 33.5858 62.5486 33.5858H62.5156C62.5156 33.5858 62.6476 34.8548 62.6476 35.5976V41.0874H59.7531L59.7531 29.2985Z" fill="black"/>
<path d="M72.937 37.4112C73.5984 37.9875 74.724 38.6316 75.7828 38.6316C76.5934 38.6316 77.0066 38.2684 77.0066 37.8066C77.0066 36.1416 71.7792 36.4054 71.7792 32.7114C71.7792 30.5359 73.5827 29.1018 76.064 29.1018C77.3868 29.1018 78.7433 29.53 79.7699 30.4366L78.5453 32.7943C77.8839 32.2181 76.8574 31.7563 75.932 31.7563C75.0547 31.7563 74.6738 32.118 74.6738 32.597C74.6738 34.2778 79.9019 33.8824 79.9019 37.6078C79.9019 39.5867 78.4298 41.2846 75.7003 41.2846C74.1616 41.2846 72.5396 40.7242 71.4148 39.6039L72.937 37.4112Z" fill="black"/>
<path d="M81.6056 29.2985H84.5009V36.7514C84.5009 37.9875 85.3115 38.6474 86.5525 38.6474C87.7935 38.6474 88.6042 37.9875 88.6042 36.7514V29.2985H91.4994V36.7514C91.4994 39.4059 89.5468 41.2847 86.569 41.2847C83.5582 41.2847 81.6056 39.4059 81.6056 36.7514V29.2985Z" fill="black"/>
<path d="M97.9999 34.6409C98.926 34.6409 99.5056 34.1297 99.5056 33.1903C99.5056 32.597 99.3564 32.1516 98.8105 31.9371C98.5451 31.8213 98.1979 31.7719 97.718 31.7719H96.7424V34.6409H97.9999ZM93.8478 29.2983H97.9662C99.1742 29.2983 99.7539 29.3813 100.266 29.5793C101.606 30.0905 102.45 31.2944 102.45 33.008C102.45 34.262 101.854 35.6296 100.679 36.2244V36.2566C100.679 36.2566 100.845 36.4704 101.126 36.9658L103.426 41.088H100.2L98.0989 37.1145H96.7424V41.088H93.8478V29.2983Z" fill="black"/>
<path d="M110.142 36.3054L109.481 34.0142C109.265 33.2728 109.001 31.9859 109.001 31.9859H108.968C108.968 31.9859 108.703 33.2728 108.488 34.0142L107.809 36.3054H110.142ZM107.462 29.2986H110.506L114.526 41.0875H111.548L110.82 38.6139H107.131L106.42 41.0875H103.442L107.462 29.2986Z" fill="black"/>
<path d="M115.716 29.2985H118.644L121.92 34.8062C122.382 35.5804 122.912 36.8179 122.912 36.8179H122.946C122.946 36.8179 122.813 35.5482 122.813 34.8062V29.2985H125.707V41.0874H122.796L119.504 35.5976C119.041 34.8219 118.512 33.5858 118.512 33.5858H118.479C118.479 33.5858 118.611 34.8548 118.611 35.5976V41.0874H115.716L115.716 29.2985Z" fill="black"/>
<path d="M133.764 29.1016C135.352 29.1016 137.04 29.6285 138.197 30.7659L136.857 32.9428C136.097 32.2829 134.955 31.7389 133.896 31.7389C131.53 31.7389 130.555 33.4046 130.555 35.1025C130.555 36.8498 131.614 38.6471 133.896 38.6471C135.071 38.6471 136.229 38.0044 137.04 37.1972L138.529 39.3077C137.487 40.3786 135.931 41.2844 133.764 41.2844C129.959 41.2844 127.56 38.6635 127.56 35.169C127.56 31.7389 130.108 29.1016 133.764 29.1016Z" fill="black"/>
<path d="M140.001 29.2985H147.413V31.7721H142.895V33.9154H146.502V36.3883H142.895V38.6138H147.644V41.0874H140.001V29.2985Z" fill="black"/>
<path d="M0.124512 0.411377V12.1069C0.124512 33.2117 10.1608 42.6927 16.3733 46.5411V33.7187H24.4363C31.9377 33.7009 33.3304 29.7347 33.3304 24.8183V21.9122H16.3733V12.2001H33.3272C40.0439 12.11 42.2245 8.21303 42.2245 3.29442V0.411377H0.124512ZM17.5177 47.2113C17.7018 47.3137 17.8736 47.4058 18.0473 47.4972C17.8746 47.4062 17.7006 47.3131 17.5177 47.2113ZM18.0473 47.4972C18.455 47.7121 18.8376 47.9041 19.179 48.0627C18.8386 47.9047 18.4537 47.7112 18.0473 47.4972ZM19.179 48.0627C19.2578 48.0993 19.3185 48.1243 19.3934 48.158C19.3206 48.1252 19.2555 48.0983 19.179 48.0627ZM19.3934 48.158C19.6332 48.2664 19.8213 48.3463 20.0176 48.4272C19.8269 48.3485 19.6247 48.2624 19.3934 48.158ZM20.0176 48.4272C20.2771 48.5343 20.4797 48.6147 20.6544 48.6785C20.4842 48.6162 20.2669 48.5299 20.0176 48.4272ZM20.6544 48.6785C20.7691 48.7205 20.837 48.7496 20.9118 48.7749C20.8502 48.7536 20.7367 48.7086 20.6544 48.6785ZM20.9118 48.7749C21.0779 48.8321 21.1745 48.8618 21.1745 48.8618C21.1745 48.8618 21.0388 48.8178 20.9118 48.7749Z" fill="#50AF3C"/>
</g>
<defs>
<clipPath id="clip0_71_192">
<rect width="162" height="49" fill="white"/>
</clipPath>
</defs>
</svg>
