<?xml version="1.0" encoding="utf-8"?>
<!-- Generator: Adobe Illustrator 25.2.3, SVG Export Plug-In . SVG Version: 6.00 Build 0)  -->
<svg version="1.1" id="Layer_1" xmlns="http://www.w3.org/2000/svg" xmlns:xlink="http://www.w3.org/1999/xlink" x="0px" y="0px"
	 viewBox="0 0 61.9 20.9" style="enable-background:new 0 0 61.9 20.9;" xml:space="preserve">
<style type="text/css">
	.st0{fill:#FFFFFF;}
</style>
<path class="st0" d="M2.6,11.4l-2.2-1.1L1.2,0h11.1l-0.2,3H3.9L3.5,8.3c1.1-0.6,2.4-0.9,3.7-0.9c3.9,0,5.9,2.1,5.9,6.4
	c0,2.3-0.6,4-1.7,5.2c-1.1,1.2-2.8,1.8-5.1,1.8c-1.6,0-2.9-0.4-4-1.2c-1.1-0.8-1.8-1.9-2.3-3.4l2.5-0.9c0.3,0.9,0.8,1.6,1.4,2.1
	c0.6,0.5,1.4,0.7,2.2,0.7c1.2,0,2.1-0.3,2.7-1c0.6-0.7,0.8-1.8,0.8-3.2c0-1.3-0.3-2.3-0.9-2.8c-0.6-0.6-1.5-0.9-2.7-0.9
	C4.6,10.2,3.4,10.6,2.6,11.4z M21.9,20.6h-3.7l7.5-17.7h-9.9V0h13.5v2.6L21.9,20.6z M38.2,20.6h-3.7L42,2.9h-9.9V0h13.5v2.6
	L38.2,20.6z M54.5,20.6h-3.7l7.5-17.7h-9.9V0h13.5v2.6L54.5,20.6z"/>
</svg>
