<?xml version="1.0" encoding="utf-8"?>
<!-- Generator: Adobe Illustrator 25.2.3, SVG Export Plug-In . SVG Version: 6.00 Build 0)  -->
<svg version="1.1" id="Layer_1" xmlns="http://www.w3.org/2000/svg" xmlns:xlink="http://www.w3.org/1999/xlink" x="0px" y="0px"
	 viewBox="0 0 200.7 50.1" style="enable-background:new 0 0 200.7 50.1;" xml:space="preserve">
<style type="text/css">
	.st0{fill:#FFFFFF;}
</style>
<path class="st0" d="M0,8.6c0,4.1,3.1,6.9,7.5,6.9v2.1h2.3v-2.1c4.5,0,7.5-2.7,7.5-6.9c0-4-3.1-6.7-7.5-6.7V0H7.5v1.9
	C3.1,1.9,0,4.6,0,8.6z M9.8,13.5V3.8c3.1,0,5.2,1.8,5.2,4.8C15,11.6,12.9,13.5,9.8,13.5z M2.3,8.6c0-3,2.1-4.8,5.2-4.8v9.7
	C4.4,13.5,2.3,11.6,2.3,8.6z M19.2,11.4c0,3.5,2.8,6.1,6.3,6.1c3.4,0,6.3-2.6,6.3-6.1c0-3.5-2.8-6.1-6.3-6.1
	C22,5.3,19.2,7.9,19.2,11.4z M21.5,11.4c0-2.4,1.8-4.1,4-4.1c2.2,0,4,1.7,4,4.1c0,2.4-1.8,4.2-4,4.2C23.3,15.6,21.5,13.8,21.5,11.4z
	 M36.9,17.3h2.2V7.5h4.1V5.6H32.8v1.9h4V17.3z M44.2,11.4c0,3.5,2.8,6.1,6.3,6.1c3.5,0,6.3-2.6,6.3-6.1c0-3.5-2.8-6.1-6.3-6.1
	C47,5.3,44.2,7.9,44.2,11.4z M46.5,11.4c0-2.4,1.8-4.1,4-4.1c2.2,0,4,1.7,4,4.1c0,2.4-1.8,4.2-4,4.2C48.3,15.6,46.5,13.8,46.5,11.4z
	 M64.2,14.1c0,2.2,1.9,3.4,3.9,3.4c1.7,0,3.2-1,3.8-2.4h0c0,0-0.1,0.4-0.1,0.9v1.2H74V9.9c0-2.9-1.7-4.6-4.6-4.6
	c-1.6,0-3.4,0.6-4.3,1.4l0.9,1.6c0.9-0.7,2.1-1.1,3.3-1.1c1.4,0,2.6,0.6,2.6,2.6V10h-0.6C68.7,10,64.2,10.4,64.2,14.1z M66.4,13.9
	c0-2.1,3.1-2.3,4.7-2.3h0.6v0.4c0,1.7-1.2,3.7-3.1,3.7C67.2,15.8,66.4,14.8,66.4,13.9z M77.3,21.9h2.2v-5.3c0-0.6-0.1-1-0.1-1h0
	c0.8,1.2,2.1,2,3.6,2c3.1,0,5.3-2.4,5.3-6.1c0-3.6-2-6.1-5.1-6.1c-1.7,0-3.2,0.8-3.9,2.2h0c0,0,0.1-0.4,0.1-0.9v-1h-2.1V21.9z
	 M79.4,11.5c0-2.9,1.6-4.2,3.4-4.2c1.9,0,3.3,1.6,3.3,4.2c0,2.6-1.5,4.1-3.4,4.1C80.6,15.6,79.4,13.5,79.4,11.5z M91.1,17.3h2.2v-5
	H95l3.5,5h1.2V20h2v-4.7h-2l-2.9-4.1v0l3.9-5.5h-2.5l-3.2,4.7h-1.6V5.6h-2.2V17.3z M102.8,14.1c0,2.2,1.9,3.4,3.9,3.4
	c1.7,0,3.2-1,3.8-2.4h0c0,0-0.1,0.4-0.1,0.9v1.2h2.1V9.9c0-2.9-1.7-4.6-4.6-4.6c-1.6,0-3.4,0.6-4.3,1.4l0.9,1.6
	c0.9-0.7,2.1-1.1,3.3-1.1c1.4,0,2.6,0.6,2.6,2.6V10h-0.6C107.3,10,102.8,10.4,102.8,14.1z M105,13.9c0-2.1,3.1-2.3,4.7-2.3h0.6v0.4
	c0,1.7-1.2,3.7-3.1,3.7C105.8,15.8,105,14.8,105,13.9z M114.6,17.4c3.4-0.2,4.8-2.9,4.8-8.2V7.5h3.4v9.8h2.2V5.6h-7.8v3.6
	c0,4.2-0.9,5.9-2.6,6.2V17.4z M139,17.3h2.2V5.6H139V17.3z M128.5,17.3h4.5c2.9,0,4.3-1.5,4.3-3.7c0-2.6-1.8-3.7-4.2-3.7h-2.3V5.6
	h-2.2V17.3z M130.7,15.6v-4.2h1.9c1.6,0,2.3,0.9,2.3,2.1c0,1.2-0.7,2.1-2.3,2.1H130.7z M149.1,17.3h2.6l4-7.4h2.1v7.4h2.3V9.8h2.1
	l4,7.4h2.6l-4.7-8.5v0l4.4-7.7H166l-3.8,6.8h-2.1V1h-2.3v6.8h-2.1L151.9,1h-2.5l4.4,7.7v0L149.1,17.3z M171.4,17.3h2.3V9.8h2.4
	l4.3,7.4h2.6l-5-8.5v0l4.7-7.7h-2.5l-4.1,6.8h-2.4V1h-2.3V17.3z M184.1,9c0,4.8,3.7,8.5,8.3,8.5s8.3-3.7,8.3-8.5
	c0-4.7-3.6-8.3-8.3-8.3S184.1,4.3,184.1,9z M186.4,9c0-3.5,2.7-6.2,6-6.2c3.3,0,6,2.7,6,6.2c0,3.6-2.7,6.4-6,6.4
	C189.1,15.4,186.4,12.7,186.4,9z M0.1,39.4c0,3.5,2.8,6.1,6.3,6.1c3.4,0,6.3-2.6,6.3-6.1c0-3.5-2.8-6.1-6.3-6.1
	C2.9,33.3,0.1,35.9,0.1,39.4z M2.3,39.4c0-2.4,1.8-4.1,4-4.1c2.2,0,4,1.7,4,4.1c0,2.4-1.8,4.2-4,4.2C4.1,43.6,2.3,41.8,2.3,39.4z
	 M15.3,45.2h2.2v-5h5.9v5h2.2V33.6h-2.2v4.7h-5.9v-4.7h-2.2V45.2z M27.8,45.4c3.4-0.2,4.8-2.9,4.8-8.2v-1.7H36v9.8h2.2V33.6h-7.8
	v3.6c0,4.2-0.9,5.9-2.6,6.2V45.4z M40.7,42.1c0,2.2,1.9,3.5,3.9,3.5c1.7,0,3.2-1,3.8-2.4h0c0,0-0.1,0.4-0.1,0.9v1.2h2.1v-7.4
	c0-2.9-1.7-4.6-4.6-4.6c-1.6,0-3.4,0.6-4.3,1.4l0.9,1.6c0.9-0.7,2.1-1.1,3.3-1.1c1.4,0,2.6,0.6,2.6,2.6V38h-0.6
	C45.2,38,40.7,38.4,40.7,42.1z M42.9,41.9c0-2.1,3.1-2.3,4.7-2.3h0.6v0.4c0,1.7-1.2,3.7-3.1,3.7C43.7,43.8,42.9,42.8,42.9,41.9z
	 M58.9,32.3c1.8,0,3.4-1.1,3.4-2.9V29h-1.8v0.3c0,1-0.8,1.5-1.6,1.5c-0.8,0-1.6-0.5-1.6-1.5V29h-1.8v0.3
	C55.5,31.2,57.1,32.3,58.9,32.3z M53.8,45.2h2.1l5-6.9c0.4-0.6,0.9-1.3,1-1.5h0c0,0.2-0.1,1-0.1,1.5v6.9h2.2V33.6H62l-5,6.9
	c-0.4,0.6-0.9,1.4-1,1.6h0c0-0.1,0.1-0.9,0.1-1.6v-6.9h-2.1V45.2z M67.5,45.2h2.2v-5h5.9v5h2.2V33.6h-2.2v4.7h-5.9v-4.7h-2.2V45.2z
	 M89.9,45.2h2.2v-9.7h4.1v-1.9H85.8v1.9h4V45.2z M98.3,31.3h2.3V29h-2.3V31.3z M98.4,45.2h2.2V33.6h-2.2V45.2z M104,49.8h2.2v-5.3
	c0-0.6-0.1-1-0.1-1h0c0.8,1.2,2.1,2,3.6,2c3.1,0,5.3-2.4,5.3-6.1c0-3.6-2-6.1-5.1-6.1c-1.7,0-3.2,0.8-3.9,2.2h0c0,0,0.1-0.4,0.1-0.9
	v-1H104V49.8z M106.2,39.5c0-2.9,1.6-4.2,3.4-4.2c1.9,0,3.3,1.6,3.3,4.2c0,2.6-1.5,4.1-3.4,4.1C107.3,43.6,106.2,41.5,106.2,39.5z
	 M117.8,45.2h2.2v-5h1.7l3.5,5h2.6l-4.3-6v0l3.9-5.5h-2.5l-3.2,4.7h-1.6v-4.7h-2.2V45.2z M128.6,39.4c0,3.5,2.5,6.1,6.2,6.1
	c1.6,0,3.4-0.6,4.5-1.7l-0.9-1.6c-0.9,0.8-2.2,1.4-3.4,1.4c-2.1,0-3.9-1.4-4-3.9h8.5c0-0.3,0.1-0.6,0.1-0.9c0-3-1.7-5.5-5-5.5
	C131.1,33.3,128.6,35.7,128.6,39.4z M131,38.1c0.3-1.9,1.7-3.1,3.4-3.1c1.5,0,2.8,1.1,2.8,3.1H131z M141.3,47.7l-0.8,1.7
	c0,0,0.9,0.7,2.2,0.7c1.6,0,3.1-0.9,3.8-2.7l5.5-13.7h-2.4l-2.8,7.6c-0.2,0.6-0.4,1.4-0.4,1.4h0c0,0-0.2-0.8-0.4-1.4l-2.9-7.6h-2.5
	l4.9,11.5l-0.6,1.3c-0.4,1.1-1.2,1.7-2.1,1.7C141.9,48.2,141.3,47.7,141.3,47.7z"/>
</svg>
