<?xml version="1.0" encoding="utf-8"?>
<!-- Generator: Adobe Illustrator 25.2.3, SVG Export Plug-In . SVG Version: 6.00 Build 0)  -->
<svg version="1.1" id="Layer_1" xmlns="http://www.w3.org/2000/svg" xmlns:xlink="http://www.w3.org/1999/xlink" x="0px" y="0px"
	 viewBox="0 0 128.4 27" style="enable-background:new 0 0 128.4 27;" xml:space="preserve">
<style type="text/css">
	.st0{fill:#FFFFFF;}
</style>
<path class="st0" d="M0,15.8C0,22.1,4.8,27,11,27c6.2,0,10.9-4.9,10.9-11.2C21.9,9.7,17.1,5,11,5C4.8,5,0,9.7,0,15.8z M3.1,15.8
	c0-4.6,3.5-8.2,7.9-8.2c4.3,0,7.9,3.5,7.9,8.2c0,4.8-3.5,8.4-7.9,8.4C6.6,24.2,3.1,20.6,3.1,15.8z M26.2,26.6h3v-9.4h11.1v9.4h3V5.3
	h-3v9.4H29.2V5.3h-3V26.6z M46.4,24.1v2.7c5.9-0.3,7.7-6.2,7.7-16.5V7.9h6.6v18.7h3V5.3H51.2v5C51.2,19,50,23.6,46.4,24.1z
	 M66.9,26.6h3l2.1-6.1h8l2.1,6.1h3.1L77.7,5.3h-3.2L66.9,26.6z M72.9,18l2.4-6.7c0.4-1.1,0.8-3,0.8-3h0.1c0,0,0.5,1.9,0.8,3l2.4,6.7
	H72.9z M97.3,4.3c2.4,0,4.5-1.4,4.5-3.9V0h-2.3v0.4c0,1.4-1.1,2-2.1,2c-1.1,0-2.1-0.7-2.1-2V0h-2.4v0.5C92.8,2.9,94.9,4.3,97.3,4.3z
	 M88.6,26.6h2.9l9.5-13.8c0.8-1.2,1.8-3.1,1.8-3.1h0.1c0,0-0.2,1.9-0.2,3.1v13.8h3V5.3h-2.9l-9.5,13.8c-0.8,1.1-1.8,3.1-1.8,3.1
	h-0.1c0,0,0.2-1.9,0.2-3.1V5.3h-3V26.6z M111.3,26.6h3v-9.4h11.1v9.4h3V5.3h-3v9.4h-11.1V5.3h-3V26.6z"/>
</svg>
