<svg width="231" height="75" viewBox="0 0 231 75" fill="none" xmlns="http://www.w3.org/2000/svg">
<path d="M0.15003 37.4036C0.15003 50.1653 7.33856 58.9692 18.4041 58.9692C24.3003 58.9692 28.9849 56.0615 31.408 51.8615H31.5696C31.5696 51.8615 31.408 52.9115 31.408 54.4461V58H41.0196V0.653299H30.8426V18.8266C30.8426 20.1996 31.0042 21.2497 31.0042 21.2497H30.8426C28.1772 17.5342 23.4118 15.8381 18.8079 15.8381C7.90395 15.8381 0.15003 24.3189 0.15003 37.4036ZM10.4886 37.4036C10.4886 29.2459 15.254 24.642 20.8272 24.642C27.7734 24.642 31.0849 30.9421 31.0849 37.3229C31.0849 46.4499 26.0772 50.3268 20.7464 50.3268C14.6886 50.3268 10.4886 45.2383 10.4886 37.4036ZM54.1252 42.896C54.1252 56.7077 65.5138 58.4039 71.2485 58.4039C72.6215 58.4039 73.5908 58.2423 74.3985 58.1615V49.1961C73.5908 49.3576 73.1062 49.3576 72.5408 49.3576C69.7138 49.3576 64.383 48.3884 64.383 41.6037V25.5305H73.7523V17.3727H64.383V5.58027H54.3675V17.3727H48.7944V25.5305H54.1252V42.896ZM82.237 74.154H92.4947V56.7077C92.4947 54.6077 92.2524 53.1538 92.2524 53.1538H92.414C95.3217 56.8692 99.6025 58.9692 104.287 58.9692C115.11 58.9692 123.107 50.4884 123.107 37.4036C123.107 24.642 115.999 15.8381 104.853 15.8381C99.2794 15.8381 94.2717 18.3419 91.6063 22.7843H91.4447C91.4447 22.7843 91.6063 21.4112 91.6063 19.8766V16.8073H82.237V74.154ZM92.1717 37.646C92.1717 28.519 97.1794 24.642 102.591 24.642C108.568 24.642 112.768 29.7305 112.768 37.5652C112.768 45.723 108.083 50.3268 102.429 50.3268C95.7255 50.3268 92.1717 44.0268 92.1717 37.646ZM131.689 58H141.947V47.6614H131.689V58ZM152.753 58H163.011V39.9883H168.342L179.246 58H191.038L176.419 35.3844V35.2229L189.423 16.8073H178.034L168.099 31.3459H163.011V0.653299H152.753V58ZM194.416 58H230.844V49.2768H212.105C209.44 49.2768 208.228 49.5192 208.228 49.5192V49.3576C208.228 49.3576 210.005 47.9038 211.782 45.5614L230.278 22.3804V16.8073H195.224V25.5305H212.59C215.255 25.5305 216.467 25.3689 216.467 25.3689V25.5305C216.467 25.5305 214.851 26.9843 212.993 29.3266L194.416 52.5076V58Z" fill="white"/>
</svg>
