<?xml version="1.0" encoding="utf-8"?>
<!-- Generator: Adobe Illustrator 25.2.3, SVG Export Plug-In . SVG Version: 6.00 Build 0)  -->
<svg version="1.1" id="Layer_1" xmlns="http://www.w3.org/2000/svg" xmlns:xlink="http://www.w3.org/1999/xlink" x="0px" y="0px"
	 viewBox="0 0 204.9 78.1" style="enable-background:new 0 0 204.9 78.1;" xml:space="preserve">
<style type="text/css">
	.st0{fill:#FFFFFF;}
</style>
<path class="st0" d="M0,8.6c0,4.1,3.1,6.9,7.5,6.9v2.1h2.3v-2.1c4.5,0,7.5-2.7,7.5-6.9c0-4-3.1-6.7-7.5-6.7V0H7.5v1.9
	C3.1,1.9,0,4.6,0,8.6z M9.8,13.5V3.8c3.1,0,5.2,1.8,5.2,4.8C15,11.6,12.9,13.5,9.8,13.5z M2.3,8.6c0-3,2.1-4.8,5.2-4.8v9.7
	C4.4,13.5,2.3,11.6,2.3,8.6z M19.2,11.4c0,3.5,2.8,6.1,6.3,6.1c3.4,0,6.3-2.6,6.3-6.1c0-3.5-2.8-6.1-6.3-6.1
	C22,5.3,19.2,7.9,19.2,11.4z M21.5,11.4c0-2.4,1.8-4.1,4-4.1c2.2,0,4,1.7,4,4.1c0,2.4-1.8,4.2-4,4.2C23.3,15.6,21.5,13.8,21.5,11.4z
	 M36.9,17.3h2.2V7.5h4.1V5.6H32.8v1.9h4V17.3z M44.2,11.4c0,3.5,2.8,6.1,6.3,6.1c3.5,0,6.3-2.6,6.3-6.1c0-3.5-2.8-6.1-6.3-6.1
	C47,5.3,44.2,7.9,44.2,11.4z M46.5,11.4c0-2.4,1.8-4.1,4-4.1c2.2,0,4,1.7,4,4.1c0,2.4-1.8,4.2-4,4.2C48.3,15.6,46.5,13.8,46.5,11.4z
	 M64.2,14.1c0,2.2,1.9,3.4,3.9,3.4c1.7,0,3.2-1,3.8-2.4h0c0,0-0.1,0.4-0.1,0.9v1.2H74V9.9c0-2.9-1.7-4.6-4.6-4.6
	c-1.6,0-3.4,0.6-4.3,1.4l0.9,1.6c0.9-0.7,2.1-1.1,3.3-1.1c1.4,0,2.6,0.6,2.6,2.6V10h-0.6C68.7,10,64.2,10.4,64.2,14.1z M66.4,13.9
	c0-2.1,3.1-2.3,4.7-2.3h0.6v0.4c0,1.7-1.2,3.7-3.1,3.7C67.2,15.8,66.4,14.8,66.4,13.9z M77.3,21.9h2.2v-5.3c0-0.6-0.1-1-0.1-1h0
	c0.8,1.2,2.1,2,3.6,2c3.1,0,5.3-2.4,5.3-6.1c0-3.6-2-6.1-5.1-6.1c-1.7,0-3.2,0.8-3.9,2.2h0c0,0,0.1-0.4,0.1-0.9v-1h-2.1V21.9z
	 M79.4,11.5c0-2.9,1.6-4.2,3.4-4.2c1.9,0,3.3,1.6,3.3,4.2c0,2.6-1.5,4.1-3.4,4.1C80.6,15.6,79.4,13.5,79.4,11.5z M91.1,17.3h2.2v-5
	H95l3.5,5h1.2V20h2v-4.7h-2l-2.9-4.1v0l3.9-5.5h-2.5l-3.2,4.7h-1.6V5.6h-2.2V17.3z M114.4,17.3h2.2V5.6h-2.2V17.3z M103.9,17.3h4.5
	c2.9,0,4.3-1.5,4.3-3.7c0-2.6-1.8-3.7-4.2-3.7h-2.3V5.6h-2.2V17.3z M106.1,15.6v-4.2h1.9c1.6,0,2.3,0.9,2.3,2.1
	c0,1.2-0.7,2.1-2.3,2.1H106.1z M118.8,17.4c3.4-0.2,4.8-2.9,4.8-8.2V7.5h3.4v9.8h2.2V5.6h-7.8v3.6c0,4.2-0.9,5.9-2.6,6.2V17.4z
	 M143.2,17.3h2.2V5.6h-2.2V17.3z M132.7,17.3h4.5c2.9,0,4.3-1.5,4.3-3.7c0-2.6-1.8-3.7-4.2-3.7h-2.3V5.6h-2.2V17.3z M134.9,15.6
	v-4.2h1.9c1.6,0,2.3,0.9,2.3,2.1c0,1.2-0.7,2.1-2.3,2.1H134.9z M153.3,17.3h2.5l3.1-5h1.7v5h2.1v-5h1.7l3,5h2.5l-3.7-6v0l3.4-5.6
	h-2.3l-2.9,4.8h-1.7V5.6h-2.1v4.8h-1.7L156,5.6h-2.4l3.4,5.6v0L153.3,17.3z M170.8,11.4c0,3.5,2.8,6.1,6.3,6.1
	c3.4,0,6.3-2.6,6.3-6.1c0-3.5-2.8-6.1-6.3-6.1C173.6,5.3,170.8,7.9,170.8,11.4z M173.1,11.4c0-2.4,1.8-4.1,4-4.1c2.2,0,4,1.7,4,4.1
	c0,2.4-1.8,4.2-4,4.2C174.9,15.6,173.1,13.8,173.1,11.4z M184.5,17.4c3.4-0.2,4.8-2.9,4.8-8.2V7.5h3.4v9.8h2.2V5.6h-7.8v3.6
	c0,4.2-0.9,5.9-2.6,6.2V17.4z M198.2,11.7h6.7v-2h-6.7V11.7z M0.8,45.2h2.2v-5h1.7l3.5,5h2.6l-4.3-6v0l3.9-5.5H7.9l-3.2,4.7H3.1
	v-4.7H0.8V45.2z M11.6,39.4c0,3.5,2.8,6.1,6.3,6.1c3.5,0,6.3-2.6,6.3-6.1c0-3.5-2.8-6.1-6.3-6.1C14.4,33.3,11.6,35.9,11.6,39.4z
	 M17.9,43.8c-2.1,0-3.9-1.5-4.1-3.7H22C21.7,42.3,20,43.8,17.9,43.8z M17.9,35.1c2.1,0,3.8,1.4,4.1,3.6h-8.3
	C14.1,36.5,15.8,35.1,17.9,35.1z M25.2,45.4c3.4-0.2,4.8-2.9,4.8-8.2v-1.7h3.4v9.8h2.2V33.6h-7.8v3.6c0,4.2-0.9,5.9-2.6,6.2V45.4z
	 M39.1,31.3h2.3V29h-2.3V31.3z M39.1,45.2h2.2V33.6h-2.2V45.2z M44.8,45.2H47v-5h1.7l3.5,5h2.6l-4.3-6v0l3.9-5.5h-2.5l-3.2,4.7H47
	v-4.7h-2.2V45.2z M61.8,39.4c0,3.5,2.8,6.1,6.3,6.1c3.5,0,6.3-2.6,6.3-6.1c0-3.5-2.8-6.1-6.3-6.1C64.6,33.3,61.8,35.9,61.8,39.4z
	 M64,39.4c0-2.4,1.8-4.1,4-4.1c2.2,0,4,1.7,4,4.1c0,2.4-1.8,4.2-4,4.2C65.8,43.6,64,41.8,64,39.4z M77,45.2h2.2v-5h1.7l3.5,5h1.2V48
	h2v-4.7h-2l-2.9-4.1v0l3.9-5.5H84l-3.2,4.7h-1.6v-4.7H77V45.2z M89.8,45.2h2.1l5-6.9c0.4-0.6,0.9-1.3,1-1.5h0c0,0.2-0.1,1-0.1,1.5
	v6.9h2.2V33.6H98l-5,6.9c-0.4,0.6-0.9,1.4-1,1.6h0c0-0.1,0.1-0.9,0.1-1.6v-6.9h-2.1V45.2z M103.6,45.2h2.2v-4.8h3v-1.5h-3v-3.4h5.1
	v-1.9h-7.3v5.3h-1.4v1.5h1.4V45.2z M112.1,42.1c0,2.2,1.9,3.5,3.9,3.5c1.7,0,3.2-1,3.8-2.4h0c0,0-0.1,0.4-0.1,0.9v1.2h2.1v-7.4
	c0-2.9-1.7-4.6-4.6-4.6c-1.6,0-3.4,0.6-4.3,1.4l0.9,1.6c0.9-0.7,2.1-1.1,3.3-1.1c1.4,0,2.6,0.6,2.6,2.6V38H119
	C116.6,38,112.1,38.4,112.1,42.1z M114.3,41.9c0-2.1,3.1-2.3,4.7-2.3h0.6v0.4c0,1.7-1.2,3.7-3.1,3.7
	C115.1,43.8,114.3,42.8,114.3,41.9z M124.4,39.4c0,3.5,2.6,6.1,6.2,6.1c1.8,0,3.6-0.7,4.6-1.9l-0.9-1.6c-0.9,0.9-2.3,1.6-3.6,1.6
	c-2.4,0-4.1-1.8-4.1-4.2s1.7-4.1,4-4.1c1.2,0,2.4,0.6,3.2,1.3L135,35c-1.1-1.2-2.8-1.7-4.4-1.7C127,33.3,124.4,36,124.4,39.4z
	 M148.2,45.2h2.2V33.6h-2.2V45.2z M137.7,45.2h4.5c2.9,0,4.3-1.5,4.3-3.7c0-2.6-1.8-3.7-4.2-3.7h-2.3v-4.2h-2.2V45.2z M139.9,43.6
	v-4.2h1.9c1.6,0,2.3,0.9,2.3,2.1c0,1.2-0.7,2.1-2.3,2.1H139.9z M153.9,45.2h2.2v-5h5.9v5h2.2V33.6H162v4.7h-5.9v-4.7h-2.2V45.2z
	 M0.1,67.4c0,3.5,2.8,6.1,6.3,6.1c3.4,0,6.3-2.6,6.3-6.1c0-3.5-2.8-6.1-6.3-6.1C2.9,61.3,0.1,63.9,0.1,67.4z M2.3,67.4
	c0-2.4,1.8-4.1,4-4.1c2.2,0,4,1.7,4,4.1c0,2.4-1.8,4.2-4,4.2C4.1,71.6,2.3,69.8,2.3,67.4z M15.3,73.2h2.2v-5h5.9v5h2.2V61.6h-2.2
	v4.7h-5.9v-4.7h-2.2V73.2z M27.8,73.4c3.4-0.2,4.8-2.9,4.8-8.2v-1.7H36v9.8h2.2V61.6h-7.8v3.6c0,4.2-0.9,5.9-2.6,6.2V73.4z
	 M40.7,70.1c0,2.2,1.9,3.5,3.9,3.5c1.7,0,3.2-1,3.8-2.4h0c0,0-0.1,0.4-0.1,0.9v1.2h2.1v-7.4c0-2.9-1.7-4.6-4.6-4.6
	c-1.6,0-3.4,0.6-4.3,1.4l0.9,1.6c0.9-0.7,2.1-1.1,3.3-1.1c1.4,0,2.6,0.6,2.6,2.6V66h-0.6C45.2,66,40.7,66.4,40.7,70.1z M42.9,69.9
	c0-2.1,3.1-2.3,4.7-2.3h0.6v0.4c0,1.7-1.2,3.7-3.1,3.7C43.7,71.8,42.9,70.8,42.9,69.9z M58.9,60.3c1.8,0,3.4-1.1,3.4-2.9V57h-1.8
	v0.3c0,1-0.8,1.5-1.6,1.5c-0.8,0-1.6-0.5-1.6-1.5V57h-1.8v0.3C55.5,59.2,57.1,60.3,58.9,60.3z M53.8,73.2h2.1l5-6.9
	c0.4-0.6,0.9-1.3,1-1.5h0c0,0.2-0.1,1-0.1,1.5v6.9h2.2V61.6H62l-5,6.9c-0.4,0.6-0.9,1.4-1,1.6h0c0-0.1,0.1-0.9,0.1-1.6v-6.9h-2.1
	V73.2z M67.5,73.2h2.2v-5h5.9v5h2.2V61.6h-2.2v4.7h-5.9v-4.7h-2.2V73.2z M89.9,73.2h2.2v-9.7h4.1v-1.9H85.8v1.9h4V73.2z M98.3,59.3
	h2.3V57h-2.3V59.3z M98.4,73.2h2.2V61.6h-2.2V73.2z M104,77.8h2.2v-5.3c0-0.6-0.1-1-0.1-1h0c0.8,1.2,2.1,2,3.6,2
	c3.1,0,5.3-2.4,5.3-6.1c0-3.6-2-6.1-5.1-6.1c-1.7,0-3.2,0.8-3.9,2.2h0c0,0,0.1-0.4,0.1-0.9v-1H104V77.8z M106.2,67.5
	c0-2.9,1.6-4.2,3.4-4.2c1.9,0,3.3,1.6,3.3,4.2c0,2.6-1.5,4.1-3.4,4.1C107.3,71.6,106.2,69.5,106.2,67.5z M117.8,73.2h2.2v-5h1.7
	l3.5,5h2.6l-4.3-6v0l3.9-5.5h-2.5l-3.2,4.7h-1.6v-4.7h-2.2V73.2z M128.6,67.4c0,3.4,2.5,6.1,6.2,6.1c1.6,0,3.4-0.6,4.5-1.7l-0.9-1.6
	c-0.9,0.8-2.2,1.4-3.4,1.4c-2.1,0-3.9-1.4-4-3.9h8.5c0-0.3,0.1-0.6,0.1-0.9c0-3-1.7-5.5-5-5.5C131.1,61.3,128.6,63.7,128.6,67.4z
	 M131,66.1c0.3-1.9,1.7-3.1,3.4-3.1c1.5,0,2.8,1.1,2.8,3.1H131z M141.3,75.7l-0.8,1.7c0,0,0.9,0.7,2.2,0.7c1.6,0,3.1-0.9,3.8-2.7
	l5.5-13.7h-2.4l-2.8,7.6c-0.2,0.6-0.4,1.4-0.4,1.4h0c0,0-0.2-0.8-0.4-1.4l-2.9-7.6h-2.5l4.9,11.5l-0.6,1.3c-0.4,1.1-1.2,1.7-2.1,1.7
	C141.9,76.2,141.3,75.7,141.3,75.7z"/>
</svg>
