<?xml version="1.0" encoding="utf-8"?>
<!-- Generator: Adobe Illustrator 25.2.3, SVG Export Plug-In . SVG Version: 6.00 Build 0)  -->
<svg version="1.1" id="Layer_1" xmlns="http://www.w3.org/2000/svg" xmlns:xlink="http://www.w3.org/1999/xlink" x="0px" y="0px"
	 viewBox="0 0 241 73" style="enable-background:new 0 0 241 73;" xml:space="preserve">
<style type="text/css">
	.st0{fill:url(#SVGID_1_);}
</style>
<linearGradient id="SVGID_1_" gradientUnits="userSpaceOnUse" x1="-2.8717" y1="59.8473" x2="245.6663" y2="1.1832" gradientTransform="matrix(1 0 0 -1 0 74)">
	<stop  offset="0" style="stop-color:#FFFFFF"/>
	<stop  offset="1" style="stop-color:#FFFFFF"/>
</linearGradient>
<path class="st0" d="M73.1,26h4.6l2.1-6.4h8.8l2.1,6.4h4.6L86.7,1h-4.8L73.1,26z M81,15.9l2.3-6.7c0.4-1.4,1-3.9,1-3.9h0.1
	c0,0,0.6,2.5,1,3.9l2.2,6.7H81z M98.8,26h9.1c4.6,0,8.6-2.3,8.6-7.3c0-2.5-1.3-5.1-4.1-5.9v-0.1c1.9-1,3-3,3-5.4
	c0-4.1-3.2-6.4-7.8-6.4h-8.9V26z M103.3,11.2V4.9h4.3c2.1,0,3.2,1.3,3.2,3.1s-1.1,3.2-3.1,3.2H103.3z M103.3,22.1v-7.2h4.9
	c2.3,0,3.6,1.5,3.6,3.6c0,2.1-1.3,3.6-3.6,3.6H103.3z M126.1,26h4.5V4.9h8.2V1h-20.9v3.9h8.2V26z M140,13.3
	c0,7.4,5.6,13.1,12.9,13.1s12.9-5.7,12.9-13.1c0-7.2-5.6-12.8-12.9-12.8S140,6.2,140,13.3z M144.7,13.3c0-4.9,3.7-8.6,8.2-8.6
	s8.2,3.7,8.2,8.6c0,5.1-3.7,8.9-8.2,8.9S144.7,18.4,144.7,13.3z M0.9,55.4c0,7.4,5.1,13,12.9,13c4.5,0,7.7-1.9,9.8-4.1l-2.4-3.3
	c-1.9,1.9-4.6,3.2-7.3,3.2c-5.4,0-8.4-4.3-8.4-8.9c0-4.6,2.9-8.6,8.4-8.6c2.4,0,5.1,1.1,6.8,2.6L23,46c-2.4-2.4-6-3.4-9.2-3.4
	C6.2,42.6,0.9,48.1,0.9,55.4z M24.8,68h4.6l2.1-6.4h8.8l2.1,6.4h4.6l-8.8-25h-4.8L24.8,68z M32.7,57.9l2.3-6.7c0.4-1.4,1-3.9,1-3.9
	H36c0,0,0.6,2.5,1,3.9l2.2,6.7H32.7z M50.5,68H55V57.1h3.2L64.4,68h2.5v4.9h4.1v-8.8h-3.7L62,55v-0.1L69.1,43h-4.9l-5.9,10.2H55V43
	h-4.5V68z M80.2,68h4.5V46.9h8.2V43H72v3.9h8.2V68z M91.7,68h4.6l2.1-6.4h8.8l2.1,6.4h4.7l-8.8-25h-4.8L91.7,68z M99.6,57.9l2.3-6.7
	c0.4-1.4,1-3.9,1-3.9h0.1c0,0,0.6,2.5,1,3.9l2.2,6.7H99.6z M117.3,68h4.5V57.5h11.4V68h4.5V43h-4.5v10.6h-11.4V43h-4.5V68z
	 M148.3,64.1c2.6-4.2,3.2-10.4,3.2-15.3v-1.9h6.7v17.2H148.3z M141.1,64.1v8.8h4.2V68h16.2v4.9h4.1v-8.8h-2.8V43h-15.5v5.5
	c0,5.1-0.5,11-3.6,15.6H141.1z M190.2,68h4.5V43h-4.5V68z M170,68h9.3c4.5,0,7.7-3.3,7.7-8.1c0-5-3.2-8.2-7.8-8.2h-4.7V43H170V68z
	 M174.5,64.1v-8.4h3.9c2.5,0,4,1.7,4,4.3c0,2.5-1.4,4.2-3.9,4.2H174.5z M200.8,68h4.5v-8.6h5.1c4.7,0,8-3.4,8-8.2
	c0-4.9-3.3-8.1-8-8.1h-9.7V68z M205.4,55.4v-8.5h4.3c2.6,0,4.1,1.7,4.1,4.2c0,2.6-1.6,4.3-4.2,4.3H205.4z M221.7,66.7
	c1.5,1.1,3.1,1.7,5,1.7c3.6,0,5.4-3,6.4-5.7l7.7-19.8h-4.8l-4,11.2c-0.6,1.6-1,3.3-1,3.3H231c0,0-0.6-1.7-1.4-3.3L224.2,43h-5
	l9.8,19.3c-0.5,1.4-1.2,2.2-2.5,2.2c-1.2,0-2.2-0.7-2.8-1.2L221.7,66.7z"/>
</svg>
