<?xml version="1.0" encoding="utf-8"?>
<!-- Generator: Adobe Illustrator 25.2.3, SVG Export Plug-In . SVG Version: 6.00 Build 0)  -->
<svg version="1.1" id="Layer_1" xmlns="http://www.w3.org/2000/svg" xmlns:xlink="http://www.w3.org/1999/xlink" x="0px" y="0px"
	 viewBox="0 0 169.6 49.1" style="enable-background:new 0 0 169.6 49.1;" xml:space="preserve">
<style type="text/css">
	.st0{fill:#FFFFFF;}
</style>
<path class="st0" d="M0.4,16.3h2.3V2h8.2v14.3h2.3V0H0.4V16.3z M16.1,10.4c0,3.5,2.8,6.1,6.3,6.1c3.5,0,6.3-2.6,6.3-6.1
	c0-3.5-2.8-6.1-6.3-6.1C18.9,4.3,16.1,6.9,16.1,10.4z M18.4,10.4c0-2.4,1.8-4.1,4-4.1c2.2,0,4,1.7,4,4.1c0,2.4-1.8,4.2-4,4.2
	C20.2,14.6,18.4,12.9,18.4,10.4z M29.7,16.4c3.4-0.2,4.8-2.9,4.8-8.2V6.5h3.4v9.8h2.2V4.6h-7.8v3.6c0,4.2-0.9,5.9-2.6,6.2V16.4z
	 M43.6,16.3h2.1l5-6.9c0.4-0.6,0.9-1.3,1-1.5h0c0,0.2-0.1,1-0.1,1.5v6.9h2.2V4.6h-2.2l-5,6.9c-0.4,0.6-0.9,1.4-1,1.6h0
	c0-0.1,0.1-0.9,0.1-1.6V4.6h-2.1V16.3z M56.6,10.4c0,3.5,2.6,6.1,6.2,6.1c1.8,0,3.6-0.7,4.6-1.9L66.6,13c-0.9,0.9-2.3,1.6-3.6,1.6
	c-2.4,0-4.1-1.8-4.1-4.2s1.7-4.1,4-4.1c1.2,0,2.4,0.6,3.2,1.3L67.2,6c-1.1-1.2-2.8-1.7-4.4-1.7C59.2,4.3,56.6,7,56.6,10.4z
	 M72.7,16.3h2.2V6.5H79V4.6H68.6v1.9h4V16.3z M81.1,2.3h2.3V0h-2.3V2.3z M81.2,16.3h2.2V4.6h-2.2V16.3z M91.8,10.4
	c0,3.5,2.8,6.1,6.3,6.1c3.5,0,6.3-2.6,6.3-6.1c0-3.5-2.8-6.1-6.3-6.1C94.6,4.3,91.8,6.9,91.8,10.4z M94.1,10.4c0-2.4,1.8-4.1,4-4.1
	c2.2,0,4,1.7,4,4.1c0,2.4-1.8,4.2-4,4.2C95.9,14.6,94.1,12.9,94.1,10.4z M107,16.3h2.2v-5h5.9v5h2.2V4.6h-2.2v4.7h-5.9V4.6H107V16.3
	z M119.6,16.4c3.4-0.2,4.8-2.9,4.8-8.2V6.5h3.4v9.8h2.2V4.6h-7.8v3.6c0,4.2-0.9,5.9-2.6,6.2V16.4z M132.5,13.1
	c0,2.2,1.9,3.4,3.9,3.4c1.7,0,3.2-1,3.8-2.4h0c0,0-0.1,0.4-0.1,0.9v1.2h2.1V8.9c0-2.9-1.7-4.6-4.6-4.6c-1.6,0-3.4,0.6-4.3,1.4
	l0.9,1.6c0.9-0.7,2.1-1.1,3.3-1.1c1.4,0,2.6,0.6,2.6,2.6V9h-0.6C137,9,132.5,9.4,132.5,13.1z M134.7,12.9c0-2.1,3.1-2.3,4.7-2.3h0.6
	v0.4c0,1.7-1.2,3.7-3.1,3.7C135.4,14.8,134.7,13.8,134.7,12.9z M150.7,3.3c1.8,0,3.4-1.1,3.4-2.9V0h-1.8v0.3c0,1-0.8,1.5-1.6,1.5
	c-0.8,0-1.6-0.5-1.6-1.5V0h-1.8v0.3C147.2,2.2,148.9,3.3,150.7,3.3z M145.5,16.3h2.1l5-6.9c0.4-0.6,0.9-1.3,1-1.5h0
	c0,0.2-0.1,1-0.1,1.5v6.9h2.2V4.6h-2.2l-5,6.9c-0.4,0.6-0.9,1.4-1,1.6h0c0-0.1,0.1-0.9,0.1-1.6V4.6h-2.1V16.3z M159.3,16.3h2.2v-5
	h5.9v5h2.2V4.6h-2.2v4.7h-5.9V4.6h-2.2V16.3z M0,48.9h2.2v-5.3c0-0.6-0.1-1-0.1-1h0c0.8,1.2,2.1,2,3.6,2c3.1,0,5.3-2.4,5.3-6.1
	c0-3.6-2-6.1-5.1-6.1c-1.7,0-3.2,0.8-3.9,2.2h0c0,0,0.1-0.4,0.1-0.9v-1H0V48.9z M2.2,38.5c0-2.9,1.6-4.2,3.4-4.2
	c1.9,0,3.3,1.6,3.3,4.2c0,2.6-1.5,4.1-3.4,4.1C3.3,42.6,2.2,40.6,2.2,38.5z M13.1,38.4c0,3.5,2.5,6.1,6.2,6.1c1.6,0,3.4-0.6,4.5-1.7
	l-0.9-1.6c-0.9,0.8-2.2,1.4-3.4,1.4c-2.1,0-3.9-1.4-4-3.9h8.5c0-0.3,0.1-0.6,0.1-0.9c0-3-1.7-5.5-5-5.5
	C15.6,32.3,13.1,34.7,13.1,38.4z M15.4,37.1c0.3-1.9,1.7-3.1,3.4-3.1c1.5,0,2.8,1.1,2.8,3.1H15.4z M25.9,38.4c0,3.5,2.6,6.1,6.2,6.1
	c1.8,0,3.6-0.7,4.6-1.9L35.8,41c-0.9,0.9-2.3,1.6-3.6,1.6c-2.4,0-4.1-1.8-4.1-4.2s1.7-4.1,4-4.1c1.2,0,2.4,0.6,3.2,1.3l1.1-1.6
	c-1.1-1.2-2.8-1.7-4.4-1.7C28.4,32.3,25.9,35,25.9,38.4z M39.1,30.3h2.3V28h-2.3V30.3z M39.1,44.3h2.2V32.6h-2.2V44.3z M44.3,44.3
	h2.2l0.5-6.9c0-0.7,0-2,0-2h0c0,0,0.4,0.9,0.7,1.7l2.8,5.8h1.9l2.8-5.8c0.4-0.9,0.7-1.7,0.7-1.7h0c0,0,0,1.3,0,2l0.5,6.9h2.2
	l-1-11.6h-2.4l-3,6.6c-0.3,0.7-0.6,1.6-0.6,1.6h0c0,0-0.3-0.9-0.6-1.6l-3-6.6h-2.5L44.3,44.3z M63.9,42.4c1.5-2.3,1.7-5.6,1.7-7.4
	v-0.6H69v8H63.9z M60.2,42.4V47h2.1v-2.8h8.6V47h2v-4.6h-1.7v-9.8h-7.9v2.1c0,1.8-0.2,5.4-1.8,7.7H60.2z M74.4,38.4
	c0,3.5,2.5,6.1,6.2,6.1c1.6,0,3.4-0.6,4.5-1.7l-0.9-1.6c-0.9,0.8-2.2,1.4-3.4,1.4c-2.1,0-3.9-1.4-4-3.9h8.5c0-0.3,0.1-0.6,0.1-0.9
	c0-3-1.7-5.5-5-5.5C76.9,32.3,74.4,34.7,74.4,38.4z M76.8,37.1c0.3-1.9,1.7-3.1,3.4-3.1c1.5,0,2.8,1.1,2.8,3.1H76.8z M87.1,46.7
	l-0.8,1.7c0,0,0.9,0.7,2.2,0.7c1.6,0,3.1-0.9,3.8-2.7l5.5-13.7h-2.4l-2.8,7.6c-0.2,0.6-0.4,1.4-0.4,1.4h0c0,0-0.2-0.8-0.4-1.4
	l-2.9-7.6h-2.5l4.9,11.5l-0.6,1.3c-0.4,1.1-1.2,1.7-2.1,1.7C87.7,47.2,87.1,46.7,87.1,46.7z"/>
</svg>
