<?xml version="1.0" encoding="utf-8"?>
<!-- Generator: Adobe Illustrator 25.2.3, SVG Export Plug-In . SVG Version: 6.00 Build 0)  -->
<svg version="1.1" id="Layer_1" xmlns="http://www.w3.org/2000/svg" xmlns:xlink="http://www.w3.org/1999/xlink" x="0px" y="0px"
	 viewBox="0 0 230.1 33.7" style="enable-background:new 0 0 230.1 33.7;" xml:space="preserve">
<style type="text/css">
	.st0{fill:#FFFFFF;}
</style>
<path class="st0" d="M1.9,6.2l1.2-1.9h0l1.2,1.9l1.2-0.8L4.1,3.6v0L6.3,3L5.9,1.7L3.8,2.5l0.1-2.3H2.4l0.1,2.3L0.4,1.6L0,3l2.2,0.6
	v0L0.8,5.4L1.9,6.2z M7.9,5.8c0,3.3,2.3,5.9,5.8,5.9c2,0,3.4-0.8,4.4-1.8l-0.8-1.1c-0.9,0.9-2.2,1.5-3.5,1.5c-2.6,0-4.2-2.1-4.2-4.5
	c0-2.4,1.6-4.3,4.2-4.3c1.2,0,2.4,0.5,3.3,1.2l0.8-1.2c-1.1-1-2.7-1.5-4.1-1.5C10.3,0,7.9,2.5,7.9,5.8z M19.1,9.3
	c0,1.5,1.3,2.4,2.7,2.4c1.2,0,2.2-0.7,2.7-1.6h0c0,0,0,0.3,0,0.6v0.8h1.5V6.4c0-2-1.2-3.2-3.2-3.2c-1.1,0-2.4,0.4-3,1l0.6,1.1
	c0.7-0.5,1.5-0.8,2.3-0.8c1,0,1.8,0.4,1.8,1.8v0.2H24C22.3,6.4,19.1,6.7,19.1,9.3z M20.7,9.2c0-1.5,2.1-1.6,3.3-1.6h0.4v0.3
	c0,1.2-0.8,2.6-2.2,2.6C21.2,10.4,20.7,9.8,20.7,9.2z M28.2,11.5h1.6V8h1.2l2.4,3.5h0.9v1.9h1.4v-3.3h-1.4l-2-2.9v0l2.7-3.9h-1.8
	l-2.2,3.3h-1.1V3.4h-1.6V11.5z M39.1,11.5h1.5V4.7h2.8V3.4h-7.2v1.3h2.8V11.5z M44.2,9.3c0,1.5,1.3,2.4,2.7,2.4
	c1.2,0,2.2-0.7,2.7-1.6h0c0,0,0,0.3,0,0.6v0.8H51V6.4c0-2-1.2-3.2-3.2-3.2c-1.1,0-2.4,0.4-3,1l0.6,1.1c0.7-0.5,1.5-0.8,2.3-0.8
	c1,0,1.8,0.4,1.8,1.8v0.2H49C47.4,6.4,44.2,6.7,44.2,9.3z M45.8,9.2c0-1.5,2.1-1.6,3.3-1.6h0.4v0.3c0,1.2-0.8,2.6-2.2,2.6
	C46.3,10.4,45.8,9.8,45.8,9.2z M53.3,11.5h1.6V8H59v3.5h1.6V3.4H59v3.3h-4.1V3.4h-1.6V11.5z M64.5,10.2c1-1.6,1.2-3.9,1.2-5.1V4.7
	h2.4v5.6H64.5z M61.9,10.2v3.2h1.5v-1.9h6v1.9h1.4v-3.2h-1.2V3.4h-5.5v1.5c0,1.2-0.1,3.8-1.3,5.3H61.9z M79.7,11.5h1.6V3.4h-1.6
	V11.5z M72.4,11.5h3.1c2,0,3-1,3-2.6c0-1.8-1.3-2.6-2.9-2.6H74V3.4h-1.6V11.5z M74,10.4V7.4h1.3c1.1,0,1.6,0.6,1.6,1.5
	c0,0.8-0.5,1.5-1.6,1.5H74z M83.7,14.7h1.6V11c0-0.4-0.1-0.7-0.1-0.7h0c0.6,0.9,1.5,1.4,2.5,1.4c2.1,0,3.7-1.7,3.7-4.2
	c0-2.5-1.4-4.2-3.6-4.2c-1.2,0-2.2,0.5-2.7,1.5h0c0,0,0-0.3,0-0.6V3.4h-1.4V14.7z M85.2,7.5c0-2,1.1-2.9,2.3-2.9
	c1.3,0,2.3,1.1,2.3,2.9c0,1.8-1.1,2.9-2.3,2.9C86,10.3,85.2,8.9,85.2,7.5z M92.7,13.2l-0.5,1.2c0,0,0.7,0.5,1.6,0.5
	c1.1,0,2.1-0.6,2.6-1.9l3.8-9.6h-1.7l-2,5.3c-0.1,0.4-0.3,1-0.3,1h0c0,0-0.1-0.6-0.3-1l-2-5.3h-1.7l3.4,8l-0.4,0.9
	c-0.3,0.7-0.8,1.2-1.5,1.2C93.1,13.5,92.7,13.2,92.7,13.2z M105.6,11.5h1.6V8h1.2l2.4,3.5h1.8l-3-4.2v0l2.7-3.9h-1.8l-2.2,3.3h-1.1
	V3.4h-1.6V11.5z M113.1,7.4c0,2.5,2,4.3,4.4,4.3c2.4,0,4.4-1.8,4.4-4.3c0-2.4-2-4.2-4.4-4.2C115.1,3.2,113.1,5,113.1,7.4z
	 M114.7,7.4c0-1.7,1.2-2.9,2.8-2.9c1.5,0,2.8,1.2,2.8,2.9c0,1.7-1.3,2.9-2.8,2.9C115.9,10.3,114.7,9.1,114.7,7.4z M123.4,11.5h1.5
	l0.4-4.8c0-0.5,0-1.4,0-1.4h0c0,0,0.3,0.6,0.5,1.2l1.9,4h1.3l1.9-4c0.3-0.6,0.5-1.2,0.5-1.2h0c0,0,0,0.9,0,1.4l0.4,4.8h1.5l-0.7-8.1
	h-1.7L128.8,8c-0.2,0.5-0.4,1.1-0.4,1.1h0c0,0-0.2-0.6-0.4-1.1l-2.1-4.6h-1.7L123.4,11.5z M135.4,11.5h1.6V4.7h4v6.8h1.6V3.4h-7.1
	V11.5z M144.2,9.3c0,1.5,1.3,2.4,2.7,2.4c1.2,0,2.2-0.7,2.7-1.6h0c0,0,0,0.3,0,0.6v0.8h1.5V6.4c0-2-1.2-3.2-3.2-3.2
	c-1.1,0-2.4,0.4-3,1l0.6,1.1c0.7-0.5,1.5-0.8,2.3-0.8c1,0,1.8,0.4,1.8,1.8v0.2H149C147.3,6.4,144.2,6.7,144.2,9.3z M145.7,9.2
	c0-1.5,2.1-1.6,3.3-1.6h0.4v0.3c0,1.2-0.8,2.6-2.2,2.6C146.2,10.4,145.7,9.8,145.7,9.2z M153.3,11.5h1.6V8h4.1v3.5h1.6V3.4h-1.6v3.3
	h-4.1V3.4h-1.6V11.5z M162.9,11.5h1.5l3.5-4.8c0.3-0.4,0.7-0.9,0.7-1.1h0c0,0.1,0,0.7,0,1.1v4.8h1.5V3.4h-1.5l-3.5,4.8
	c-0.3,0.4-0.7,0.9-0.7,1.1h0c0-0.1,0-0.7,0-1.1V3.4h-1.5V11.5z M171.6,11.5h1.7l2-2.9h1.4v2.9h1.6V3.4H175c-1.7,0-2.9,0.9-2.9,2.5
	c0,1.2,0.8,2.1,1.8,2.4v0c0,0-0.2,0.2-0.4,0.5L171.6,11.5z M175.3,7.4c-0.9,0-1.7-0.5-1.7-1.5c0-1,0.7-1.5,1.7-1.5h1.3v3H175.3z
	 M180.1,7.4c0,2.4,1.8,4.2,4.3,4.2c1.3,0,2.5-0.5,3.2-1.3L187,9.2c-0.6,0.7-1.6,1.1-2.5,1.1c-1.7,0-2.9-1.3-2.9-2.9s1.2-2.9,2.8-2.9
	c0.8,0,1.7,0.4,2.2,0.9l0.7-1.1c-0.8-0.8-2-1.2-3-1.2C181.9,3.2,180.1,5,180.1,7.4z M196.7,11.5h1.6V3.4h-1.6V11.5z M189.3,11.5h3.1
	c2,0,3-1,3-2.6c0-1.8-1.3-2.6-2.9-2.6h-1.6V3.4h-1.6V11.5z M190.9,10.4V7.4h1.3c1.1,0,1.6,0.6,1.6,1.5c0,0.8-0.5,1.5-1.6,1.5H190.9z
	 M200.6,11.5h1.6V8h4.1v3.5h1.6V3.4h-1.6v3.3h-4.1V3.4h-1.6V11.5z M217.5,11.5h1.6V3.4h-1.6V11.5z M210.2,11.5h3.1c2,0,3-1,3-2.6
	c0-1.8-1.3-2.6-2.9-2.6h-1.6V3.4h-1.6V11.5z M211.8,10.4V7.4h1.3c1.1,0,1.6,0.6,1.6,1.5c0,0.8-0.5,1.5-1.6,1.5H211.8z M221.5,11.5
	h1.6V8h4.1v3.5h1.5v1.9h1.4v-3.3h-1.4V3.4h-1.6v3.3H223V3.4h-1.6V11.5z M41.6,26.4c0,2.5,2,4.3,4.4,4.3c2.4,0,4.4-1.8,4.4-4.3
	c0-2.4-2-4.2-4.4-4.2C43.6,22.2,41.6,24,41.6,26.4z M43.2,26.4c0-1.7,1.2-2.9,2.8-2.9c1.5,0,2.8,1.2,2.8,2.9c0,1.7-1.3,2.9-2.8,2.9
	C44.5,29.3,43.2,28.1,43.2,26.4z M51.7,26.4c0,2.5,1.9,4.1,4.4,4.3v3h1.5v-3c2.5-0.1,4.4-1.8,4.4-4.3c0-2.5-1.9-4.1-4.4-4.2v-2.9
	h-1.5v2.9C53.6,22.3,51.7,23.9,51.7,26.4z M57.6,29.4v-5.9c1.6,0.1,2.8,1.2,2.8,2.9C60.4,28.2,59.2,29.3,57.6,29.4z M53.2,26.4
	c0-1.8,1.2-2.8,2.8-2.9v5.9C54.4,29.3,53.2,28.2,53.2,26.4z M63.8,30.5h1.5l3.5-4.8c0.3-0.4,0.7-0.9,0.7-1.1h0c0,0.1,0,0.7,0,1.1
	v4.8H71v-8.1h-1.5L66,27.2c-0.3,0.4-0.7,0.9-0.7,1.1h0c0-0.1,0-0.7,0-1.1v-4.8h-1.5V30.5z M72.9,26.4c0,2.4,1.8,4.2,4.3,4.2
	c1.3,0,2.5-0.5,3.2-1.3l-0.6-1.1c-0.6,0.7-1.6,1.1-2.5,1.1c-1.7,0-2.9-1.3-2.9-2.9c0-1.6,1.2-2.9,2.8-2.9c0.8,0,1.7,0.4,2.2,0.9
	l0.7-1.1c-0.8-0.8-2-1.2-3-1.2C74.7,22.2,72.9,24,72.9,26.4z M82.1,20.8h1.6v-1.6h-1.6V20.8z M82.1,30.5h1.6v-8.1h-1.6V30.5z
	 M86,30.5h1.6V27h4.1v3.5h1.6v-8.1h-1.6v3.3h-4.1v-3.3H86V30.5z M95.1,26.4c0,2.4,1.8,4.2,4.3,4.2c1.1,0,2.4-0.4,3.1-1.2l-0.7-1.1
	c-0.6,0.6-1.5,0.9-2.4,0.9c-1.5,0-2.7-0.9-2.8-2.7h5.9c0-0.2,0.1-0.4,0.1-0.7c0-2.1-1.2-3.8-3.5-3.8C96.9,22.2,95.1,23.9,95.1,26.4z
	 M96.8,25.5c0.2-1.3,1.2-2.1,2.4-2.1c1.1,0,1.9,0.7,2,2.1H96.8z M108.2,25.8c0,2.8,1.2,4.8,4,4.8c2.3,0,3.8-1.6,3.8-3.8
	c0-2.3-1.4-3.7-3.4-3.7c-1.1,0-2.1,0.4-2.9,1.4h0c0.1-1.6,0.9-2.5,2.5-3.2l3.1-1.3l-0.5-1.3l-2.9,1.2
	C109,21.2,108.2,22.9,108.2,25.8z M109.8,26.8c0-1.4,1-2.5,2.4-2.5c1.2,0,2.3,0.9,2.3,2.5c0,1.6-1,2.5-2.3,2.5
	C110.9,29.4,109.8,28.4,109.8,26.8z M117.3,28.3c0,1.5,1.3,2.4,2.7,2.4c1.2,0,2.2-0.7,2.7-1.6h0c0,0,0,0.3,0,0.6v0.8h1.5v-5.1
	c0-2-1.2-3.2-3.2-3.2c-1.1,0-2.4,0.4-3,1l0.6,1.1c0.7-0.5,1.5-0.8,2.3-0.8c1,0,1.8,0.4,1.8,1.8v0.2h-0.4
	C120.4,25.4,117.3,25.7,117.3,28.3z M118.8,28.2c0-1.5,2.1-1.6,3.3-1.6h0.4v0.3c0,1.2-0.8,2.6-2.2,2.6
	C119.3,29.4,118.8,28.8,118.8,28.2z M126.3,33.7h1.6V30c0-0.4-0.1-0.7-0.1-0.7h0c0.6,0.9,1.5,1.4,2.5,1.4c2.1,0,3.7-1.7,3.7-4.2
	c0-2.5-1.4-4.2-3.6-4.2c-1.2,0-2.2,0.5-2.7,1.5h0c0,0,0-0.3,0-0.6v-0.7h-1.4V33.7z M127.8,26.5c0-2,1.1-2.9,2.3-2.9
	c1.3,0,2.3,1.1,2.3,2.9c0,1.8-1.1,2.9-2.3,2.9C128.6,29.3,127.8,27.9,127.8,26.5z M135.6,30.5h1.5l0.4-4.8c0-0.5,0-1.4,0-1.4h0
	c0,0,0.3,0.6,0.5,1.2l1.9,4h1.3l1.9-4c0.3-0.6,0.5-1.2,0.5-1.2h0c0,0,0,0.9,0,1.4l0.4,4.8h1.5l-0.7-8.1h-1.7L141,27
	c-0.2,0.5-0.4,1.1-0.4,1.1h0c0,0-0.2-0.6-0.4-1.1l-2.1-4.6h-1.7L135.6,30.5z M147,28.3c0,1.5,1.3,2.4,2.7,2.4c1.2,0,2.2-0.7,2.7-1.6
	h0c0,0,0,0.3,0,0.6v0.8h1.5v-5.1c0-2-1.2-3.2-3.2-3.2c-1.1,0-2.4,0.4-3,1l0.6,1.1c0.7-0.5,1.5-0.8,2.3-0.8c1,0,1.8,0.4,1.8,1.8v0.2
	h-0.4C150.1,25.4,147,25.7,147,28.3z M148.5,28.2c0-1.5,2.1-1.6,3.3-1.6h0.4v0.3c0,1.2-0.8,2.6-2.2,2.6
	C149,29.4,148.5,28.8,148.5,28.2z M159.6,21.5c1.2,0,2.4-0.7,2.4-2v-0.2h-1.2v0.2c0,0.7-0.6,1.1-1.1,1.1s-1.1-0.4-1.1-1.1v-0.2h-1.2
	v0.2C157.3,20.7,158.4,21.5,159.6,21.5z M156.1,30.5h1.5l3.5-4.8c0.3-0.4,0.7-0.9,0.7-1.1h0c0,0.1,0,0.7,0,1.1v4.8h1.5v-8.1h-1.5
	l-3.5,4.8c-0.3,0.4-0.7,0.9-0.7,1.1h0c0-0.1,0-0.7,0-1.1v-4.8h-1.5V30.5z M165.5,26.6h4.7v-1.4h-4.7V26.6z M171.9,28.3
	c0,1.5,1.3,2.4,2.7,2.4c1.2,0,2.2-0.7,2.7-1.6h0c0,0,0,0.3,0,0.6v0.8h1.5v-5.1c0-2-1.2-3.2-3.2-3.2c-1.1,0-2.4,0.4-3,1l0.6,1.1
	c0.7-0.5,1.5-0.8,2.3-0.8c1,0,1.8,0.4,1.8,1.8v0.2h-0.4C175,25.4,171.9,25.7,171.9,28.3z M173.4,28.2c0-1.5,2.1-1.6,3.3-1.6h0.4v0.3
	c0,1.2-0.8,2.6-2.2,2.6C173.9,29.4,173.4,28.8,173.4,28.2z M181,30.5h1.6V27h1.2l2.4,3.5h0.9v1.9h1.4v-3.3H187l-2-2.9v0l2.7-3.9
	h-1.8l-2.2,3.3h-1.1v-3.3H181V30.5z"/>
</svg>
