<?xml version="1.0" encoding="utf-8"?>
<!-- Generator: Adobe Illustrator 25.2.3, SVG Export Plug-In . SVG Version: 6.00 Build 0)  -->
<svg version="1.1" id="Layer_1" xmlns="http://www.w3.org/2000/svg" xmlns:xlink="http://www.w3.org/1999/xlink" x="0px" y="0px"
	 viewBox="0 0 142.6 40.5" style="enable-background:new 0 0 142.6 40.5;" xml:space="preserve">
<style type="text/css">
	.st0{fill:#FFFFFF;}
</style>
<path class="st0" d="M0,14.1h2V7.7h2.1l3.8,6.5h1.4v2.8H11v-4.5H9.1L5.7,6.8v0L9.8,0H7.7L4.1,6H2V0H0V14.1z M12.6,14.1h1.9l4.4-6
	c0.3-0.5,0.8-1.2,0.9-1.3h0c0,0.2-0.1,0.9-0.1,1.3v6h1.9V4h-1.9l-4.4,6c-0.3,0.5-0.8,1.2-0.9,1.4h0c0-0.1,0.1-0.8,0.1-1.4V4h-1.9
	V14.1z M33.8,14.1h1.9V4h-1.9V14.1z M24.6,14.1h3.9c2.5,0,3.7-1.3,3.7-3.2c0-2.3-1.6-3.3-3.7-3.3h-2V4h-1.9V14.1z M26.5,12.7V9.1
	h1.7c1.4,0,2,0.8,2,1.8c0,1.1-0.6,1.8-2,1.8H26.5z M38.7,14.1h1.9V9.8h5.1v4.3h1.9V4h-1.9v4.1h-5.1V4h-1.9V14.1z M54.5,14.1h2.2
	l2.7-4.3h1.4v4.3h1.8V9.8h1.5l2.6,4.3h2.2l-3.3-5.2v0l3-4.9h-2l-2.5,4.1h-1.4V4h-1.8v4.1h-1.4L56.9,4h-2.1l3,4.9v0L54.5,14.1z
	 M69.9,11.4c0,1.9,1.6,3,3.4,3c1.5,0,2.7-0.9,3.3-2.1h0c0,0-0.1,0.3-0.1,0.8v1h1.8V7.7c0-2.6-1.5-4-4-4c-1.4,0-3,0.5-3.8,1.2
	l0.8,1.4c0.8-0.6,1.8-1,2.8-1c1.3,0,2.2,0.6,2.2,2.2v0.2h-0.5C73.8,7.8,69.9,8.2,69.9,11.4z M71.8,11.2c0-1.9,2.7-2,4.1-2h0.5v0.4
	c0,1.5-1,3.2-2.7,3.2C72.5,12.8,71.8,12,71.8,11.2z M81.3,14.1h1.9V10h2.6V8.7h-2.6v-3h4.4V4h-6.4v4.6h-1.2V10h1.2V14.1z M90.7,12.5
	c1.3-2,1.4-4.9,1.4-6.4V5.6h3v6.9H90.7z M87.4,12.5v4h1.8v-2.4h7.5v2.4h1.8v-4h-1.4V4h-6.8v1.9c0,1.6-0.2,4.7-1.6,6.7H87.4z
	 M99.7,11.4c0,1.9,1.6,3,3.4,3c1.5,0,2.7-0.9,3.3-2.1h0c0,0-0.1,0.3-0.1,0.8v1h1.8V7.7c0-2.6-1.5-4-4-4c-1.4,0-3,0.5-3.8,1.2
	l0.8,1.4c0.8-0.6,1.8-1,2.8-1c1.3,0,2.2,0.6,2.2,2.2v0.2h-0.5C103.7,7.8,99.7,8.2,99.7,11.4z M101.7,11.2c0-1.9,2.7-2,4.1-2h0.5v0.4
	c0,1.5-1,3.2-2.7,3.2C102.3,12.8,101.7,12,101.7,11.2z M115.5,2.9c1.6,0,3-0.9,3-2.6V0H117v0.3c0,0.9-0.7,1.3-1.4,1.3
	c-0.7,0-1.4-0.4-1.4-1.3V0h-1.6v0.3C112.6,1.9,114,2.9,115.5,2.9z M111.1,14.1h1.9l4.4-6c0.3-0.5,0.8-1.2,0.9-1.3h0
	c0,0.2-0.1,0.9-0.1,1.3v6h1.9V4h-1.9l-4.4,6c-0.3,0.5-0.8,1.2-0.9,1.4h0c0-0.1,0.1-0.8,0.1-1.4V4h-1.9V14.1z M125,12.5
	c1.3-2,1.4-4.9,1.4-6.4V5.6h3v6.9H125z M121.8,12.5v4h1.8v-2.4h7.5v2.4h1.8v-4h-1.4V4h-6.8v1.9c0,1.6-0.2,4.7-1.6,6.7H121.8z
	 M134.1,11.4c0,1.9,1.6,3,3.4,3c1.5,0,2.7-0.9,3.3-2.1h0c0,0-0.1,0.3-0.1,0.8v1h1.8V7.7c0-2.6-1.5-4-4-4c-1.4,0-3,0.5-3.8,1.2
	l0.8,1.4c0.8-0.6,1.8-1,2.8-1c1.3,0,2.2,0.6,2.2,2.2v0.2h-0.5C138,7.8,134.1,8.2,134.1,11.4z M136,11.2c0-1.9,2.7-2,4.1-2h0.5v0.4
	c0,1.5-1,3.2-2.7,3.2C136.7,12.8,136,12,136,11.2z M14.1,33.1c0,3.1,2.4,5.3,5.5,5.3c3,0,5.4-2.2,5.4-5.3c0-3.1-2.4-5.3-5.5-5.3
	C16.6,27.8,14.1,30,14.1,33.1z M16.1,33.1c0-2.1,1.6-3.6,3.5-3.6c1.9,0,3.5,1.5,3.5,3.6c0,2.1-1.6,3.6-3.5,3.6
	C17.7,36.7,16.1,35.2,16.1,33.1z M27.4,38.1h1.9v-4.3h5.1v4.3h1.9v2.4h1.8v-4.1h-1.7V28h-1.9v4.1h-5.1V28h-1.9V38.1z M39.2,35.4
	c0,1.9,1.6,3,3.4,3c1.5,0,2.7-0.9,3.3-2.1h0c0,0-0.1,0.3-0.1,0.8v1h1.8v-6.4c0-2.6-1.5-4-4-4c-1.4,0-3,0.5-3.8,1.2l0.8,1.4
	c0.8-0.6,1.8-1,2.8-1c1.3,0,2.2,0.6,2.2,2.2v0.2h-0.5C43.1,31.8,39.2,32.2,39.2,35.4z M41.1,35.2c0-1.9,2.7-2,4.1-2h0.5v0.4
	c0,1.5-1,3.2-2.7,3.2C41.8,36.8,41.1,36,41.1,35.2z M55,26.9c1.6,0,3-0.9,3-2.6V24h-1.5v0.3c0,0.9-0.7,1.3-1.4,1.3s-1.4-0.4-1.4-1.3
	V24H52v0.3C52,25.9,53.5,26.9,55,26.9z M50.5,38.1h1.9l4.4-6c0.3-0.5,0.8-1.2,0.9-1.3h0c0,0.2-0.1,0.9-0.1,1.3v6h1.9V28h-1.9l-4.4,6
	c-0.3,0.5-0.8,1.2-0.9,1.4h0c0-0.1,0.1-0.8,0.1-1.4v-6h-1.9V38.1z M67.5,38.1h13.1V28h-1.9v8.4H75V28h-1.9v8.4h-3.7V28h-1.9V38.1z
	 M82.9,33.1c0,3,2.2,5.3,5.4,5.3c1.4,0,2.9-0.5,3.9-1.4l-0.8-1.4c-0.8,0.7-1.9,1.2-3,1.2c-1.8,0-3.4-1.2-3.5-3.4h7.4
	c0-0.3,0.1-0.6,0.1-0.8c0-2.6-1.5-4.7-4.4-4.7C85.1,27.8,82.9,29.9,82.9,33.1z M85,31.9c0.3-1.7,1.5-2.7,3-2.7
	c1.3,0,2.4,0.9,2.5,2.7H85z M94.7,38.1h13.1V28h-1.9v8.4h-3.7V28h-1.9v8.4h-3.7V28h-1.9V38.1z M110.7,26h2v-2h-2V26z M110.8,38.1
	h1.9V28h-1.9V38.1z M115.3,38.1h1.9l0.4-6c0-0.6,0-1.7,0-1.7h0c0,0,0.3,0.8,0.6,1.5l2.4,5h1.7l2.4-5.1c0.4-0.8,0.6-1.5,0.6-1.5h0
	c0,0,0,1.1,0,1.7l0.4,6h1.9L126.8,28h-2.1l-2.6,5.7c-0.3,0.6-0.6,1.4-0.6,1.4h0c0,0-0.3-0.8-0.6-1.4l-2.6-5.7h-2.2L115.3,38.1z"/>
</svg>
